<?xml version="1.0" standalone="no"?>
<!DOCTYPE svg PUBLIC "-//W3C//DTD SVG 1.1//EN" "http://www.w3.org/Graphics/SVG/1.1/DTD/svg11.dtd" >
<svg>
<metadata>
Created by FontForge 20090914 at Mon May 14 19:38:45 2018
 By www-data
Copyright (c) 2002, 2005 Parachute&#194;&#168;, www.parachute.gr.  All rights reserved.
</metadata>
<defs>
<font id="PFDinDisplayPro-Regular" horiz-adv-x="1075" >
  <font-face 
    font-family="PF DinDisplay Pro"
    font-weight="400"
    font-stretch="normal"
    units-per-em="2048"
    panose-1="2 0 5 6 3 0 0 2 0 4"
    ascent="1536"
    descent="-512"
    x-height="1065"
    cap-height="1482"
    bbox="-368 -444.998 2333 1966"
    underline-thickness="122"
    underline-position="-82"
    unicode-range="U+000D-U+FB02"
  />
<missing-glyph horiz-adv-x="748" 
d="M68 0v1365h544v-1365h-544zM136 68h408v1229h-408v-1229z" />
    <glyph glyph-name="uniFB01" unicode="fi" horiz-adv-x="1026" 
d="M56 901l-0.000976562 165.999h131v189c0 94.667 27.333 164.834 82 210.501s120.334 68.5 197.001 68.5h160v-163h-142c-46 0 -76.5 -13.667 -91.5 -41s-22.5 -59.333 -22.5 -96v-168h531v-1067h-183v901h-348v-901h-183v901h-131zM700.999 1383
c0 30 10.333 55.333 31 76s46 31 76 31c30.667 0 56.334 -10.333 77.001 -31s31 -46 31 -76s-10.333 -55.833 -31 -77.5s-46.334 -32.5 -77.001 -32.5c-30 0 -55.333 10.833 -76 32.5s-31 47.5 -31 77.5z" />
    <glyph glyph-name="uniFB02" unicode="fl" horiz-adv-x="1132" 
d="M56 901l0.00195312 166.002h131v172c0 67.333 10.5 123.166 31.5 167.499s48.667 79.5 83 105.5s74 44.167 119 54.5s92.167 15.5 141.5 15.5c28.667 0 70.167 -2 124.5 -6s125.166 -17 212.499 -39v-1253c0 -56 12.5 -90.667 37.5 -104s67.167 -18.666 126.5 -15.999
l4 -168c-20.667 -2.66699 -39.834 -4.83398 -57.501 -6.50098s-34.5 -2.5 -50.5 -2.5c-50.667 0 -91.167 6.16699 -121.5 18.5s-55 30.166 -74 53.499s-31.667 51.833 -38 85.5s-9.5 72.167 -9.5 115.5v1135c-26 7.33301 -51.5 13 -76.5 17s-54.833 6 -89.5 6
c-120 0 -180 -58.333 -180 -175v-176h230v-166h-230v-901h-183v901h-131z" />
    <glyph glyph-name=".notdef" horiz-adv-x="748" 
d="M68 0v1365h544v-1365h-544zM136 68h408v1229h-408v-1229z" />
    <glyph glyph-name="glyph1" horiz-adv-x="2048" 
 />
    <glyph glyph-name="glyph1" horiz-adv-x="2048" 
 />
    <glyph glyph-name="uni000D" unicode="&#xd;" horiz-adv-x="2048" 
 />
    <glyph glyph-name="space" unicode=" " horiz-adv-x="515" 
 />
    <glyph glyph-name="exclam" unicode="!" horiz-adv-x="509" 
d="M129 119c0 30 10.332 57.668 30.999 83.001s51.334 38 92.001 38c41.333 0 73.5 -12.667 96.5 -38s34.5 -53 34.5 -83c0 -36 -11.5 -66.5 -34.5 -91.5s-55.167 -37.5 -96.5 -37.5c-40 0 -70.5 12.167 -91.5 36.5s-31.5 55.166 -31.5 92.499zM159.999 1496h191l-16 -1090
h-161z" />
    <glyph glyph-name="quotedbl" unicode="&#x22;" horiz-adv-x="657" 
d="M121 1094v402h148v-402h-148zM383 1094v402h148v-402h-148z" />
    <glyph glyph-name="numbersign" unicode="#" horiz-adv-x="1130" 
d="M54 458v139h213l43 308h-196v138h215l65 451h148l-60 -451h242l64 451h150l-62 -451h201v-138h-221l-41 -308h202v-139h-221l-63 -458h-157l64 458h-238l-62 -458h-159l67 458h-194zM421 597h239l44 308h-242z" />
    <glyph glyph-name="dollar" unicode="$" 
d="M56 174l103.994 140.002c58.667 -44 121.167 -79 187.5 -105s133.833 -39 202.5 -39c96 0 168.167 21.167 216.5 63.5s72.5 101.5 72.5 177.5c0 48.667 -10.167 87.667 -30.5 117s-46.166 52.666 -77.499 69.999s-66 30.666 -104 39.999s-74.667 17.666 -110 24.999
c-53.333 10.667 -105.166 25.334 -155.499 44.001s-95.166 44 -134.499 76s-70.833 70.833 -94.5 116.5s-35.5 102.167 -35.5 169.5c0 56 9.5 108 28.5 156s45.833 89.833 80.5 125.5s75.334 65 122.001 88s97.334 37.5 152.001 43.5v178h129l-5 -176
c64 -3.33301 127.333 -13.833 190 -31.5s124.334 -45.167 185.001 -82.5l-84 -159c-54.667 32.667 -110.834 58 -168.501 76s-116.5 27 -176.5 27c-34 0 -67.5 -5.33301 -100.5 -16s-61.667 -26.5 -86 -47.5s-44.166 -46.833 -59.499 -77.5s-23 -66.667 -23 -108
c0 -40 9.83301 -73 29.5 -99s44.5 -47.5 74.5 -64.5s62.667 -30.667 98 -41s68 -18.833 98 -25.5c56 -14 110 -29.5 162 -46.5s98.833 -40.5 140.5 -70.5s75.167 -69.333 100.5 -118s38 -111.667 38 -189c0 -122 -38 -218.833 -114 -290.5s-177.333 -112.5 -304 -122.5h5
v-209h-129v209c-78 5.33301 -152.167 22 -222.5 50s-137.5 70 -201.5 126z" />
    <glyph glyph-name="percent" unicode="%" horiz-adv-x="1719" 
d="M103 831l-0.000976562 409.999c0 38.667 8.16699 73.334 24.5 104.001s38.5 56.667 66.5 78s60.333 37.833 97 49.5s75.667 17.5 117 17.5c40 0 78.833 -5.83301 116.5 -17.5s70.5 -28.167 98.5 -49.5s50.167 -47.333 66.5 -78s24.5 -65.334 24.5 -104.001v-410
c0 -38.667 -8.16699 -73.667 -24.5 -105s-38.5 -57.666 -66.5 -78.999s-60.333 -37.666 -97 -48.999s-76 -17 -118 -17c-42.667 0 -82.667 5.66699 -120 17s-69.666 27.666 -96.999 48.999s-48.833 47.5 -64.5 78.5s-23.5 66.167 -23.5 105.5zM259.999 846.999
c0 -24 4.66797 -44.333 14.001 -61s21.5 -30 36.5 -40s31.167 -17.167 48.5 -21.5s33.666 -6.5 48.999 -6.5c16.667 0 33.834 2.16699 51.501 6.5s34 11.5 49 21.5s27.667 23.333 38 40s15.5 37 15.5 61v372c0 24.667 -5.16699 45.167 -15.5 61.5s-23 30 -38 41
s-31.333 18.5 -49 22.5s-34.834 6 -51.501 6c-16 0 -32.5 -2 -49.5 -6s-33 -11.5 -48 -22.5s-27.167 -24.667 -36.5 -41s-14 -36.833 -14 -61.5v-372zM333 -37.001l914 1570h144l-915 -1570h-143zM1004 239.999l-0.00292969 412c0 38.667 8.33301 73.334 25 104.001
s38.834 56.667 66.501 78s59.834 37.833 96.501 49.5s75.667 17.5 117 17.5c40 0 78.833 -5.83301 116.5 -17.5s70.5 -28.167 98.5 -49.5s50.167 -47.333 66.5 -78s24.5 -65.334 24.5 -104.001v-412c0 -38 -8.16699 -72.5 -24.5 -103.5s-38.5 -57.167 -66.5 -78.5
s-60.333 -37.666 -97 -48.999s-76 -17 -118 -17c-42.667 0 -82.667 5.66699 -120 17s-69.666 27.666 -96.999 48.999s-48.833 47.5 -64.5 78.5s-23.5 65.5 -23.5 103.5zM1161 257.999c0 -24 4.83301 -44.333 14.5 -61s22 -30 37 -40s31 -17.167 48 -21.5
s33.167 -6.5 48.5 -6.5c16.667 0 33.834 2.16699 51.501 6.5s34 11.5 49 21.5s27.667 23.333 38 40s15.5 37 15.5 61v372c0 24.667 -5.16699 45.167 -15.5 61.5s-23 30 -38 41s-31.333 18.5 -49 22.5s-34.834 6 -51.501 6c-16 0 -32.333 -2 -49 -6s-32.5 -11.5 -47.5 -22.5
s-27.333 -24.667 -37 -41s-14.5 -36.833 -14.5 -61.5v-372z" />
    <glyph glyph-name="ampersand" unicode="&#x26;" horiz-adv-x="1786" 
d="M101 1069c0 86 17.333 168.998 52 248.998s84.167 150.5 148.5 211.5s142.333 109.833 234 146.5s194.167 55 307.5 55c127.333 0 239.833 -21.5 337.5 -64.5s179 -101.667 244 -176s114.333 -161 148 -260s50.5 -204.5 50.5 -316.5
c0 -135.333 -26.667 -259.833 -80 -373.5s-123 -212.834 -209 -297.501c51.333 -49.333 103.833 -92.5 157.5 -129.5s110.5 -67.833 170.5 -92.5l-73 -135c-64.667 28.667 -131.334 66.334 -200.001 113.001s-128.667 95 -180 145
c-63.333 -49.333 -135.666 -88.166 -216.999 -116.499s-161 -42.5 -239 -42.5c-64.667 0 -125.334 9 -182.001 27s-106.167 44.833 -148.5 80.5s-75.666 80.167 -99.999 133.5s-36.5 115 -36.5 185c0 101.333 32.667 189.833 98 265.5s149.333 142.834 252 201.501
c-38 54.667 -65.667 103.334 -83 146.001s-26 87 -26 133c0 44 6.83301 85.833 20.5 125.5s33.334 73.5 59.001 101.5s57.5 50.167 95.5 66.5s81.667 24.5 131 24.5c46 0 88.167 -7.5 126.5 -22.5s71.5 -35.833 99.5 -62.5s50 -57.5 66 -92.5s24 -72.833 24 -113.5
c0 -83.333 -25.667 -152.833 -77 -208.5s-118.666 -108.5 -201.999 -158.5l167.5 -231c61 -81.333 125.167 -160.333 192.5 -237c72.667 72.667 131.334 156.667 176.001 252s67 198.666 67 309.999c0 90.667 -13.333 177 -40 259s-66.334 153.667 -119.001 215
s-117.834 110.333 -195.501 147s-166.5 55 -266.5 55c-92 0 -175 -13.5 -249 -40.5s-137.167 -64 -189.5 -111s-92.333 -101 -120 -162s-41.5 -125.833 -41.5 -194.5c0 -48.667 7.16699 -97.667 21.5 -147s37.166 -98.333 68.499 -147l-129 -75
c-38.667 57.333 -67 116.5 -85 177.5s-27 121.5 -27 181.5zM445 414.998c0 -48 7.49902 -89.833 22.499 -125.5s35.833 -65.167 62.5 -88.5s57.5 -41.166 92.5 -53.499s72.5 -18.5 112.5 -18.5c60 0 121.667 10.167 185 30.5s126 51.166 188 92.499
c-36 38.667 -72 79.5 -108 122.5s-70.167 86 -102.5 129l-92.5 126.5c-29.333 41.333 -55.333 80.333 -78 117c-38.667 -22 -75.167 -44.5 -109.5 -67.5s-64.166 -48 -89.499 -75s-45.5 -56 -60.5 -87s-22.5 -65.167 -22.5 -102.5zM694.999 1168
c0 -34.667 8.16797 -68.833 24.501 -102.5s39.166 -71.5 68.499 -113.5c57.333 32 104.833 65 142.5 99s56.5 78.333 56.5 133c0 41.333 -15.333 75.833 -46 103.5s-66.667 41.5 -108 41.5c-26 0 -47.667 -5 -65 -15s-31.333 -23.167 -42 -39.5s-18.5 -33.833 -23.5 -52.5
s-7.5 -36.667 -7.5 -54z" />
    <glyph glyph-name="quotesingle" unicode="'" horiz-adv-x="552" 
d="M209 1094v402h148v-402h-148z" />
    <glyph glyph-name="parenleft" unicode="(" horiz-adv-x="622" 
d="M109 656c0 92 10.8311 180.5 32.498 265.5s50.834 166.333 87.501 244s78.667 150.167 126 217.5s97.333 129.666 150 186.999l99 -60c-46.667 -58.667 -88 -122.167 -124 -190.5s-67.333 -139 -94 -212s-47.167 -146.833 -61.5 -221.5s-21.5 -147.667 -21.5 -219
c0 -78 7.66699 -155.667 23 -233s36.166 -152.5 62.499 -225.5s57.833 -143.167 94.5 -210.5s76.334 -129.666 119.001 -186.999l-91 -69c-52.667 57.333 -103 120.5 -151 189.5s-90.667 142.167 -128 219.5s-67.166 158.333 -89.499 243s-33.5 172 -33.5 262z" />
    <glyph glyph-name="parenright" unicode=")" horiz-adv-x="622" 
d="M43 -189c42.667 57.333 82.332 119.666 118.999 186.999s68.334 137.5 95.001 210.5s47.5 148.167 62.5 225.5s22.5 155 22.5 233c0 71.333 -7.16699 144.333 -21.5 219s-34.333 148.5 -60 221.5s-57.334 143.667 -95.001 212s-78.5 131.833 -122.5 190.5l97 60
c52.667 -57.333 103 -119.666 151 -186.999s90.5 -139.833 127.5 -217.5s66.167 -159 87.5 -244s32 -173.5 32 -265.5c0 -90 -11.167 -177.333 -33.5 -262s-52.166 -165.667 -89.499 -243s-80.333 -150.5 -129 -219.5s-99.667 -132.167 -153 -189.5z" />
    <glyph glyph-name="asterisk" unicode="*" horiz-adv-x="775" 
d="M60 1209l41 139l239 -101l-22 259h146l-21 -259l119.5 50.5l118.5 50.5l41 -142l-244 -62l167 -194l-60 -46l-60 -46l-133 224l-136 -226l-60 46.5l-61 45.5l168 196c-39.333 10 -79.5 20.833 -120.5 32.5s-81.833 22.5 -122.5 32.5z" />
    <glyph glyph-name="plus" unicode="+" 
d="M62 564v137h406v409h139v-409h404v-137h-404v-414h-139v414h-406z" />
    <glyph glyph-name="comma" unicode="," horiz-adv-x="537" 
d="M123 -203c32.667 24.667 59.001 51.6699 79.001 81.0029s31.333 65.666 34 108.999c-30 3.33301 -53.833 16.666 -71.5 39.999s-26.5 51.333 -26.5 84c0 32 11.5 60.833 34.5 86.5s54.5 38.5 94.5 38.5c27.333 0 50.166 -5.16699 68.499 -15.5s33.333 -24 45 -41
s20 -35.833 25 -56.5s7.5 -40.334 7.5 -59.001c0 -40 -6.5 -78.167 -19.5 -114.5s-29.833 -69.5 -50.5 -99.5s-44.667 -57 -72 -81s-55.333 -42.333 -84 -55z" />
    <glyph glyph-name="hyphen" unicode="-" horiz-adv-x="842" 
d="M111 495v161h620v-161h-620z" />
    <glyph glyph-name="period" unicode="." horiz-adv-x="470" 
d="M114 119c0 30 10.334 57.668 31.001 83.001s51 38 91 38c41.333 0 73.666 -12.667 96.999 -38s35 -53 35 -83c0 -36 -11.5 -66.5 -34.5 -91.5s-55.5 -37.5 -97.5 -37.5c-40 0 -70.333 12.167 -91 36.5s-31 55.166 -31 92.499z" />
    <glyph glyph-name="slash" unicode="/" horiz-adv-x="681" 
d="M-2 -90l540 1649h139l-539 -1649h-140z" />
    <glyph glyph-name="zero" unicode="0" 
d="M86 370l-0.000976562 740c0 60 13.333 114 40 162s61.5 88.833 104.5 122.5s91.333 59 145 76s107.834 25.5 162.501 25.5s108.667 -8.5 162 -25.5s101.5 -42.333 144.5 -76s77.833 -74.5 104.5 -122.5s40 -102 40 -162v-740c0 -60.667 -13.333 -114.5 -40 -161.5
s-61.5 -86.667 -104.5 -119s-91.167 -57 -144.5 -74s-107.333 -25.5 -162 -25.5c-56 0 -110.833 8.5 -164.5 25.5s-101.667 41.667 -144 74s-76.833 72 -103.5 119s-40 100.833 -40 161.5zM274.999 417c0 -48 8.16699 -87.833 24.5 -119.5s37.5 -58 63.5 -79
s54.5 -35.667 85.5 -44s60.833 -12.5 89.5 -12.5s58.334 4.16699 89.001 12.5s59 23 85 44s47.5 47.5 64.5 79.5s25.5 71.667 25.5 119v646c0 47.333 -8.5 87.5 -25.5 120.5s-38.5 59.833 -64.5 80.5s-54.333 35.167 -85 43.5s-60.334 12.5 -89.001 12.5
s-58.5 -4.16699 -89.5 -12.5s-59.5 -22.833 -85.5 -43.5s-47.167 -47.667 -63.5 -81s-24.5 -73.333 -24.5 -120v-646z" />
    <glyph glyph-name="one" unicode="1" 
d="M205 1223l312 259h173v-1482h-185v1254l-202 -166z" />
    <glyph glyph-name="two" unicode="2" 
d="M90 0l0.00292969 174.003c0 60.667 10 116.667 30 168s47.333 99.166 82 143.499s74.167 85.666 118.5 123.999s90.833 73.833 139.5 106.5c41.333 26 81.666 54 120.999 84s74.833 61.167 106.5 93.5s57 65.666 76 99.999s28.5 69.5 28.5 105.5
c0 38.667 -8.33301 72 -25 100s-38.667 51 -66 69s-57.833 31.167 -91.5 39.5s-67.834 12.5 -102.501 12.5c-60 0 -115.833 -10.333 -167.5 -31s-96.5 -47.334 -134.5 -80.001l-98 139c49.333 41.333 107.666 76.333 174.999 105s142.333 43 225 43
c60 0 118.833 -7.16699 176.5 -21.5s108.667 -36.833 153 -67.5s80.166 -70.667 107.499 -120s41 -109 41 -179c0 -54.667 -13.333 -107 -40 -157s-59.5 -97 -98.5 -141s-81.167 -84 -126.5 -120s-87.666 -67 -126.999 -93l-93.5 -66.5
c-35 -25.667 -68.5 -54.167 -100.5 -85.5s-59.167 -65.666 -81.5 -102.999s-33.5 -77.333 -33.5 -120v-56h697v-166h-891z" />
    <glyph glyph-name="three" unicode="3" 
d="M24 133l99.001 146c41.333 -36.667 91 -65.667 149 -87s113.667 -32 167 -32c91.333 0 164.666 22.5 219.999 67.5s83 108.167 83 189.5c0 82 -22.167 148 -66.5 198s-102.5 75 -174.5 75h-168v166h172c27.333 0 55 5 83 15s53.167 25.333 75.5 46
s40.166 46.834 53.499 78.501s20 69.167 20 112.5c0 38.667 -7.83301 71.5 -23.5 98.5s-36.667 49.167 -63 66.5s-56.166 29.5 -89.499 36.5s-67 10.5 -101 10.5c-53.333 0 -107.5 -11.333 -162.5 -34s-101.5 -50.667 -139.5 -84l-102 142c46 40 106.667 75 182 105
s158 45 248 45c53.333 0 106 -6.5 158 -19.5s99.167 -34 141.5 -63s76.5 -68 102.5 -117s39 -108.5 39 -178.5c0 -72.667 -17.667 -139.667 -53 -201s-87.333 -104.666 -156 -129.999c34.667 -14 65.167 -33.667 91.5 -59s48.5 -53.833 66.5 -85.5
s31.667 -65.334 41 -101.001s14 -70.5 14 -104.5c0 -74.667 -13.167 -140.167 -39.5 -196.5s-61.5 -103.333 -105.5 -141s-95 -65.834 -153 -84.501s-119.333 -28 -184 -28c-90 0 -172 14.833 -246 44.5s-133.667 64.167 -179 103.5z" />
    <glyph glyph-name="four" unicode="4" 
d="M56 228v159l246 546.5l246 548.5h199l-482 -1086h436v443h189v-443h127v-168h-127v-228h-189v228h-645z" />
    <glyph glyph-name="five" unicode="5" 
d="M101 140l107.999 147.999c90 -83.333 189.333 -124.666 298 -123.999c20.667 0 46.667 3.16699 78 9.5s62 18.333 92 36s56 42.334 78 74.001s33 72.5 33 122.5v191c0 72 -18.167 125.167 -54.5 159.5s-83.166 51.5 -140.499 51.5c-22.667 0 -48.167 -4.33301 -76.5 -13
s-57 -18.834 -86 -30.501s-56 -25.167 -81 -40.5s-45.5 -29.666 -61.5 -42.999l-174 70v731h817v-175h-625v-421c54 37.333 108.167 65.333 162.5 84s102.5 28 144.5 28c56 0 106.333 -9 151 -27s82.334 -43.833 113.001 -77.5s54.5 -73.667 71.5 -120
s25.5 -97.5 25.5 -153.5v-240c0 -60 -12.5 -114 -37.5 -162s-58.667 -89.167 -101 -123.5s-91.5 -60.333 -147.5 -78s-115 -26.5 -177 -26.5c-92.667 0 -172.334 14.667 -239.001 44s-123.667 64.666 -171 105.999z" />
    <glyph glyph-name="six" unicode="6" 
d="M94 376l-0.000976562 728c0 61.333 12.333 116.333 37 165s57.334 89.834 98.001 123.501s88.667 59.334 144 77.001s113 26.5 173 26.5c93.333 0 172.666 -14.667 237.999 -44s121.333 -64.666 168 -105.999l-107 -150c-44 40 -90.167 70.333 -138.5 91
s-100.5 31 -156.5 31c-27.333 0 -56.333 -4.16699 -87 -12.5s-59.167 -22.5 -85.5 -42.5s-48.5 -46.333 -66.5 -79s-27 -72.334 -27 -119.001v-244c68 44 131.333 75.167 190 93.5s109.334 27.5 152.001 27.5c54.667 0 103.834 -9.33301 147.501 -28
s80.834 -44.834 111.501 -78.501s54.334 -73.834 71.001 -120.501s25 -97.667 25 -153v-177c0 -61.333 -12.333 -116.5 -37 -165.5s-57.334 -90.667 -98.001 -125s-87.834 -60.333 -141.501 -78s-109.834 -26.5 -168.501 -26.5c-63.333 0 -121.666 8.5 -174.999 25.5
s-99.833 42 -139.5 75s-70.834 73.5 -93.501 121.5s-34 102.667 -34 164zM283.999 417c0 -46 7.83691 -85.001 23.5039 -117.001s35.667 -58.167 60 -78.5s51.166 -35 80.499 -44s58.666 -13.5 87.999 -13.5c26.667 0 55.5 4.5 86.5 13.5s58.667 24 83 45
s44.833 47.333 61.5 79s25 70.167 25 115.5v127c0 74 -18.5 128.333 -55.5 163s-82.5 52 -136.5 52c-50.667 0 -101.334 -10.667 -152.001 -32s-105.334 -51.666 -164.001 -90.999v-219z" />
    <glyph glyph-name="seven" unicode="7" 
d="M97 1088v394h882v-166l-542 -1316h-203l534 1309h-493v-221h-178z" />
    <glyph glyph-name="eight" unicode="8" 
d="M66 406c0 37.333 5.83008 74.002 17.4971 110.002s27.334 69.5 47.001 100.5s42.5 58.5 68.5 82.5s54.333 42.667 85 56c-60.667 23.333 -106.667 64.333 -138 123s-47 124.334 -47 197.001c0 68.667 12.5 129.334 37.5 182.001s58.333 96.5 100 131.5
s88.334 61.333 140.001 79s104.834 26.5 159.501 26.5c54 0 107.167 -8.5 159.5 -25.5s99.333 -43.333 141 -79s75 -79.834 100 -132.501s37.5 -114 37.5 -184c0 -68.667 -15 -132 -45 -190s-74.333 -100.667 -133 -128c37.333 -16 69.166 -36.167 95.499 -60.5
s47.833 -51.5 64.5 -81.5s28.834 -62 36.501 -96s11.5 -66.667 11.5 -98c0 -74 -13.5 -138.333 -40.5 -193s-62.667 -99.5 -107 -134.5s-94.833 -61.167 -151.5 -78.5s-114 -26 -172 -26c-62.667 0 -122.334 8.66699 -179.001 26s-106.167 43.166 -148.5 77.499
s-76.166 77.666 -101.499 129.999s-38 114.166 -38 185.499zM264.997 411.002c0 -79.333 23.832 -140.335 71.499 -183.002s114.834 -64 201.501 -64c83.333 0 149.166 21.5 197.499 64.5s72.5 105.167 72.5 186.5c0 36.667 -7.16699 70.334 -21.5 101.001
s-33.666 56.667 -57.999 78s-53 37.666 -86 48.999s-67.833 17 -104.5 17c-37.333 0 -72.5 -5.66699 -105.5 -17s-61.667 -27.666 -86 -48.999s-44 -47.666 -59 -78.999s-22.5 -66 -22.5 -104zM283.996 1075c0 -36.667 7.16992 -70.167 21.5029 -100.5s33.333 -56 57 -77
s50.5 -37 80.5 -48s61.667 -16.5 95 -16.5c31.333 0 62.333 5.5 93 16.5s57.667 27.333 81 49s42.166 47.667 56.499 78s21.5 63.833 21.5 100.5c0 38.667 -6.83301 73 -20.5 103s-32.167 55.167 -55.5 75.5s-50.333 35.5 -81 45.5s-62.334 15 -95.001 15
c-32 0 -63.333 -5 -94 -15s-57.834 -25.167 -81.501 -45.5s-42.667 -45.5 -57 -75.5s-21.5 -65 -21.5 -105z" />
    <glyph glyph-name="nine" unicode="9" 
d="M76 933l-0.000976562 166.005c0 62 12 117.667 36 167s56.5 91.166 97.5 125.499s88.5 60.333 142.5 78s110.333 26.5 169 26.5c57.333 0 112.333 -8.5 165 -25.5s99.5 -42 140.5 -75s73.667 -73.5 98 -121.5s36.5 -102.667 36.5 -164v-730
c0 -61.333 -12.167 -116.333 -36.5 -165s-57 -89.5 -98 -122.5s-89 -58.333 -144 -76s-112.833 -26.5 -173.5 -26.5c-94 0 -173.333 14.667 -238 44s-120.667 64.666 -168 105.999l108 150c44 -40 90 -70.333 138 -91s99.333 -31 154 -31c27.333 0 56.333 4.16699 87 12.5
s59.334 22.666 86.001 42.999s49 46.666 67 78.999s27 71.833 27 118.5v250c-70 -41.333 -133.333 -71.5 -190 -90.5s-106.667 -28.5 -150 -28.5c-110 0 -196.5 33.167 -259.5 99.5s-94.5 160.166 -94.5 281.499zM261.999 950.005c0 -76 18.667 -130.833 56 -164.5
s83.333 -50.5 138 -50.5c50 0 100.5 11.167 151.5 33.5s105.167 51.5 162.5 87.5v213c0 46 -7.66699 84.833 -23 116.5s-35 57.5 -59 77.5s-50.667 34.5 -80 43.5s-58.333 13.5 -87 13.5s-58.167 -4.5 -88.5 -13.5s-58 -23.5 -83 -43.5s-45.833 -46.333 -62.5 -79
s-25 -71 -25 -115v-119z" />
    <glyph glyph-name="colon" unicode=":" horiz-adv-x="537" 
d="M140 119c0 30 10.5 57.668 31.5 83.001s51.167 38 90.5 38c41.333 0 73.666 -12.667 96.999 -38s35 -53 35 -83c0 -36 -11.667 -66.5 -35 -91.5s-55.666 -37.5 -96.999 -37.5c-39.333 0 -69.5 12.167 -90.5 36.5s-31.5 55.166 -31.5 92.499zM140 770.001
c0 30 10.5 57.833 31.5 83.5s51.167 38.5 90.5 38.5c41.333 0 73.666 -12.833 96.999 -38.5s35 -53.5 35 -83.5c0 -36 -11.667 -66.667 -35 -92s-55.666 -38 -96.999 -38c-39.333 0 -69.5 12.333 -90.5 37s-31.5 55.667 -31.5 93z" />
    <glyph glyph-name="semicolon" unicode=";" horiz-adv-x="537" 
d="M114 -203c33.333 24.667 59.9971 51.6699 79.9971 81.0029s31.333 65.666 34 108.999c-30 3.33301 -54 16.666 -72 39.999s-27 51.333 -27 84c0 32 11.333 60.833 34 86.5s54.334 38.5 95.001 38.5c27.333 0 50.333 -5.16699 69 -15.5s33.834 -24 45.501 -41
s19.834 -35.833 24.501 -56.5s7 -40.334 7 -59.001c0 -40 -6.5 -78.167 -19.5 -114.5s-29.833 -69.5 -50.5 -99.5s-44.5 -57 -71.5 -81s-55.167 -42.333 -84.5 -55zM139.997 770.003c0 30 10.5 57.833 31.5 83.5s51.167 38.5 90.5 38.5
c41.333 0 73.666 -12.833 96.999 -38.5s35 -53.5 35 -83.5c0 -36 -11.667 -66.667 -35 -92s-55.666 -38 -96.999 -38c-39.333 0 -69.5 12.333 -90.5 37s-31.5 55.667 -31.5 93z" />
    <glyph glyph-name="less" unicode="&#x3c;" 
d="M99 570v129l875 436v-152l-701 -349l701 -346v-153z" />
    <glyph glyph-name="equal" unicode="=" 
d="M62 355v144h949v-144h-949zM62 768v143h949v-143h-949z" />
    <glyph glyph-name="greater" unicode="&#x3e;" 
d="M99 135v153l701 346l-701 349v152l875 -436v-129z" />
    <glyph glyph-name="question" unicode="?" horiz-adv-x="987" 
d="M62 1374c62.667 48 127.169 81.9961 193.502 101.996s136.5 30 210.5 30c57.333 0 110.833 -9.83301 160.5 -29.5s93.167 -46 130.5 -79s66.833 -72.667 88.5 -119s32.5 -96.166 32.5 -149.499c0 -62 -15.5 -119.667 -46.5 -173s-65.5 -105.666 -103.5 -156.999
s-72.333 -100.833 -103 -148.5s-46 -96.167 -46 -145.5v-97h-185v91c0 50 6.83301 94.667 20.5 134s30.5 75.333 50.5 108s41.833 63.334 65.5 92.001s45.5 57.167 65.5 85.5s36.833 58 50.5 89s20.5 65.833 20.5 104.5c0 60 -20.5 110.5 -61.5 151.5
s-93.833 61.5 -158.5 61.5c-54.667 0 -107.334 -9.16699 -158.001 -27.5s-94.334 -43.166 -131.001 -74.499zM368.002 118.996c0 30 10.333 57.668 31 83.001s51 38 91 38c41.333 0 73.666 -12.667 96.999 -38s35 -53 35 -83c0 -36 -11.667 -66.5 -35 -91.5
s-55.666 -37.5 -96.999 -37.5c-40 0 -70.333 12.167 -91 36.5s-31 55.166 -31 92.499z" />
    <glyph glyph-name="at" unicode="@" horiz-adv-x="1788" 
d="M99 757c0 114.667 22.834 220.672 68.501 318.005s107.167 181.5 184.5 252.5s168 126.667 272 167s214 60.5 330 60.5c122 0 230.833 -20.167 326.5 -60.5s176.334 -95 242.001 -164s116.167 -149.333 151.5 -241s53 -188.834 53 -291.501
c0 -76 -11.167 -142.833 -33.5 -200.5s-50.333 -105 -84 -142s-71.334 -64.833 -113.001 -83.5s-81.5 -28 -119.5 -28c-64.667 0 -117.5 10.333 -158.5 31s-72.167 47.667 -93.5 81c-46.667 -24.667 -95.667 -47.667 -147 -69s-104.333 -32 -159 -32
c-80.667 0 -145 22.833 -193 68.5s-72 108.167 -72 187.5c0 47.333 10.5 86.666 31.5 117.999s47 57.166 78 77.499s63.667 34.666 98 42.999s65.833 12.5 94.5 12.5h236v49c0 62 -18.833 104.5 -56.5 127.5s-85.5 34.5 -143.5 34.5c-26.667 0 -58 -4.33301 -94 -13
s-75.667 -30.334 -119 -65.001l-79 109c54 42.667 105.333 71.5 154 86.5s96.334 22.5 143.001 22.5c107.333 0 191.5 -25 252.5 -75s91.5 -125.667 91.5 -227v-322c0 -41.333 11.333 -70.5 34 -87.5s55 -25.5 97 -25.5c26 0 51.833 6.16699 77.5 18.5s49 32.166 70 59.499
s37.833 61.5 50.5 102.5s19 88.833 19 143.5c0 86 -14.5 167 -43.5 243s-71.167 142.333 -126.5 199s-122.166 101.167 -200.499 133.5s-166.5 48.5 -264.5 48.5c-97.333 0 -189.666 -17.333 -276.999 -52s-163.5 -81.834 -228.5 -141.501s-116.667 -129.834 -155 -210.501
s-57.5 -167.667 -57.5 -261c0 -94.667 17 -182.167 51 -262.5s80.833 -149.833 140.5 -208.5s130.167 -104.5 211.5 -137.5s170.666 -49.5 267.999 -49.5c41.333 0 83.166 4 125.499 12s92.166 23.667 149.499 47l48 -132c-68.667 -27.333 -130.167 -44.333 -184.5 -51
s-100.5 -10 -138.5 -10c-116 0 -223.333 19.833 -322 59.5s-184.334 94.334 -257.001 164.001s-129 152.834 -169 249.501s-60 202.334 -60 317.001zM708.001 611.005c0 -38.667 12.832 -68.1699 38.499 -88.5029s59.167 -30.5 100.5 -30.5c22 0 44 2.83301 66 8.5
s43.833 13.334 65.5 23.001s42.167 19.834 61.5 30.501l52 29v150h-212c-17.333 0 -36 -1 -56 -3s-38.667 -7.33301 -56 -16s-31.666 -21.167 -42.999 -37.5s-17 -38.166 -17 -65.499z" />
    <glyph glyph-name="A" unicode="A" horiz-adv-x="1283" 
d="M28 0l516 1482h200l518 -1482h-208l-116 333h-589l-115 -333h-206zM413 513h463l-119 353l-110 345h-9l-107 -345z" />
    <glyph glyph-name="B" unicode="B" horiz-adv-x="1274" 
d="M123 0l0.00195312 1482h614c67.333 0 127.166 -10.667 179.499 -32s96.666 -50.166 132.999 -86.499s63.666 -78 81.999 -125s27.5 -96.5 27.5 -148.5c0 -58.667 -13.667 -116.167 -41 -172.5s-74.666 -103.5 -141.999 -141.5c72 -37.333 124.333 -87.5 157 -150.5
s49 -126.5 49 -190.5c0 -53.333 -8.83301 -105.833 -26.5 -157.5s-44 -97.834 -79 -138.501s-79.167 -74 -132.5 -100s-114.333 -39 -183 -39h-638zM322.002 178l400 -0.000976562c88 0 154.167 22.333 198.5 67s66.5 108 66.5 190c0 40 -7.5 75.333 -22.5 106
s-35.167 56.834 -60.5 78.501s-54 38.167 -86 49.5s-65.333 17 -100 17h-396v-508zM322.002 863.999h394.001c32.667 0 64.167 4.66699 94.5 14s56.666 23.333 78.999 42s40.333 42 54 70s20.5 60 20.5 96c0 77.333 -24.833 132.5 -74.5 165.5s-113.167 49.5 -190.5 49.5
h-377v-437z" />
    <glyph glyph-name="C" unicode="C" horiz-adv-x="1132" 
d="M117 471l-0.00390625 542c0 74.667 14.667 141.667 44 201s68.333 110.166 117 152.499s105.334 74.5 170.001 96.5s132.667 33 204 33c80.667 0 156 -10.667 226 -32s133 -55 189 -101l-99 -154c-38.667 32.667 -87.167 58.334 -145.5 77.001s-115.166 28 -170.499 28
c-41.333 0 -82.333 -6.5 -123 -19.5s-76.667 -33 -108 -60s-56.666 -62 -75.999 -105s-29 -95.5 -29 -157.5v-463c0 -60 10 -111.833 30 -155.5s45.833 -79 77.5 -106s67.167 -47 106.5 -60s78.333 -19.5 117 -19.5c56 0 113 7.83301 171 23.5s110 42.167 156 79.5l95 -152
c-46 -37.333 -105.667 -69 -179 -95s-152.666 -39 -237.999 -39c-71.333 0 -139.666 11 -204.999 33s-122.333 53.833 -171 95.5s-87.334 92.667 -116.001 153s-43 128.5 -43 204.5z" />
    <glyph glyph-name="D" unicode="D" horiz-adv-x="1300" 
d="M125 0l0.000976562 1482h556c70 0 136 -11.167 198 -33.5s116 -54.333 162 -96s81.667 -92.5 107 -152.5s38 -127.333 38 -202v-516c0 -71.333 -13 -137 -39 -197s-62 -111 -108 -153s-99.833 -74.5 -161.5 -97.5s-127.834 -34.5 -198.501 -34.5h-554zM322.001 176
h312.002c40 0 81.167 5.83301 123.5 17.5s80.166 31.167 113.499 58.5s60.666 62 81.999 104s32 94.333 32 157v451c0 61.333 -10 113.333 -30 156s-46.667 77.667 -80 105s-71 46.833 -113 58.5s-84.667 17.5 -128 17.5h-312v-1125z" />
    <glyph glyph-name="E" unicode="E" horiz-adv-x="1197" 
d="M131 0v1482h989v-181h-791v-470h677v-179h-677v-474h791v-178h-989z" />
    <glyph glyph-name="F" unicode="F" horiz-adv-x="1149" 
d="M131 0v1482h989v-181h-791v-468h677v-181h-677v-652h-198z" />
    <glyph glyph-name="G" unicode="G" horiz-adv-x="1246" 
d="M117 471l0.00683594 542c0 74.667 15 141.667 45 201s70.667 110.166 122 152.499s111.166 74.5 179.499 96.5s140.166 33 215.499 33c82 0 157.833 -10.667 227.5 -32s132.167 -55 187.5 -101l-99 -154c-38 32.667 -86.167 58.334 -144.5 77.001s-115.5 28 -171.5 28
c-46 0 -90.333 -6.5 -133 -19.5s-81.334 -33 -116.001 -60s-62.334 -62 -83.001 -105s-31 -95.5 -31 -157.5v-463c0 -60 9.66699 -111.833 29 -155.5s45.166 -79 77.499 -106s69.166 -47 110.499 -60s84.666 -19.5 129.999 -19.5c32.667 0 74.667 4.5 126 13.5
s103.666 33.833 156.999 74.5v346h-236v178h431v-602c-30 -34 -64.167 -63.667 -102.5 -89s-78.666 -45.5 -120.999 -60.5s-85.5 -26 -129.5 -33s-85.667 -10.5 -125 -10.5c-72 0 -141 11 -207 33s-124 53.833 -174 95.5s-90 92.667 -120 153s-45 128.5 -45 204.5z" />
    <glyph glyph-name="H" unicode="H" horiz-adv-x="1326" 
d="M117 0v1482h197v-641h695v641h202v-1482h-202v660h-695v-660h-197z" />
    <glyph glyph-name="I" unicode="I" horiz-adv-x="541" 
d="M172 0v1482h198v-1482h-198z" />
    <glyph glyph-name="J" unicode="J" horiz-adv-x="1120" 
d="M33 97l92.001 159.002c50.667 -31.333 99.167 -53.833 145.5 -67.5s91.5 -20.5 135.5 -20.5c50.667 0 97.167 6.5 139.5 19.5s78.5 33.333 108.5 61s53.333 63.667 70 108s25 99.166 25 164.499v961h197v-1004c0 -76.667 -13.333 -145.334 -40 -206.001
s-63.167 -112.167 -109.5 -154.5s-100.333 -75 -162 -98s-126.834 -34.5 -195.501 -34.5c-67.333 0 -138.833 9.33301 -214.5 28s-139.5 46.667 -191.5 84z" />
    <glyph glyph-name="K" unicode="K" horiz-adv-x="1229" 
d="M123 0v1482h197v-770h15l629 770h238l-478 -585l528 -897h-232l-429 733l-271 -322v-411h-197z" />
    <glyph glyph-name="L" unicode="L" horiz-adv-x="1149" 
d="M142 0v1482h198v-1304h791v-178h-989z" />
    <glyph glyph-name="M" unicode="M" horiz-adv-x="1594" 
d="M125 0v1482h189l299 -604l187 -394h13l182 394l295 604h183v-1482h-198v1009h-11l-135 -287l-249 -503h-149l-236 462l-162 328h-11v-1009h-197z" />
    <glyph glyph-name="N" unicode="N" horiz-adv-x="1386" 
d="M127 0v1482h187l535 -803l198 -307h16v1110h197v-1482h-191l-519 774l-210 325h-16v-1099h-197z" />
    <glyph glyph-name="O" unicode="O" horiz-adv-x="1317" 
d="M111 484l0.000976562 511.001c0 74.667 13.333 143 40 205s64 114.833 112 158.5s105.833 77.5 173.5 101.5s141.5 36 221.5 36c79.333 0 152.666 -12 219.999 -36s125.333 -57.833 174 -101.5s86.5 -96.334 113.5 -158.001s40.5 -130.167 40.5 -205.5v-511
c0 -76 -14 -144.833 -42 -206.5s-66.667 -114 -116 -157s-107.333 -76.333 -174 -100s-138.667 -35.5 -216 -35.5c-80 0 -153.833 11.833 -221.5 35.5s-125.5 57 -173.5 100s-85.333 95.333 -112 157s-40 130.5 -40 206.5zM312.001 507.001
c0 -60 9.33203 -111.5 27.999 -154.5s43.667 -78 75 -105s68.166 -47 110.499 -60s86.5 -19.5 132.5 -19.5c48 0 92.667 6.5 134 19.5s78 33 110 60s57.333 62 76 105s28 94.5 28 154.5v465c0 60.667 -9.33301 112.5 -28 155.5s-43.667 78.333 -75 106
s-68.166 48 -110.499 61s-87.166 19.5 -134.499 19.5s-92.166 -6.5 -134.499 -19.5s-78.833 -33.333 -109.5 -61s-55.334 -63 -74.001 -106s-28 -94.833 -28 -155.5v-465z" />
    <glyph glyph-name="P" unicode="P" horiz-adv-x="1190" 
d="M117 0l0.00195312 1482h614c71.333 0 133.166 -13.333 185.499 -40s95.833 -61.167 130.5 -103.5s60.667 -89.666 78 -141.999s26 -105.166 26 -158.499c0 -52.667 -9.83301 -105.167 -29.5 -157.5s-47.334 -99.666 -83.001 -141.999s-79.167 -76.833 -130.5 -103.5
s-110.333 -40 -177 -40h-417v-595h-197zM314.002 777.997h376c77.333 0 140.666 23 189.999 69s74 109.667 74 191c0 80.667 -24.667 144.667 -74 192s-112.666 71 -189.999 71h-376v-523z" />
    <glyph glyph-name="Q" unicode="Q" horiz-adv-x="1350" 
d="M123 484l0.000976562 511.002c0 74.667 13.333 143 40 205s63.834 114.833 111.501 158.5s105.167 77.5 172.5 101.5s141.333 36 222 36c79.333 0 152.5 -12 219.5 -36s124.833 -57.833 173.5 -101.5s86.667 -96.334 114 -158.001s41 -130.167 41 -205.5v-511
c0 -68.667 -11.333 -131.667 -34 -189s-54.834 -107.166 -96.501 -149.499s-90.834 -76.833 -147.501 -103.5s-118 -43.334 -184 -50.001v-41c0 -37.333 3.5 -67.833 10.5 -91.5s18.333 -41.667 34 -54s36.5 -20.166 62.5 -23.499c13.333 -2 28.666 -3 45.999 -3
c14.667 0 31 0.666992 49 2v-157c-31.333 -4 -60.666 -6 -87.999 -6c-88 0 -155.667 20 -203 60c-61.333 51.333 -92 122.333 -92 213v101c-66.667 8 -128 25.333 -184 52s-103.833 61.167 -143.5 103.5s-70.167 91.666 -91.5 147.999s-32 119.166 -32 188.499z
M322.001 507.002c0 -60 9.33594 -111.5 28.0029 -154.5s44 -78 76 -105s69 -47 111 -60s86 -19.5 132 -19.5c47.333 0 91.666 6.5 132.999 19.5s78.166 33 110.499 60s57.833 62 76.5 105s28 94.5 28 154.5v465c0 60.667 -9.33301 112.5 -28 155.5
s-43.834 78.333 -75.501 106s-68.5 48 -110.5 61s-86.667 19.5 -134 19.5c-48 0 -93 -6.5 -135 -19.5s-78.5 -33.333 -109.5 -61s-55.833 -63 -74.5 -106s-28 -94.833 -28 -155.5v-465z" />
    <glyph glyph-name="R" unicode="R" horiz-adv-x="1229" 
d="M123 0l-0.000976562 1482h614c74 0 137.833 -13.333 191.5 -40s97.667 -61.167 132 -103.5s59.333 -89.666 75 -141.999s23.5 -105.166 23.5 -158.499c0 -41.333 -5.66699 -82.333 -17 -123s-28.5 -78.834 -51.5 -114.501s-50.667 -68.334 -83 -98.001
s-69.166 -53.167 -110.499 -70.5l277 -632h-220l-250 595h-384v-595h-197zM319.999 778h376.999c78 0 141.5 23 190.5 69s73.5 109.667 73.5 191c0 80.667 -24.667 144.667 -74 192s-112.666 71 -189.999 71h-377v-523z" />
    <glyph glyph-name="S" unicode="S" horiz-adv-x="1194" 
d="M56 170l112.003 142c66 -46 135.833 -81.833 209.5 -107.5s149.167 -38.5 226.5 -38.5c100 0 178.833 21.5 236.5 64.5s86.5 103.167 86.5 180.5c0 48.667 -11.167 88.334 -33.5 119.001s-51 55.334 -86 74.001s-73.667 33.167 -116 43.5s-83.5 19.5 -123.5 27.5
c-58.667 11.333 -115.334 26.166 -170.001 44.499s-102.834 43.166 -144.501 74.499s-75.334 70.333 -101.001 117s-38.5 104.334 -38.5 173.001c0 61.333 11.167 118.333 33.5 171s54.333 97.5 96 134.5s91.834 66.333 150.501 88s125 32.5 199 32.5
c86 0 170 -7.83301 252 -23.5s160 -46.834 234 -93.501l-92 -168c-63.333 37.333 -129 64 -197 80s-134.333 24 -199 24c-38.667 0 -75.167 -5 -109.5 -15s-64.333 -25.333 -90 -46s-46 -47 -61 -79s-22.5 -68.667 -22.5 -110s10.667 -74.833 32 -100.5
s48.5 -46.834 81.5 -63.501s68.833 -30 107.5 -40s75 -18.667 109 -26c62 -14 122.333 -30 181 -48s111 -42.833 157 -74.5s83 -72.5 111 -122.5s42 -114.333 42 -193c0 -66 -12.5 -125.333 -37.5 -178s-60.833 -97.167 -107.5 -133.5s-102.334 -64.166 -167.001 -83.499
s-136.334 -29 -215.001 -29c-102 0 -197.667 14.5 -287 43.5s-175.666 75.5 -258.999 139.5z" />
    <glyph glyph-name="T" unicode="T" horiz-adv-x="1122" 
d="M35 1299v183h1053v-183h-425v-1299h-201v1299h-427z" />
    <glyph glyph-name="U" unicode="U" horiz-adv-x="1311" 
d="M111 468l0.00195312 1014h201v-977c0 -60 9.33301 -111.5 28 -154.5s43.667 -78 75 -105s68.166 -47 110.499 -60s86.5 -19.5 132.5 -19.5c44 0 87.333 6.5 130 19.5s80 33 112 60s57.667 62 77 105s29 94.5 29 154.5v977h200v-1014c0 -76 -14.667 -144 -44 -204
s-69 -110.833 -119 -152.5s-108 -73.167 -174 -94.5s-136.333 -32 -211 -32c-74 0 -144.5 10.667 -211.5 32s-125.333 52.833 -175 94.5s-88.834 92.667 -117.501 153s-43 128.166 -43 203.499z" />
    <glyph glyph-name="V" unicode="V" horiz-adv-x="1214" 
d="M21 1482h217l218 -694l144 -482h13l150 507l211 669h218l-478 -1482h-215z" />
    <glyph glyph-name="W" unicode="W" horiz-adv-x="1853" 
d="M21 1482h215l168 -682l117 -490h10l118 492l172 680h209l176 -702l114 -470h11l112 478l172 694h215l-392 -1482h-223l-174 671l-108 456h-12l-113 -464l-172 -663h-223z" />
    <glyph glyph-name="X" unicode="X" horiz-adv-x="1182" 
d="M19 0l461 759l-431 723h230l312 -559l314 559h230l-429 -723l460 -759h-230l-345 597l-341 -597h-231z" />
    <glyph glyph-name="Y" unicode="Y" horiz-adv-x="1153" 
d="M26 1482h217l172 -353l155 -347h15l159 357l167 343h216l-450 -912v-570h-199v568z" />
    <glyph glyph-name="Z" unicode="Z" horiz-adv-x="1124" 
d="M80 0v174l731 1127h-702v181h940v-171l-739 -1133h737v-178h-967z" />
    <glyph glyph-name="bracketleft" unicode="[" horiz-adv-x="560" 
d="M158 -226v1728h363v-121h-203v-1486h203v-121h-363z" />
    <glyph glyph-name="backslash" unicode="\" horiz-adv-x="681" 
d="M-2 1559h140l539 -1649h-139z" />
    <glyph glyph-name="bracketright" unicode="]" horiz-adv-x="560" 
d="M58 -105h200v1486h-200v121h361v-1728h-361v121z" />
    <glyph glyph-name="asciicircum" unicode="^" 
d="M49 706l435 788h129l436 -788h-152l-349 634l-345 -634h-154z" />
    <glyph glyph-name="underscore" unicode="_" 
d="M0 -148h1075v-129h-1075v129z" />
    <glyph glyph-name="grave" unicode="`" horiz-adv-x="1055" 
d="M417 1555l174 54l156 -382l-115 -43z" />
    <glyph glyph-name="a" unicode="a" horiz-adv-x="1065" 
d="M82 312c0 58.667 13.335 108.166 40.002 148.499s59.5 72.833 98.5 97.5s81.167 42.5 126.5 53.5s85.666 16.5 120.999 16.5h312v82c0 74 -20.667 125.667 -62 155s-100.666 44 -177.999 44c-37.333 0 -83 -5.16699 -137 -15.5s-108.333 -37.833 -163 -82.5l-90 139
c68.667 53.333 138.167 87.833 208.5 103.5s135.5 23.5 195.5 23.5c139.333 0 242.5 -30.333 309.5 -91s100.5 -154 100.5 -280v-706h-162l-22 99l-6 4c-84.667 -47.333 -153.834 -77.666 -207.501 -90.999s-102.167 -20 -145.5 -20c-102.667 0 -184.834 28.667 -246.501 86
s-92.5 135.333 -92.5 234zM271.002 311.999c0 -52 17.5 -90.667 52.5 -116s79.833 -38 134.5 -38c27.333 0 55.666 3.83301 84.999 11.5s58 17.167 86 28.5s55 23.833 81 37.5l70 37.5v203h-281c-23.333 0 -48.166 -2 -74.499 -6s-51 -11.167 -74 -21.5
s-42 -26.833 -57 -49.5s-22.5 -51.667 -22.5 -87z" />
    <glyph glyph-name="b" unicode="b" horiz-adv-x="1077" 
d="M97 0v1539h184v-585c89.333 50.667 159.833 83.834 211.5 99.501s96.167 23.5 133.5 23.5c116 0 203.333 -32.833 262 -98.5s88 -159.5 88 -281.5v-327c0 -122 -33.333 -215.833 -100 -281.5s-153 -98.5 -259 -98.5c-36.667 0 -81.667 6.33301 -135 19
s-120.333 43.334 -201 92.001l-21 -101h-163zM281 278.998c23.333 -16 49.334 -31 78.001 -45s57.667 -26 87 -36s57.666 -17.833 84.999 -23.5s51 -8.5 71 -8.5c56 0 101.667 17.167 137 51.5s53 92.5 53 174.5v281c0 83.333 -17.333 141.5 -52 174.5
s-80.667 49.5 -138 49.5c-44 0 -94.5 -13 -151.5 -39s-113.5 -57 -169.5 -93v-486z" />
    <glyph glyph-name="c" unicode="c" horiz-adv-x="921" 
d="M101 368l-0.000976562 315.996c0 60 11.5 114.5 34.5 163.5s53.833 90.667 92.5 125s83.5 60.333 134.5 78s104.5 26.5 160.5 26.5c61.333 0 123.833 -8.16699 187.5 -24.5s120.834 -51.833 171.501 -106.5l-110 -140c-48 44.667 -92.167 72.334 -132.5 83.001
s-76.5 16 -108.5 16c-27.333 0 -55.666 -4.16699 -84.999 -12.5s-55.833 -22.666 -79.5 -42.999s-43 -46.666 -58 -78.999s-22.5 -71.166 -22.5 -116.499v-241c0 -46.667 7.16699 -85.834 21.5 -117.501s33 -57.667 56 -78s49.167 -34.666 78.5 -42.999s59 -12.5 89 -12.5
c32 0 70.5 6.33301 115.5 19s83.833 35.667 116.5 69l115 -129c-50.667 -50.667 -106.334 -85.167 -167.001 -103.5s-122 -27.5 -184 -27.5c-62.667 0 -120 9.16699 -172 27.5s-96.833 44 -134.5 77s-67 72.833 -88 119.5s-31.5 98 -31.5 154z" />
    <glyph glyph-name="d" unicode="d" horiz-adv-x="1077" 
d="M101 370l0.000976562 327.001c0 60.667 9.83301 114.5 29.5 161.5s46.167 86.667 79.5 119s73 57 119 74s95 25.5 147 25.5c38 0 83.167 -4.33301 135.5 -13s113.833 -24.334 184.5 -47.001v522h183v-1539h-162l-21 111c-84.667 -50 -152.334 -82.667 -203.001 -98
s-95.667 -23 -135 -23c-52 0 -99.667 7.5 -143 22.5s-81 37.833 -113 68.5s-56.833 70 -74.5 118s-26.5 105 -26.5 171zM286.001 380.001c0 -82 17.3311 -138.165 51.998 -168.498s80.667 -45.5 138 -45.5c20 0 43.5 3.16699 70.5 9.5s54.833 15.166 83.5 26.499
s57.334 24.666 86.001 39.999s55.334 31.333 80.001 48v547c-57.333 20 -111.166 36 -161.499 48s-97.833 18 -142.5 18h-6c-54.667 -0.666992 -101.334 -17.667 -140.001 -51c-40 -34.667 -60 -93.667 -60 -177v-295z" />
    <glyph glyph-name="e" unicode="e" horiz-adv-x="1038" 
d="M101 378l-0.00195312 282c0 63.333 10.833 120.666 32.5 171.999s51.334 95 89.001 131s82.834 63.667 135.501 83s110.334 29 173.001 29c63.333 0 121.5 -9.16699 174.5 -27.5s98.5 -44.833 136.5 -79.5s67.333 -76.667 88 -126s31 -105 31 -167v-211h-675v-70
c0 -42.667 7.16699 -79 21.5 -109s34 -54.5 59 -73.5s53.667 -32.667 86 -41s65.5 -12.5 99.5 -12.5c36 0 77.833 7 125.5 21s93.5 41.667 137.5 83l116 -127c-54.667 -56 -115.334 -94.167 -182.001 -114.5s-133.667 -30.5 -201 -30.5c-60 0 -117.167 8.16699 -171.5 24.5
s-102 40.5 -143 72.5s-73.333 72.333 -97 121s-35.5 105.334 -35.5 170.001zM287.998 615h486v41c0 44 -6.5 81.833 -19.5 113.5s-30.5 58 -52.5 79s-47.667 36 -77 45s-60.666 13.5 -93.999 13.5c-32.667 0 -63.334 -4.83301 -92.001 -14.5s-54.5 -24.667 -77.5 -45
s-41 -46 -54 -77s-19.5 -66.833 -19.5 -107.5v-48z" />
    <glyph glyph-name="f" unicode="f" horiz-adv-x="651" 
d="M56 901l-0.000976562 165.998h131v193c0 94.667 27.333 164.834 82 210.501s120.334 68.5 197.001 68.5h192v-162h-174c-46 0 -76.5 -13.667 -91.5 -41s-22.5 -59.666 -22.5 -96.999v-172h288v-166h-288v-901h-183v901h-131z" />
    <glyph glyph-name="g" unicode="g" horiz-adv-x="1072" 
d="M92 368l-0.00390625 329.001c0 122 33.333 215.833 100 281.5s152.334 98.5 257.001 98.5c38.667 0 84.334 -8.16699 137.001 -24.5s119 -49.833 199 -100.5l21 115h164v-1131c0 -61.333 -12.5 -115.833 -37.5 -163.5s-58.667 -87.667 -101 -120
s-90.833 -56.666 -145.5 -72.999s-111 -24.5 -169 -24.5c-63.333 0 -129.166 10.833 -197.499 32.5s-131.166 57.167 -188.499 106.5l114 136c17.333 -16 37.166 -30.333 59.499 -43s46 -23.334 71 -32.001s49.333 -15.5 73 -20.5s45.167 -7.5 64.5 -7.5
c34.667 0 68.334 4.16699 101.001 12.5s61.834 22.666 87.501 42.999s46 46.333 61 78s22.5 70.167 22.5 115.5v125c-71.333 -44 -135.5 -73.5 -192.5 -88.5s-104.833 -22.5 -143.5 -22.5c-104.667 0 -190.334 32.5 -257.001 97.5s-100 158.5 -100 280.5zM276.996 392.001
c0 -82 17.001 -140.669 51.001 -176.002c33.333 -33.333 77.333 -50 132 -50h6c44 0 95.333 10.333 154 31s113.667 47.334 165 80.001v488c-52.667 38.667 -108.5 70.334 -167.5 95.001s-109.5 37 -151.5 37c-58.667 0 -104.834 -16.5 -138.501 -49.5
s-50.5 -91.833 -50.5 -176.5v-279z" />
    <glyph glyph-name="h" unicode="h" horiz-adv-x="1067" 
d="M101 0v1539h185v-593c86 56 156.333 91.833 211 107.5s101 23.5 139 23.5c116.667 0 203.334 -32.833 260.001 -98.5s85 -159.5 85 -281.5v-697h-185v673c0 83.333 -18 141.5 -54 174.5s-81 49.5 -135 49.5c-44 0 -94.833 -10.667 -152.5 -32
s-113.834 -50.333 -168.501 -87v-778h-185z" />
    <glyph glyph-name="i" unicode="i" horiz-adv-x="487" 
d="M129 1389c0 31.333 11.333 58.333 34 81s49.334 34 80.001 34c31.333 0 58.5 -11.333 81.5 -34s34.5 -49.667 34.5 -81s-11.5 -58.5 -34.5 -81.5s-50.167 -34.5 -81.5 -34.5c-30.667 0 -57.334 11.5 -80.001 34.5s-34 50.167 -34 81.5zM152 0v1067h183v-1067h-183z" />
    <glyph glyph-name="j" unicode="j" horiz-adv-x="521" 
d="M-39 -271h84c57.333 0 96.666 12.667 117.999 38s32 74.333 32 147v1151h183v-1176c0 -119.333 -27.167 -203.833 -81.5 -253.5s-131.166 -74.5 -230.499 -74.5h-105v168zM178 1389c0 30 10.333 55.333 31 76s46.334 31 77.001 31c30 0 55.5 -10.333 76.5 -31
s31.5 -46 31.5 -76s-10.5 -55.667 -31.5 -77s-46.5 -32 -76.5 -32c-30.667 0 -56.334 10.667 -77.001 32s-31 47 -31 77z" />
    <glyph glyph-name="k" unicode="k" horiz-adv-x="1034" 
d="M99 0l0.000976562 1539h182v-838h158c44 0 84 8.33301 120 25s68.333 54.334 97 113.001l118 232h207l-129 -271c-20.667 -41.333 -42.334 -76.333 -65.001 -105s-55.667 -51 -99 -67c30 -10 55.167 -23.167 75.5 -39.5s37 -34.666 50 -54.999s23.667 -41.833 32 -64.5
s15.833 -45.667 22.5 -69l134 -400h-204l-112 342c-11.333 36 -23.833 65.667 -37.5 89s-28.667 41.833 -45 55.5s-35.5 23.167 -57.5 28.5s-47 8 -75 8h-190v-523h-182z" />
    <glyph glyph-name="l" unicode="l" horiz-adv-x="595" 
d="M178 260v1279h183v-1255c0 -56 12.667 -90.667 38 -104c21.333 -11.333 54 -17 98 -17c8.66699 0 18 0.333008 28 1l4 -168c-20 -2.66699 -39 -4.83398 -57 -6.50098s-35 -2.5 -51 -2.5c-50.667 0 -91.167 6.16699 -121.5 18.5s-55 30.166 -74 53.499
s-31.667 51.833 -38 85.5s-9.5 72.167 -9.5 115.5z" />
    <glyph glyph-name="m" unicode="m" horiz-adv-x="1627" 
d="M90 0l-0.00390625 1067h164l19 -123c38.667 28.667 73.334 51.5 104.001 68.5s58.667 30.667 84 41s48.333 16.833 69 19.5s41 4 61 4c64.667 0 119.834 -14 165.501 -42s80.834 -68.333 105.501 -121c42.667 34 81.334 61.833 116.001 83.5s65.667 38.667 93 51
s51.666 20.166 72.999 23.499s42 5 62 5c102 0 182.333 -28 241 -84s88 -144 88 -264v-729h-185v690c0 71.333 -13.667 123.666 -41 156.999s-72.333 50 -135 50c-37.333 0 -78.5 -11.667 -123.5 -35s-95.5 -56.333 -151.5 -99c2.66699 -12.667 4.33398 -24 5.00098 -34
s1 -22.333 1 -37v-692h-185v697c0 72.667 -15.333 124.167 -46 154.5s-69 45.5 -115 45.5c-44.667 0 -88.167 -8.33301 -130.5 -25s-93.5 -45.667 -153.5 -87v-785h-185z" />
    <glyph glyph-name="n" unicode="n" horiz-adv-x="1067" 
d="M94 0l-0.00195312 1067h164l21 -119c46.667 28.667 88.167 51.667 124.5 69s68.833 30.333 97.5 39s54.334 14.334 77.001 17.001s43.334 4 62.001 4c105.333 0 187.333 -32.833 246 -98.5s88 -159.5 88 -281.5v-697h-184v673c0 83.333 -18 141.666 -54 174.999
c-34.667 32.667 -78 49 -130 49h-6c-42.667 0 -93.167 -11 -151.5 -33s-114.833 -50.667 -169.5 -86v-778h-185z" />
    <glyph glyph-name="o" unicode="o" horiz-adv-x="1085" 
d="M103 376l-0.000976562 310c0 61.333 11.833 116.166 35.5 164.499s55.334 89.333 95.001 123s86.334 59.334 140.001 77.001s110.5 26.5 170.5 26.5c64 0 123 -8.83301 177 -26.5s100.833 -43.334 140.5 -77.001s70.167 -74.667 91.5 -123s32 -103.166 32 -164.499v-310
c0 -61.333 -11.833 -116 -35.5 -164s-55.834 -88.5 -96.501 -121.5s-87.667 -58 -141 -75s-110 -25.5 -170 -25.5c-62 0 -119.5 8.5 -172.5 25.5s-99.167 42 -138.5 75s-70.5 73.5 -93.5 121.5s-34.5 102.667 -34.5 164zM287.999 413
c0 -46.667 6.83301 -85.835 20.5 -117.502s32 -57.667 55 -78s50.167 -34.666 81.5 -42.999s65 -12.5 101 -12.5c28.667 0 58 4.16699 88 12.5s57.667 22.666 83 42.999s45.833 46.5 61.5 78.5s23.5 71 23.5 117v241c0 46 -7.83301 85 -23.5 117s-36.167 58.167 -61.5 78.5
s-53 34.666 -83 42.999s-59.333 12.5 -88 12.5c-30 0 -60 -4.16699 -90 -12.5s-57.667 -22.666 -83 -42.999s-45.833 -46.666 -61.5 -78.999s-23.5 -71.166 -23.5 -116.499v-241z" />
    <glyph glyph-name="p" unicode="p" horiz-adv-x="1081" 
d="M107 -426v1491h162l21 -113c84.667 50.667 152.5 83.834 203.5 99.501s95.833 23.5 134.5 23.5c104.667 0 190.334 -30.833 257.001 -92.5s100 -157.5 100 -287.5v-327c0 -122 -33.333 -216 -100 -282s-158 -99 -274 -99c-38.667 0 -83.834 3.83301 -135.501 11.5
s-113.5 26.167 -185.5 55.5v-480h-183zM290 227.999c65.333 -27.333 121.164 -45.166 167.497 -53.499s91.5 -12.5 135.5 -12.5c28.667 0 55.667 3.16699 81 9.5s47.333 17.666 66 33.999s33.334 38.5 44.001 66.5s16 62.667 16 104v305c0 82 -17.167 138.5 -51.5 169.5
s-80.166 46.5 -137.499 46.5c-20 0 -43.667 -3.5 -71 -10.5s-55.666 -16.333 -84.999 -28s-58.5 -25 -87.5 -40s-54.833 -30.5 -77.5 -46.5v-544z" />
    <glyph glyph-name="q" unicode="q" horiz-adv-x="1067" 
d="M97 370l-0.00195312 327c0 122 33.333 215.833 100 281.5s152.334 98.5 257.001 98.5c38 0 83 -7.16699 135 -21.5s120.333 -45.833 205 -94.5l21 104h159v-1493h-182v525c-82 -46.667 -149.333 -76.167 -202 -88.5s-98 -18.5 -136 -18.5
c-105.333 0 -191.166 32.833 -257.499 98.5s-99.5 159.5 -99.5 281.5zM280.998 394c0 -83.333 18.334 -141.999 55.001 -175.999c34.667 -32 77.667 -48 129 -48h6c44.667 0 94.667 9.66699 150 29s112.333 47.666 171 84.999v498c-56 34.667 -113.833 63.167 -173.5 85.5
s-108.834 33.5 -147.501 33.5c-57.333 0 -103.333 -17.167 -138 -51.5s-52 -92.5 -52 -174.5v-281z" />
    <glyph glyph-name="r" unicode="r" horiz-adv-x="712" 
d="M140 0v1067h163l19 -158h2c19.333 19.333 43.333 39 72 59s59.5 38.167 92.5 54.5s68 29.833 105 40.5s74.5 16 112.5 16v-195c-96 -8 -175.333 -24.667 -238 -50s-110.667 -49 -144 -71v-763h-184z" />
    <glyph glyph-name="s" unicode="s" horiz-adv-x="975" 
d="M60 127l101.998 134.996c53.333 -44 107.666 -74.333 162.999 -91s116 -25 182 -25c26 0 52.333 3.33301 79 10s50.334 16.5 71.001 29.5s37.5 29.833 50.5 50.5s19.5 45.334 19.5 74.001c0 46 -16.5 79 -49.5 99s-74.833 34.333 -125.5 43
c-54.667 8 -108.667 17.5 -162 28.5s-101.5 27.333 -144.5 49s-78.167 50.334 -105.5 86.001s-41 82.834 -41 141.501c0 49.333 10.167 93.833 30.5 133.5s48.333 73.167 84 100.5s76.667 48.5 123 63.5s96.833 22.5 151.5 22.5c80.667 0 151.834 -8.16699 213.501 -24.5
s121.167 -45.166 178.5 -86.499l-92 -139c-50.667 32 -99.667 54.5 -147 67.5s-98.333 19.5 -153 19.5c-62.667 0 -113.5 -14.833 -152.5 -44.5s-58.5 -66.5 -58.5 -110.5c0 -36.667 15.833 -64.5 47.5 -83.5s71 -33.833 118 -44.5s97.833 -20.667 152.5 -30
s105.667 -24.666 153 -45.999s86.833 -51.5 118.5 -90.5s47.5 -91.833 47.5 -158.5c0 -50.667 -10.833 -95.334 -32.5 -134.001s-51.167 -72 -88.5 -100s-81.666 -49.167 -132.999 -63.5s-108 -21.5 -170 -21.5c-74 0 -146.167 9.66699 -216.5 29s-141.5 56.333 -213.5 111z
" />
    <glyph glyph-name="t" unicode="t" horiz-adv-x="780" 
d="M64 901l-0.00195312 166h155l43 247h136v-247h297v-166h-297v-521c0 -42.667 3.83301 -78 11.5 -106s18.334 -50.167 32.001 -66.5s30.667 -27.333 51 -33s43.5 -8.5 69.5 -8.5c24 0 50.667 1.66699 80 5s60.333 7.33301 93 12l30 -157
c-40.667 -14 -83.667 -23.5 -129 -28.5s-78.666 -7.5 -99.999 -7.5c-114 0 -196 25.667 -246 77s-75 137 -75 257v577h-151z" />
    <glyph glyph-name="u" unicode="u" horiz-adv-x="1085" 
d="M103 370l0.000976562 697.003h185v-677c0 -84 18.333 -142.667 55 -176c35.333 -32.667 79 -48.667 131 -48h6c42.667 0 92.334 11.333 149.001 34s113.667 55 171 97v770h185v-1067h-164l-21 114c-44 -26.667 -83 -48.334 -117 -65.001s-64.333 -29.334 -91 -38.001
s-50.334 -14.334 -71.001 -17.001s-40.334 -4 -59.001 -4c-113.333 0 -201.5 32.833 -264.5 98.5s-94.5 159.5 -94.5 281.5z" />
    <glyph glyph-name="v" unicode="v" horiz-adv-x="981" 
d="M21 1065h203l139 -418l127 -397h13l121 393l137 422h200l-378 -1065h-181z" />
    <glyph glyph-name="w" unicode="w" horiz-adv-x="1508" 
d="M43 1067h191l99 -388l102 -400h8l127 390l101 295h187l112 -336l112 -349h10l92 377l104 411h183l-289 -1067h-176l-130 398l-111 333h-8l-108 -339l-126 -392h-177z" />
    <glyph glyph-name="x" unicode="x" horiz-adv-x="932" 
d="M-2 0l361 546l-340 521h221l222 -372l226 372h219l-343 -517l359 -550h-224l-239 400l-245 -400h-217z" />
    <glyph glyph-name="y" unicode="y" horiz-adv-x="1005" 
d="M21 1067h201l129 -470l117 -425h8l150 425l162 470h197l-544 -1500h-198l157 452l-90 75z" />
    <glyph glyph-name="z" unicode="z" horiz-adv-x="967" 
d="M88 0v146l561 755h-530v164h765v-151l-562 -750h562v-164h-796z" />
    <glyph glyph-name="braceleft" unicode="{" horiz-adv-x="560" 
d="M33 583l0.00195312 109.002c28.667 4 53.334 14.5 74.001 31.5s38.167 37.833 52.5 62.5s24.666 53.334 30.999 86.001s9.5 66 9.5 100v292c0 71.333 19 127.833 57 169.5s85 62.5 141 62.5h146v-115h-88c-20.667 0 -36.834 -5.83301 -48.501 -17.5
s-21.667 -26.334 -30 -44.001s-13.833 -37.834 -16.5 -60.501s-4 -44.334 -4 -65.001v-269c0 -46 -6.5 -85.833 -19.5 -119.5s-28 -62 -45 -85s-34.5 -40.667 -52.5 -53s-33 -20.5 -45 -24.5v-7c11.333 -4 26.166 -12.167 44.499 -24.5s36 -29.833 53 -52.5
s32 -50.5 45 -83.5s19.5 -71.833 19.5 -116.5v-279c0 -22 1.33301 -44 4 -66s8.16699 -42.167 16.5 -60.5s18.5 -33 30.5 -44s28 -16.5 48 -16.5h88v-115h-146c-56 0 -103 18 -141 54s-57 94.667 -57 176v300c0 76 -13.5 139 -40.5 189s-69.167 78.667 -126.5 86z" />
    <glyph glyph-name="bar" unicode="|" horiz-adv-x="437" 
d="M150 -349v1888h140v-1888h-140z" />
    <glyph glyph-name="braceright" unicode="}" horiz-adv-x="560" 
d="M24 -107l90.002 0.000976562c19.333 0 35.333 5.5 48 16.5s22.667 25.667 30 44s12.666 38.5 15.999 60.5s5 44 5 66v279c0 44 6.16699 82.667 18.5 116s27 61.333 44 84s34.833 40.167 53.5 52.5s33.667 20.5 45 24.5v7c-11.333 4 -26.333 12.167 -45 24.5
s-36.5 30 -53.5 53s-31.667 51.333 -44 85s-18.5 73.5 -18.5 119.5v269c0 21.333 -0.333008 43.166 -1 65.499s-4.33398 42.333 -11.001 60s-16.834 32.334 -30.501 44.001s-32.5 17.5 -56.5 17.5h-90v107h142c68.667 0 119.834 -21.167 153.501 -63.5
s50.5 -95.833 50.5 -160.5v-292c0 -34 3.33301 -67.333 10 -100s16.667 -61.334 30 -86.001s30.333 -45.334 51 -62.001s45.667 -27.334 75 -32.001v-109c-58 -7.33301 -100.167 -36.166 -126.5 -86.499s-39.5 -113.166 -39.5 -188.499v-300c0 -70 -19 -125.833 -57 -167.5
s-85 -62.5 -141 -62.5h-148v115z" />
    <glyph glyph-name="asciitilde" unicode="~" 
d="M56 589c38 66 81.8359 112.669 131.503 140.002s102.5 41 158.5 41c33.333 0 67.166 -6.83301 101.499 -20.5s68.333 -28.834 102 -45.501s66.667 -31.834 99 -45.501s63.5 -20.5 93.5 -20.5c36 0 66 9.83301 90 29.5s50.333 48.834 79 87.501l115 -84
c-40 -64.667 -81.833 -112.334 -125.5 -143.001s-98.834 -46 -165.501 -46c-28.667 0 -59.834 6.83301 -93.501 20.5s-67.667 29 -102 46s-68.333 32.333 -102 46s-65.5 20.5 -95.5 20.5c-38 0 -69 -8.83301 -93 -26.5s-50.333 -45.5 -79 -83.5z" />
    <glyph glyph-name="exclamdown" unicode="&#xa1;" horiz-adv-x="509" 
d="M129 948c0 36 11.333 66.499 34 91.499s55 37.5 97 37.5c40 0 70.5 -12.167 91.5 -36.5s31.5 -55.166 31.5 -92.499c0 -30 -10.5 -58 -31.5 -84s-51.5 -39 -91.5 -39c-41.333 0 -73.5 13 -96.5 39s-34.5 54 -34.5 84zM162 -430.001l14 1090h162l15 -1090h-191z" />
    <glyph glyph-name="cent" unicode="&#xa2;" horiz-adv-x="921" 
d="M101 368l0.00488281 316c0 56 10.167 107.167 30.5 153.5s47.166 86 80.499 119s72.666 60 117.999 81s94 33.5 146 37.5v218h96v-218c54.667 -2.66699 109.167 -13 163.5 -31s103.166 -50.667 146.499 -98l-110 -140c-37.333 36 -72.833 60.5 -106.5 73.5
s-64.834 20.833 -93.501 23.5v-739c30 2.66699 62.5 11.167 97.5 25.5s66.167 34.5 93.5 60.5l115 -129c-44 -44 -92.333 -75.833 -145 -95.5s-106.334 -30.834 -161.001 -33.501v-244h-96v244c-56 4 -107 16.333 -153 37s-85.667 47.334 -119 80.001s-58.833 71 -76.5 115
s-26.5 92 -26.5 144zM286.005 413c0 -79.333 19 -138.332 57 -176.999s82.333 -62 133 -70v733c-24.667 -4.66699 -48.167 -13 -70.5 -25s-42.5 -27.667 -60.5 -47s-32.333 -43.333 -43 -72s-16 -62.334 -16 -101.001v-241z" />
    <glyph glyph-name="sterling" unicode="&#xa3;" 
d="M121 0v137.999c51.333 68 94.5 142 129.5 222s54.167 167.333 57.5 262h-187v146h148c-16 57.333 -34.667 113.666 -56 168.999s-32 113 -32 173c0 48.667 9.16699 96.334 27.5 143.001s44.833 87.834 79.5 123.501s76.667 64.167 126 85.5s105.666 32 168.999 32
c94 0 175.167 -15 243.5 -45s129.833 -83 184.5 -159l-138 -110c-41.333 56 -87.166 94.5 -137.499 115.5s-100.5 31.5 -150.5 31.5c-20.667 0 -42.667 -4 -66 -12s-45.5 -20.5 -66.5 -37.5s-38.333 -39.5 -52 -67.5s-20.5 -61.333 -20.5 -100c0 -30 3.33301 -59.333 10 -88
s14.667 -57 24 -85l29 -84c10 -28 17.667 -56.333 23 -85h342v-146h-326c-2.66699 -78 -12.667 -155 -30 -231s-51 -151.667 -101 -227h658v-164h-888z" />
    <glyph glyph-name="yen" unicode="&#xa5;" 
d="M35 1482h217l284 -686h14l285 686h214l-318 -712h252v-132h-310l-30 -68v-108h340v-122h-340v-340h-200v340h-344v122h344v106l-32 70h-312v132h254z" />
    <glyph glyph-name="section" unicode="&#xa7;" horiz-adv-x="954" 
d="M109 753c0 42.667 9.83203 87.6641 29.499 134.997s55.167 92 106.5 134c-22 22.667 -39.333 48.167 -52 76.5s-19 61.5 -19 99.5c0 50.667 9.33301 95.5 28 134.5s44.167 72.167 76.5 99.5s70 48.166 113 62.499s88.833 21.5 137.5 21.5
c46 0 94.167 -6.16699 144.5 -18.5s92.5 -28.5 126.5 -48.5l-71 -138c-30 19.333 -61.833 34.333 -95.5 45s-71.167 16 -112.5 16c-22 0 -43.833 -3.33301 -65.5 -10s-41.334 -16 -59.001 -28s-31.834 -27 -42.501 -45s-16 -39.333 -16 -64
c0 -61.333 36.333 -112.666 109 -153.999c50.667 -28.667 100.334 -54.834 149.001 -78.501s92.334 -50 131.001 -79s69.834 -62.333 93.501 -100s35.5 -85.167 35.5 -142.5c0 -56 -10.333 -105.5 -31 -148.5s-52 -83.833 -94 -122.5c17.333 -20 33.5 -46.167 48.5 -78.5
s22.5 -69.166 22.5 -110.499c0 -56 -10 -105.167 -30 -147.5s-46.5 -77.166 -79.5 -104.499s-71.167 -47.833 -114.5 -61.5s-88.333 -20.5 -135 -20.5c-54.667 0 -107 6.83301 -157 20.5s-94 34.167 -132 61.5l63 133c28.667 -20 61 -36.833 97 -50.5s79 -20.5 129 -20.5
c26 0 50.333 3.33301 73 10s43.5 16.834 62.5 30.501s33.667 30.5 44 50.5s15.5 43.667 15.5 71c0 22.667 -3 43.667 -9 63s-17.667 38 -35 56s-40.333 35.5 -69 52.5s-64.667 35.833 -108 56.5c-41.333 17.333 -80.333 36.333 -117 57s-69.167 44.334 -97.5 71.001
s-51 57.5 -68 92.5s-25.5 75.5 -25.5 121.5zM264.999 773.997c0 -40 11 -72.333 33 -97s49.5 -45.5 82.5 -62.5s68.833 -33.667 107.5 -50s74.334 -36.166 107.001 -59.499c33.333 17.333 57.166 39.666 71.499 66.999s21.5 55.333 21.5 84c0 34.667 -11 65.667 -33 93
s-49.833 52 -83.5 74s-70 41.833 -109 59.5s-74.167 35.5 -105.5 53.5c-61.333 -46.667 -92 -100.667 -92 -162z" />
    <glyph glyph-name="dieresis" unicode="&#xa8;" horiz-adv-x="1051" 
d="M200 1374c0 29.333 10 53.833 30 73.5s44.333 29.5 73 29.5s53.334 -9.83301 74.001 -29.5s31 -44.167 31 -73.5c0 -28.667 -10.333 -53.5 -31 -74.5s-45.334 -31.5 -74.001 -31.5s-53 10.5 -73 31.5s-30 45.833 -30 74.5zM620 1374c0 29.333 10.167 53.833 30.5 73.5
s44.833 29.5 73.5 29.5c29.333 0 54.5 -9.83301 75.5 -29.5s31.5 -44.167 31.5 -73.5c0 -28.667 -10.5 -53.5 -31.5 -74.5s-46.167 -31.5 -75.5 -31.5c-28.667 0 -53.167 10.5 -73.5 31.5s-30.5 45.833 -30.5 74.5z" />
    <glyph glyph-name="copyright" unicode="&#xa9;" horiz-adv-x="1726" 
d="M121 733c0 108 18.833 208.167 56.5 300.5s90.334 172.166 158.001 239.499s147 120 238 158s189.167 57 294.5 57c106.667 0 205.834 -19 297.501 -57s171.334 -90.667 239.001 -158s120.334 -147.166 158.001 -239.499s56.5 -192.5 56.5 -300.5
s-18.833 -207.333 -56.5 -298s-90.334 -169.667 -158.001 -237s-147.334 -120 -239.001 -158s-190.834 -57 -297.501 -57c-108.667 0 -208.334 19 -299.001 57s-169.5 90.667 -236.5 158s-119 146.5 -156 237.5s-55.5 190.167 -55.5 297.5zM256 733
c0 -88.667 15.5 -170.667 46.5 -246s73.833 -140.5 128.5 -195.5s119.334 -98.333 194.001 -130s155.667 -47.5 243 -47.5c88 0 169.167 15.833 243.5 47.5s139.166 75 194.499 130s98.5 120.167 129.5 195.5s46.5 157.333 46.5 246s-15.5 171 -46.5 247
s-74.167 142 -129.5 198s-120.166 99.833 -194.499 131.5s-155.5 47.5 -243.5 47.5c-87.333 0 -168.333 -15.833 -243 -47.5s-139.334 -75.5 -194.001 -131.5s-97.5 -122 -128.5 -198s-46.5 -158.333 -46.5 -247zM507 583l0.00683594 280.995c0 52 10.167 98.833 30.5 140.5
s47.666 76.834 81.999 105.501s73.666 50.834 117.999 66.501s91.166 23.5 140.499 23.5c56 0 108.333 -7.5 157 -22.5s92.334 -38.167 131.001 -69.5l-70 -108c-27.333 22.667 -60.833 40.5 -100.5 53.5s-78.834 19.5 -117.501 19.5c-28.667 0 -57 -4.33301 -85 -13
s-52.833 -22.667 -74.5 -42s-39.334 -43.666 -53.001 -72.999s-20.5 -65.333 -20.5 -108v-226c0 -41.333 6.83301 -77.166 20.5 -107.499s31.667 -55.166 54 -74.499s47.166 -33.333 74.499 -42s54.666 -13 81.999 -13c38 0 77.167 5.33301 117.5 16s76.166 29 107.499 55
l67 -105c-32 -26 -73.333 -47.833 -124 -65.5s-106 -26.5 -166 -26.5c-50.667 0 -98.167 7.5 -142.5 22.5s-83.333 37 -117 66s-60.667 64.333 -81 106s-30.5 88.5 -30.5 140.5z" />
    <glyph glyph-name="ordfeminine" unicode="&#xaa;" horiz-adv-x="735" 
d="M47 802c0 40 9.33398 74 28.001 102s42 50.667 70 68s58.167 29.666 90.5 36.999s61.166 11 86.499 11h199v38c-1.33301 44.667 -16.833 74.5 -46.5 89.5s-66.167 22.5 -109.5 22.5c-24 0 -52.833 -3.5 -86.5 -10.5s-71.167 -27.167 -112.5 -60.5l-78 114
c52 36.667 102 61.167 150 73.5s92.667 18.5 134 18.5c98.667 0 173.834 -20.5 225.501 -61.5s77.5 -104.167 77.5 -189.5v-465h-139l-13 71c-32.667 -24 -68.834 -42.833 -108.501 -56.5s-80.167 -20.5 -121.5 -20.5c-74 0 -133.5 19.333 -178.5 58
s-67.5 92.334 -67.5 161.001zM205.001 802c0 -27.333 10.3301 -48.167 30.9971 -62.5s47.334 -21.5 80.001 -21.5c34.667 0 70.334 7.5 107.001 22.5s69.334 30.833 98.001 47.5v104h-177c-12 0 -26.5 -1 -43.5 -3s-32.667 -6.33301 -47 -13s-26 -15.5 -35 -26.5
s-13.5 -26.833 -13.5 -47.5z" />
    <glyph glyph-name="guillemotleft" unicode="&#xab;" horiz-adv-x="987" 
d="M94 499l274 400h168l-267 -400l267 -400h-168zM464 499l273 400h168l-265 -400l265 -400h-168z" />
    <glyph glyph-name="logicalnot" unicode="&#xac;" 
d="M62 564v137h949l-2 -551h-139v414h-808z" />
    <glyph glyph-name="registered" unicode="&#xae;" horiz-adv-x="1203" 
d="M150 1058c0 64.667 11.499 124.499 34.499 179.499s54.667 102.667 95 143s88 72 143 95s114.167 34.5 177.5 34.5c64 0 123.333 -11.5 178 -34.5s102.167 -54.667 142.5 -95s71.833 -88 94.5 -143s34 -114.833 34 -179.5c0 -64 -11.333 -123 -34 -177
s-54.167 -101.167 -94.5 -141.5s-87.666 -71.5 -141.999 -93.5s-113.833 -33 -178.5 -33c-63.333 0 -122.5 11 -177.5 33s-102.667 53.167 -143 93.5s-72 87.333 -95 141s-34.5 112.834 -34.5 177.501zM235.999 1058c0 -51.333 9.50195 -99.666 28.502 -144.999
s44.667 -84 77 -116s70.666 -57.5 114.999 -76.5s92.166 -28.5 143.499 -28.5s99.333 9.5 144 28.5s83 44.5 115 76.5s57.5 70.667 76.5 116s28.5 93.666 28.5 144.999c0 53.333 -9.5 102.5 -28.5 147.5s-44.5 84 -76.5 117s-70.333 58.833 -115 77.5s-92.667 28 -144 28
c-52 0 -100 -9.33301 -144 -28s-82.167 -44.5 -114.5 -77.5s-58 -72.167 -77 -117.5s-28.5 -94.333 -28.5 -147zM433.001 797.999v520h214c42.667 0 79.167 -13.167 109.5 -39.5s45.5 -62.5 45.5 -108.5c0 -33.333 -9.16699 -62.5 -27.5 -87.5s-42.833 -43.167 -73.5 -54.5
l120 -230h-101l-109 217h-90v-217h-88zM521.001 1096h111c24.667 0 44.5 6.5 59.5 19.5s22.5 31.167 22.5 54.5c0 46 -26.667 69 -80 69h-113v-143z" />
    <glyph glyph-name="macron" unicode="&#xaf;" horiz-adv-x="1055" 
d="M273 1290v161h576v-161h-576z" />
    <glyph glyph-name="degree" unicode="&#xb0;" horiz-adv-x="821" 
d="M121 1221c0 40 7.50098 77.667 22.501 113s35.667 66 62 92s57.166 46.5 92.499 61.5s73 22.5 113 22.5c39.333 0 76.666 -7.5 111.999 -22.5s66 -35.5 92 -61.5s46.5 -56.667 61.5 -92s22.5 -73 22.5 -113s-7.5 -77.167 -22.5 -111.5s-35.5 -64.333 -61.5 -90
s-56.5 -46 -91.5 -61s-72.5 -22.5 -112.5 -22.5s-77.667 7.5 -113 22.5s-66.166 35.333 -92.499 61s-47 55.667 -62 90s-22.5 71.5 -22.5 111.5zM245.001 1221c0 -46 16.167 -85 48.5 -117s71.5 -48 117.5 -48s85 16 117 48s48 71 48 117s-16 85.167 -48 117.5
s-71 48.5 -117 48.5c-46.667 0 -86 -16.167 -118 -48.5s-48 -71.5 -48 -117.5z" />
    <glyph glyph-name="plusminus" unicode="&#xb1;" 
d="M74 0v138h926v-138h-926zM74 626v137h394v374h139v-374h393v-137h-393v-374h-139v374h-394z" />
    <glyph glyph-name="acute" unicode="&#xb4;" horiz-adv-x="1055" 
d="M415 1227l155 382l174 -54l-215 -371z" />
    <glyph glyph-name="paragraph" unicode="&#xb6;" horiz-adv-x="1130" 
d="M103 1122c0 53.333 10.167 104 30.5 152s48 90.167 83 126.5s76.833 65 125.5 86s101 31.5 157 31.5h198v-789h-198c-57.333 0 -110.333 10.167 -159 30.5s-90.5 48.333 -125.5 84s-62.333 77.5 -82 125.5s-29.5 99 -29.5 153zM556 -140
c66 7.33301 117.833 19.5 155.5 36.5s65.334 38.167 83.001 63.5s28.5 54.5 32.5 87.5s6 68.5 6 106.5v1364h158v-1395c0 -64.667 -6.5 -121.834 -19.5 -171.501s-35.5 -91.667 -67.5 -126s-75.333 -61.166 -130 -80.499s-123.334 -31 -206.001 -35z" />
    <glyph glyph-name="periodcentered" unicode="&#xb7;" horiz-adv-x="485" 
d="M107 587c0 37.333 13.3311 69.5 39.998 96.5s58.667 40.5 96 40.5c36.667 0 68.334 -13.5 95.001 -40.5s40 -59.167 40 -96.5s-13.167 -69.166 -39.5 -95.499s-58.166 -39.5 -95.499 -39.5s-69.333 13.167 -96 39.5s-40 58.166 -40 95.499z" />
    <glyph glyph-name="cedilla" unicode="&#xb8;" horiz-adv-x="926" 
d="M308 -408l34.002 90.0029c30 -10 59.5 -16.833 88.5 -20.5s53.167 -5.5 72.5 -5.5c35.333 0 61.833 7.5 79.5 22.5s26.5 33.167 26.5 54.5c0 18 -7.5 36.833 -22.5 56.5s-43.5 29.5 -85.5 29.5h-12.5c-4.33301 0 -10.166 -0.666992 -17.499 -2l-67 39l70 230l96 -8
l-51 -162c41.333 -2.66699 75.666 -10.167 102.999 -22.5s49.166 -27.333 65.499 -45s28 -36.5 35 -56.5s10.5 -39 10.5 -57c0 -18.667 -3.83301 -38.334 -11.5 -59.001s-20.167 -39.834 -37.5 -57.501s-40.333 -32.334 -69 -44.001s-63.334 -17.5 -104.001 -17.5
c-24 0 -55 2.16699 -93 6.5s-74.667 13.833 -110 28.5z" />
    <glyph glyph-name="ordmasculine" unicode="&#xba;" horiz-adv-x="747" 
d="M62 854l0.000976562 178c0 40 8.16699 77 24.5 111s38.833 63 67.5 87s62.167 42.5 100.5 55.5s78.833 19.5 121.5 19.5c44 0 85.5 -6.5 124.5 -19.5s72 -31.5 99 -55.5s48.5 -53 64.5 -87s24 -71 24 -111v-178c0 -41.333 -8.66699 -79 -26 -113s-40.333 -62.667 -69 -86
s-61.834 -41.166 -99.501 -53.499s-77.5 -18.5 -119.5 -18.5c-42.667 0 -83.167 6.16699 -121.5 18.5s-71.5 30.166 -99.5 53.499s-50.167 52 -66.5 86s-24.5 71.667 -24.5 113zM215.001 876c0 -54.667 15.833 -94 47.5 -118s69.5 -36 113.5 -36c18.667 0 37.334 3 56.001 9
s35.5 15 50.5 27s27.667 27.833 38 47.5s15.5 43.167 15.5 70.5v137c0 27.333 -5.16699 50.666 -15.5 69.999s-23 35.5 -38 48.5s-31.833 22.333 -50.5 28s-37.334 8.5 -56.001 8.5s-37.167 -2.83301 -55.5 -8.5s-35.5 -15 -51.5 -28s-29 -29.167 -39 -48.5
s-15 -42.666 -15 -69.999v-137z" />
    <glyph glyph-name="guillemotright" unicode="&#xbb;" horiz-adv-x="987" 
d="M97 99l264 400l-264 400h168l273 -400l-273 -400h-168zM466 99l267 400l-267 400h168l273 -400l-273 -400h-168z" />
    <glyph glyph-name="questiondown" unicode="&#xbf;" horiz-adv-x="987" 
d="M150 -62c0 61.333 15.498 118.834 46.498 172.501s65.5 106 103.5 157s72.333 100.5 103 148.5s46 96.667 46 146v96h185v-90c0 -50.667 -6.83301 -95.667 -20.5 -135s-30.5 -75.166 -50.5 -107.499s-41.833 -62.833 -65.5 -91.5s-45.5 -57.334 -65.5 -86.001
s-36.833 -58.834 -50.5 -90.501s-20.5 -65.834 -20.5 -102.501c0 -60 20.5 -110.5 61.5 -151.5s93.833 -61.5 158.5 -61.5c54.667 0 107.334 8.83301 158.001 26.5s94.334 42.167 131.001 73.5l96 -150c-62.667 -47.333 -127.167 -81 -193.5 -101s-136.5 -30 -210.5 -30
c-57.333 0 -110.833 9.83301 -160.5 29.5s-93.167 46 -130.5 79s-66.833 72.333 -88.5 118s-32.5 95.834 -32.5 150.501zM405.998 948.001c0 36 11.667 66.499 35 91.499s55.666 37.5 96.999 37.5c39.333 0 69.5 -12.167 90.5 -36.5s31.5 -55.166 31.5 -92.499
c0 -30 -10.5 -58 -31.5 -84s-51.167 -39 -90.5 -39c-41.333 0 -73.666 13 -96.999 39s-35 54 -35 84z" />
    <glyph glyph-name="Agrave" unicode="&#xc0;" horiz-adv-x="1283" 
d="M28 0l516 1482h200l518 -1482h-208l-116 333h-589l-115 -333h-206zM262 1808l128 131l318 -262l-80 -90zM413 513h463l-119 353l-110 345h-9l-107 -345z" />
    <glyph glyph-name="Aacute" unicode="&#xc1;" horiz-adv-x="1283" 
d="M28 0l516 1482h200l518 -1482h-208l-116 333h-589l-115 -333h-206zM413 513h463l-119 353l-110 345h-9l-107 -345zM538 1677l318 262l127 -131l-366 -221z" />
    <glyph glyph-name="Acircumflex" unicode="&#xc2;" horiz-adv-x="1283" 
d="M28 0l516 1482h200l518 -1482h-208l-116 333h-589l-115 -333h-206zM273 1671l322 275h115l307 -271l-65 -83l-307 185l-310 -188zM413 513h463l-119 353l-110 345h-9l-107 -345z" />
    <glyph glyph-name="Atilde" unicode="&#xc3;" horiz-adv-x="1283" 
d="M28 0l516 1482h200l518 -1482h-208l-116 333h-589l-115 -333h-206zM256 1677c28.667 60 63.8301 107.001 105.497 141.001s83.834 51 126.501 51c26 0 52.333 -5.5 79 -16.5s52 -22.5 76 -34.5l71 -34.5c23.333 -11 44 -16.5 62 -16.5c21.333 0 42.833 7.5 64.5 22.5
s43.834 40.167 66.501 75.5l113 -63c-32 -66 -67 -114.333 -105 -145s-79.667 -46 -125 -46c-26 0 -51.667 4.66699 -77 14s-50.166 19.666 -74.499 30.999l-69.5 31c-22 9.33301 -44 14 -66 14c-24.667 0 -46.667 -6.16699 -66 -18.5s-42.333 -34.833 -69 -67.5z
M412.996 513.001h463l-119 353l-110 345h-9l-107 -345z" />
    <glyph glyph-name="Adieresis" unicode="&#xc4;" horiz-adv-x="1283" 
d="M28 0l516 1482h200l518 -1482h-208l-116 333h-589l-115 -333h-206zM331 1744c0 28.667 10.167 53 30.5 73s44.833 30 73.5 30s53.334 -10 74.001 -30s31 -44.333 31 -73s-10.333 -53.334 -31 -74.001s-45.334 -31 -74.001 -31s-53.167 10.333 -73.5 31
s-30.5 45.334 -30.5 74.001zM413 513h463l-119 353l-110 345h-9l-107 -345zM751 1744c0 28.667 10.333 53 31 73s45.334 30 74.001 30s53.334 -10 74.001 -30s31 -44.333 31 -73s-10.333 -53.334 -31 -74.001s-45.334 -31 -74.001 -31s-53.334 10.333 -74.001 31
s-31 45.334 -31 74.001z" />
    <glyph glyph-name="Aring" unicode="&#xc5;" horiz-adv-x="1283" 
d="M28 0l516 1482h200l518 -1482h-208l-116 333h-589l-115 -333h-206zM413 513h463l-119 353l-110 345h-9l-107 -345zM419 1746c0 30 5.83301 58.667 17.5 86s28 50.666 49 69.999s44.833 34.833 71.5 46.5s55.334 17.5 86.001 17.5c30 0 58.667 -5.83301 86 -17.5
s51.166 -27.167 71.499 -46.5s36 -42.666 47 -69.999s16.5 -56 16.5 -86s-5.5 -58.667 -16.5 -86s-26.667 -51 -47 -71s-44.166 -35.667 -71.499 -47s-56 -17 -86 -17c-30.667 0 -59.334 5.66699 -86.001 17s-50.5 27 -71.5 47s-37.333 43.667 -49 71s-17.5 56 -17.5 86z
M523 1746c0 -32.667 11.667 -60.5 35 -83.5s51.666 -34.5 84.999 -34.5c32.667 0 60.5 11.5 83.5 34.5s34.5 50.833 34.5 83.5c0 33.333 -11.5 61.166 -34.5 83.499s-50.833 33.5 -83.5 33.5c-33.333 0 -61.666 -11.167 -84.999 -33.5s-35 -50.166 -35 -83.499z" />
    <glyph glyph-name="AE" unicode="&#xc6;" horiz-adv-x="2100" 
d="M4 0l955 1482h1086v-181h-791v-470h677v-179h-677v-474h791v-178h-989v439h-557l-280 -439h-215zM604 602h452v699z" />
    <glyph glyph-name="Ccedilla" unicode="&#xc7;" horiz-adv-x="1132" 
d="M117 471l-0.00390625 542.003c0 74.667 14.667 141.667 44 201s68.333 110.166 117 152.499s105.334 74.5 170.001 96.5s132.667 33 204 33c80.667 0 156 -10.667 226 -32s133 -55 189 -101l-99 -154c-38.667 32.667 -87.167 58.334 -145.5 77.001
s-115.166 28 -170.499 28c-41.333 0 -82.333 -6.5 -123 -19.5s-76.667 -33 -108 -60s-56.666 -62 -75.999 -105s-29 -95.5 -29 -157.5v-463c0 -60 10 -111.833 30 -155.5s45.833 -79 77.5 -106s67.167 -47 106.5 -60s78.333 -19.5 117 -19.5c56 0 113 7.83301 171 23.5
s110 42.167 156 79.5l95 -152c-44 -36 -101.167 -66.5 -171.5 -91.5s-146.5 -39.167 -228.5 -42.5l-22 -69c41.333 -2.66699 75.833 -10.167 103.5 -22.5s49.667 -27.333 66 -45s28 -36.5 35 -56.5s10.5 -39 10.5 -57c0 -18.667 -3.83301 -38.334 -11.5 -59.001
s-20 -39.834 -37 -57.501s-40 -32.334 -69 -44.001s-63.833 -17.5 -104.5 -17.5c-24 0 -55 2.16699 -93 6.5s-74.667 13.833 -110 28.5l34 90c30.667 -10 60.167 -16.833 88.5 -20.5s52.5 -5.5 72.5 -5.5c36 0 62.5 7.5 79.5 22.5s25.5 33.167 25.5 54.5
c0 18 -7.5 36.833 -22.5 56.5s-43.167 29.5 -84.5 29.5h-12.5c-4.33301 0 -10.166 -0.666992 -17.499 -2l-67 39l39 134c-62.667 6.66699 -121.667 23 -177 49s-103.833 59.333 -145.5 100s-74.167 89 -97.5 145s-35 118.333 -35 187z" />
    <glyph glyph-name="Egrave" unicode="&#xc8;" horiz-adv-x="1197" 
d="M131 0v1482h989v-181h-791v-470h677v-179h-677v-474h791v-178h-989zM301 1808l127 131l319 -262l-80 -90z" />
    <glyph glyph-name="Eacute" unicode="&#xc9;" horiz-adv-x="1197" 
d="M131 0v1482h989v-181h-791v-470h677v-179h-677v-474h791v-178h-989zM495 1677l318 262l127 -131l-366 -221z" />
    <glyph glyph-name="Ecircumflex" unicode="&#xca;" horiz-adv-x="1197" 
d="M131 0v1482h989v-181h-791v-470h677v-179h-677v-474h791v-178h-989zM273 1671l322 275h115l307 -271l-65 -83l-307 185l-310 -188z" />
    <glyph glyph-name="Edieresis" unicode="&#xcb;" horiz-adv-x="1197" 
d="M131 0v1482h989v-181h-791v-470h677v-179h-677v-474h791v-178h-989zM308 1740c0 28.667 10 53 30 73s44.333 30 73 30s53.5 -10 74.5 -30s31.5 -44.333 31.5 -73s-10.5 -53.5 -31.5 -74.5s-45.833 -31.5 -74.5 -31.5s-53 10.5 -73 31.5s-30 45.833 -30 74.5zM727 1740
c0 28.667 10.5 53 31.5 73s45.833 30 74.5 30s53.334 -10 74.001 -30s31 -44.333 31 -73s-10.333 -53.5 -31 -74.5s-45.334 -31.5 -74.001 -31.5s-53.5 10.5 -74.5 31.5s-31.5 45.833 -31.5 74.5z" />
    <glyph glyph-name="Igrave" unicode="&#xcc;" horiz-adv-x="541" 
d="M-94 1808l127 131l318 -262l-80 -90zM172 0v1482h198v-1482h-198z" />
    <glyph glyph-name="Iacute" unicode="&#xcd;" horiz-adv-x="541" 
d="M172 0v1482h198v-1482h-198zM189 1677l318 262l127 -131l-365 -221z" />
    <glyph glyph-name="Icircumflex" unicode="&#xce;" horiz-adv-x="541" 
d="M-109 1671l322 275h114l307 -271l-64 -83l-308 185l-309 -188zM172 0v1482h198v-1482h-198z" />
    <glyph glyph-name="Idieresis" unicode="&#xcf;" horiz-adv-x="541" 
d="M-41 1744c0 28.667 10 53 30 73s44.333 30 73 30s53.5 -10 74.5 -30s31.5 -44.333 31.5 -73s-10.5 -53.334 -31.5 -74.001s-45.833 -31 -74.5 -31s-53 10.333 -73 31s-30 45.334 -30 74.001zM172 0v1482h198v-1482h-198zM378 1744c0 28.667 10.5 53 31.5 73
s45.833 30 74.5 30s53.334 -10 74.001 -30s31 -44.333 31 -73s-10.333 -53.334 -31 -74.001s-45.334 -31 -74.001 -31s-53.5 10.333 -74.5 31s-31.5 45.334 -31.5 74.001z" />
    <glyph glyph-name="Eth" unicode="&#xd0;" horiz-adv-x="1300" 
d="M13 690l0.000976562 147h112v645h556c70 0 136 -11.167 198 -33.5s116 -54.333 162 -96s81.667 -92.5 107 -152.5s38 -127.333 38 -202v-516c0 -71.333 -13 -137 -39 -197s-62 -111 -108 -153s-99.833 -74.5 -161.5 -97.5s-127.834 -34.5 -198.501 -34.5h-554v690h-112z
M322.001 176h312.002c40 0 81.167 5.83301 123.5 17.5s80.166 31.167 113.499 58.5s60.666 62 81.999 104s32 94.333 32 157v451c0 61.333 -10 113.333 -30 156s-46.667 77.667 -80 105s-71 46.833 -113 58.5s-84.667 17.5 -128 17.5h-312v-464h271v-147h-271v-514z" />
    <glyph glyph-name="Ntilde" unicode="&#xd1;" horiz-adv-x="1386" 
d="M127 0v1482h187l535 -803l198 -307h16v1110h197v-1482h-191l-519 774l-210 325h-16v-1099h-197zM306 1677c28.667 60 63.8281 107.002 105.495 141.002s83.834 51 126.501 51c25.333 0 51.333 -5.5 78 -16.5s52.167 -22.5 76.5 -34.5l71 -34.5
c23 -11 43.5 -16.5 61.5 -16.5c22 0 43.833 7.5 65.5 22.5s43.834 40.167 66.501 75.5l112 -63c-31.333 -66 -66.166 -114.333 -104.499 -145s-80.166 -46 -125.499 -46c-26 0 -51.667 4.66699 -77 14s-50 19.666 -74 30.999s-47.167 21.666 -69.5 30.999s-44.5 14 -66.5 14
c-24 0 -45.667 -6.16699 -65 -18.5s-42.666 -34.833 -69.999 -67.5z" />
    <glyph glyph-name="Ograve" unicode="&#xd2;" horiz-adv-x="1317" 
d="M111 484l0.000976562 511.001c0 74.667 13.333 143 40 205s64 114.833 112 158.5s105.833 77.5 173.5 101.5s141.5 36 221.5 36c79.333 0 152.666 -12 219.999 -36s125.333 -57.833 174 -101.5s86.5 -96.334 113.5 -158.001s40.5 -130.167 40.5 -205.5v-511
c0 -76 -14 -144.833 -42 -206.5s-66.667 -114 -116 -157s-107.333 -76.333 -174 -100s-138.667 -35.5 -216 -35.5c-80 0 -153.833 11.833 -221.5 35.5s-125.5 57 -173.5 100s-85.333 95.333 -112 157s-40 130.5 -40 206.5zM312.001 507.001
c0 -60 9.33203 -111.5 27.999 -154.5s43.667 -78 75 -105s68.166 -47 110.499 -60s86.5 -19.5 132.5 -19.5c48 0 92.667 6.5 134 19.5s78 33 110 60s57.333 62 76 105s28 94.5 28 154.5v465c0 60.667 -9.33301 112.5 -28 155.5s-43.667 78.333 -75 106
s-68.166 48 -110.499 61s-87.166 19.5 -134.499 19.5s-92.166 -6.5 -134.499 -19.5s-78.833 -33.333 -109.5 -61s-55.334 -63 -74.001 -106s-28 -94.833 -28 -155.5v-465zM327 1808l127 131l318 -262l-80 -90z" />
    <glyph glyph-name="Oacute" unicode="&#xd3;" horiz-adv-x="1317" 
d="M111 484l0.000976562 511.001c0 74.667 13.333 143 40 205s64 114.833 112 158.5s105.833 77.5 173.5 101.5s141.5 36 221.5 36c79.333 0 152.666 -12 219.999 -36s125.333 -57.833 174 -101.5s86.5 -96.334 113.5 -158.001s40.5 -130.167 40.5 -205.5v-511
c0 -76 -14 -144.833 -42 -206.5s-66.667 -114 -116 -157s-107.333 -76.333 -174 -100s-138.667 -35.5 -216 -35.5c-80 0 -153.833 11.833 -221.5 35.5s-125.5 57 -173.5 100s-85.333 95.333 -112 157s-40 130.5 -40 206.5zM312.001 507.001
c0 -60 9.33203 -111.5 27.999 -154.5s43.667 -78 75 -105s68.166 -47 110.499 -60s86.5 -19.5 132.5 -19.5c48 0 92.667 6.5 134 19.5s78 33 110 60s57.333 62 76 105s28 94.5 28 154.5v465c0 60.667 -9.33301 112.5 -28 155.5s-43.667 78.333 -75 106
s-68.166 48 -110.499 61s-87.166 19.5 -134.499 19.5s-92.166 -6.5 -134.499 -19.5s-78.833 -33.333 -109.5 -61s-55.334 -63 -74.001 -106s-28 -94.833 -28 -155.5v-465zM554 1677l319 262l127 -131l-366 -221z" />
    <glyph glyph-name="Ocircumflex" unicode="&#xd4;" horiz-adv-x="1317" 
d="M111 484l0.000976562 511.001c0 74.667 13.333 143 40 205s64 114.833 112 158.5s105.833 77.5 173.5 101.5s141.5 36 221.5 36c79.333 0 152.666 -12 219.999 -36s125.333 -57.833 174 -101.5s86.5 -96.334 113.5 -158.001s40.5 -130.167 40.5 -205.5v-511
c0 -76 -14 -144.833 -42 -206.5s-66.667 -114 -116 -157s-107.333 -76.333 -174 -100s-138.667 -35.5 -216 -35.5c-80 0 -153.833 11.833 -221.5 35.5s-125.5 57 -173.5 100s-85.333 95.333 -112 157s-40 130.5 -40 206.5zM290.001 1671l323 275h114l307 -271l-64 -83
l-307 185l-310 -188zM312.001 507.001c0 -60 9.33203 -111.5 27.999 -154.5s43.667 -78 75 -105s68.166 -47 110.499 -60s86.5 -19.5 132.5 -19.5c48 0 92.667 6.5 134 19.5s78 33 110 60s57.333 62 76 105s28 94.5 28 154.5v465c0 60.667 -9.33301 112.5 -28 155.5
s-43.667 78.333 -75 106s-68.166 48 -110.499 61s-87.166 19.5 -134.499 19.5s-92.166 -6.5 -134.499 -19.5s-78.833 -33.333 -109.5 -61s-55.334 -63 -74.001 -106s-28 -94.833 -28 -155.5v-465z" />
    <glyph glyph-name="Otilde" unicode="&#xd5;" horiz-adv-x="1317" 
d="M111 484l0.000976562 511.001c0 74.667 13.333 143 40 205s64 114.833 112 158.5s105.833 77.5 173.5 101.5s141.5 36 221.5 36c79.333 0 152.666 -12 219.999 -36s125.333 -57.833 174 -101.5s86.5 -96.334 113.5 -158.001s40.5 -130.167 40.5 -205.5v-511
c0 -76 -14 -144.833 -42 -206.5s-66.667 -114 -116 -157s-107.333 -76.333 -174 -100s-138.667 -35.5 -216 -35.5c-80 0 -153.833 11.833 -221.5 35.5s-125.5 57 -173.5 100s-85.333 95.333 -112 157s-40 130.5 -40 206.5zM273.001 1677
c28.667 60 63.834 107.002 105.501 141.002s83.834 51 126.501 51c26 0 52.333 -5.5 79 -16.5s52.167 -22.5 76.5 -34.5l70.5 -34.5c22.667 -11 43.667 -16.5 63 -16.5c21.333 0 42.666 7.5 63.999 22.5s43.666 40.167 66.999 75.5l111 -63
c-31.333 -66 -65.833 -114.333 -103.5 -145s-79.834 -46 -126.501 -46c-25.333 0 -50.666 4.66699 -75.999 14s-50 19.666 -74 30.999s-47.333 21.666 -70 30.999s-44.334 14 -65.001 14c-24.667 0 -46.667 -6.16699 -66 -18.5s-42.666 -34.833 -69.999 -67.5z
M312.001 507.003c0 -60 9.33203 -111.5 27.999 -154.5s43.667 -78 75 -105s68.166 -47 110.499 -60s86.5 -19.5 132.5 -19.5c48 0 92.667 6.5 134 19.5s78 33 110 60s57.333 62 76 105s28 94.5 28 154.5v465c0 60.667 -9.33301 112.5 -28 155.5s-43.667 78.333 -75 106
s-68.166 48 -110.499 61s-87.166 19.5 -134.499 19.5s-92.166 -6.5 -134.499 -19.5s-78.833 -33.333 -109.5 -61s-55.334 -63 -74.001 -106s-28 -94.833 -28 -155.5v-465z" />
    <glyph glyph-name="Odieresis" unicode="&#xd6;" horiz-adv-x="1317" 
d="M111 484l0.000976562 511.001c0 74.667 13.333 143 40 205s64 114.833 112 158.5s105.833 77.5 173.5 101.5s141.5 36 221.5 36c79.333 0 152.666 -12 219.999 -36s125.333 -57.833 174 -101.5s86.5 -96.334 113.5 -158.001s40.5 -130.167 40.5 -205.5v-511
c0 -76 -14 -144.833 -42 -206.5s-66.667 -114 -116 -157s-107.333 -76.333 -174 -100s-138.667 -35.5 -216 -35.5c-80 0 -153.833 11.833 -221.5 35.5s-125.5 57 -173.5 100s-85.333 95.333 -112 157s-40 130.5 -40 206.5zM312.001 507.001
c0 -60 9.33203 -111.5 27.999 -154.5s43.667 -78 75 -105s68.166 -47 110.499 -60s86.5 -19.5 132.5 -19.5c48 0 92.667 6.5 134 19.5s78 33 110 60s57.333 62 76 105s28 94.5 28 154.5v465c0 60.667 -9.33301 112.5 -28 155.5s-43.667 78.333 -75 106
s-68.166 48 -110.499 61s-87.166 19.5 -134.499 19.5s-92.166 -6.5 -134.499 -19.5s-78.833 -33.333 -109.5 -61s-55.334 -63 -74.001 -106s-28 -94.833 -28 -155.5v-465zM349 1744c0 28.667 9.83301 53 29.5 73s44.167 30 73.5 30c28.667 0 53.167 -10 73.5 -30
s30.5 -44.333 30.5 -73s-10.167 -53.334 -30.5 -74.001s-44.833 -31 -73.5 -31c-29.333 0 -53.833 10.333 -73.5 31s-29.5 45.334 -29.5 74.001zM768 1744c0 28.667 10.501 53 31.501 73s45.5 30 73.5 30c28.667 0 53.5 -10 74.5 -30s31.5 -44.333 31.5 -73
s-10.5 -53.334 -31.5 -74.001s-45.833 -31 -74.5 -31s-53.334 10.333 -74.001 31s-31 45.334 -31 74.001z" />
    <glyph glyph-name="Oslash" unicode="&#xd8;" horiz-adv-x="1317" 
d="M111 49l94 134c-62 82 -93.333 182.333 -94 301v511c0 74.667 13.333 143 40 205s64 114.833 112 158.5s105.833 77.5 173.5 101.5s141.5 36 221.5 36c73.333 0 141.5 -10.667 204.5 -32s118.167 -50.333 165.5 -87l84 119l94 -62l-96 -139
c30 -41.333 53.5 -86.833 70.5 -136.5s25.5 -104.167 25.5 -163.5v-511c0 -76 -14 -144.833 -42 -206.5s-66.667 -114 -116 -157s-107.333 -76.333 -174 -100s-138.667 -35.5 -216 -35.5c-152 0 -276.667 38.667 -374 116l-79 -114zM312 507
c0 -54.667 6.99805 -101 20.998 -139l585 849c-33.333 32.667 -72.166 57 -116.499 73s-92.166 24 -143.499 24c-47.333 0 -92.166 -6.5 -134.499 -19.5s-78.833 -33.333 -109.5 -61s-55.334 -63 -74.001 -106s-28 -94.833 -28 -155.5v-465zM395.998 265
c32.667 -34.667 71.668 -59.501 117.001 -74.501s93.666 -22.5 144.999 -22.5c48 0 92.667 6.5 134 19.5s78 33 110 60s57.333 62 76 105s28 94.5 28 154.5v465c0 50.667 -7.66699 97.334 -23 140.001z" />
    <glyph glyph-name="Ugrave" unicode="&#xd9;" horiz-adv-x="1311" 
d="M111 468l0.00195312 1014h201v-977c0 -60 9.33301 -111.5 28 -154.5s43.667 -78 75 -105s68.166 -47 110.499 -60s86.5 -19.5 132.5 -19.5c44 0 87.333 6.5 130 19.5s80 33 112 60s57.667 62 77 105s29 94.5 29 154.5v977h200v-1014c0 -76 -14.667 -144 -44 -204
s-69 -110.833 -119 -152.5s-108 -73.167 -174 -94.5s-136.333 -32 -211 -32c-74 0 -144.5 10.667 -211.5 32s-125.333 52.833 -175 94.5s-88.834 92.667 -117.501 153s-43 128.166 -43 203.499zM331.002 1808l127 131l318 -262l-79 -90z" />
    <glyph glyph-name="Uacute" unicode="&#xda;" horiz-adv-x="1311" 
d="M111 468l0.00195312 1014h201v-977c0 -60 9.33301 -111.5 28 -154.5s43.667 -78 75 -105s68.166 -47 110.499 -60s86.5 -19.5 132.5 -19.5c44 0 87.333 6.5 130 19.5s80 33 112 60s57.667 62 77 105s29 94.5 29 154.5v977h200v-1014c0 -76 -14.667 -144 -44 -204
s-69 -110.833 -119 -152.5s-108 -73.167 -174 -94.5s-136.333 -32 -211 -32c-74 0 -144.5 10.667 -211.5 32s-125.333 52.833 -175 94.5s-88.834 92.667 -117.501 153s-43 128.166 -43 203.499zM538.002 1677l318 262l127 -131l-366 -221z" />
    <glyph glyph-name="Ucircumflex" unicode="&#xdb;" horiz-adv-x="1311" 
d="M111 468l0.00195312 1014h201v-977c0 -60 9.33301 -111.5 28 -154.5s43.667 -78 75 -105s68.166 -47 110.499 -60s86.5 -19.5 132.5 -19.5c44 0 87.333 6.5 130 19.5s80 33 112 60s57.667 62 77 105s29 94.5 29 154.5v977h200v-1014c0 -76 -14.667 -144 -44 -204
s-69 -110.833 -119 -152.5s-108 -73.167 -174 -94.5s-136.333 -32 -211 -32c-74 0 -144.5 10.667 -211.5 32s-125.333 52.833 -175 94.5s-88.834 92.667 -117.501 153s-43 128.166 -43 203.499zM284.002 1671l323 275h113l308 -271l-64 -83l-308 185l-310 -188z" />
    <glyph glyph-name="Udieresis" unicode="&#xdc;" horiz-adv-x="1311" 
d="M111 468l0.00195312 1014h201v-977c0 -60 9.33301 -111.5 28 -154.5s43.667 -78 75 -105s68.166 -47 110.499 -60s86.5 -19.5 132.5 -19.5c44 0 87.333 6.5 130 19.5s80 33 112 60s57.667 62 77 105s29 94.5 29 154.5v977h200v-1014c0 -76 -14.667 -144 -44 -204
s-69 -110.833 -119 -152.5s-108 -73.167 -174 -94.5s-136.333 -32 -211 -32c-74 0 -144.5 10.667 -211.5 32s-125.333 52.833 -175 94.5s-88.834 92.667 -117.501 153s-43 128.166 -43 203.499zM355.002 1744c0 28.667 10 53 30 73s44.333 30 73 30s53.5 -10 74.5 -30
s31.5 -44.333 31.5 -73s-10.5 -53.334 -31.5 -74.001s-45.833 -31 -74.5 -31s-53 10.333 -73 31s-30 45.334 -30 74.001zM774.002 1744c0 28.667 10.5 53 31.5 73s45.833 30 74.5 30s53.334 -10 74.001 -30s31 -44.333 31 -73s-10.333 -53.334 -31 -74.001
s-45.334 -31 -74.001 -31s-53.5 10.333 -74.5 31s-31.5 45.334 -31.5 74.001z" />
    <glyph glyph-name="Yacute" unicode="&#xdd;" horiz-adv-x="1153" 
d="M26 1482h217l172 -353l155 -347h15l159 357l167 343h216l-450 -912v-570h-199v568zM415 1677l318 262l127 -131l-365 -221z" />
    <glyph glyph-name="Thorn" unicode="&#xde;" horiz-adv-x="1190" 
d="M117 0l0.00195312 1482h197v-271h417c71.333 0 133.166 -13.333 185.499 -40s95.833 -61.167 130.5 -103.5s60.667 -89.666 78 -141.999s26 -104.833 26 -157.5c0 -53.333 -9.83301 -106.166 -29.5 -158.499s-47.334 -99.666 -83.001 -141.999
s-79.167 -76.833 -130.5 -103.5s-110.333 -40 -177 -40h-417v-324h-197zM314.002 506.997h376c77.333 0 140.666 23 189.999 69s74 110 74 192c0 80 -24.667 143.667 -74 191s-112.666 71 -189.999 71h-376v-523z" />
    <glyph glyph-name="germandbls" unicode="&#xdf;" horiz-adv-x="1079" 
d="M107 0l0.00195312 1133c0 64.667 10.5 122.167 31.5 172.5s50 92.666 87 126.999s81.167 60.333 132.5 78s107 26.5 167 26.5c74 0 137 -11.333 189 -34s93.667 -52 125 -88s53.833 -75.333 67.5 -118s20.5 -83.667 20.5 -123c0 -20.667 -2.16699 -43.667 -6.5 -69
s-11.833 -51 -22.5 -77s-24.5 -50.333 -41.5 -73s-38.5 -42.667 -64.5 -60c32.667 -12.667 61.167 -31 85.5 -55s44.333 -51 60 -81s27.5 -61.833 35.5 -95.5s12 -66.167 12 -97.5v-196c0 -122 -33.333 -215.833 -100 -281.5s-152.334 -98.5 -257.001 -98.5
c-12.667 0 -26.834 0.333008 -42.501 1s-33.167 1.66699 -52.5 3l3 170c12 -1.33301 23.833 -2.33301 35.5 -3s22.5 -1 32.5 -1c42.667 0 77.167 7.16699 103.5 21.5s46.333 32.5 60 54.5s22.5 47.333 26.5 76s6 58 6 88v179c0 64 -20.833 115.167 -62.5 153.5
s-97.5 57.5 -167.5 57.5h-39v150h21c36 0 66.5 7.5 91.5 22.5s45.833 33.5 62.5 55.5s29 46 37 72s12 49.667 12 71c0 27.333 -4.66699 54 -14 80s-23.333 49.333 -42 70s-42.667 37.5 -72 50.5s-63.333 19.5 -102 19.5c-42.667 0 -79.167 -6.83301 -109.5 -20.5
s-54.5 -31.334 -72.5 -53.001s-31.333 -46.334 -40 -74.001s-13 -55.834 -13 -84.501v-1149h-183z" />
    <glyph glyph-name="agrave" unicode="&#xe0;" horiz-adv-x="1065" 
d="M82 312c0 58.667 13.335 108.166 40.002 148.499s59.5 72.833 98.5 97.5s81.167 42.5 126.5 53.5s85.666 16.5 120.999 16.5h312v82c0 74 -20.667 125.667 -62 155s-100.666 44 -177.999 44c-37.333 0 -83 -5.16699 -137 -15.5s-108.333 -37.833 -163 -82.5l-90 139
c68.667 53.333 138.167 87.833 208.5 103.5s135.5 23.5 195.5 23.5c139.333 0 242.5 -30.333 309.5 -91s100.5 -154 100.5 -280v-706h-162l-22 99l-6 4c-84.667 -47.333 -153.834 -77.666 -207.501 -90.999s-102.167 -20 -145.5 -20c-102.667 0 -184.834 28.667 -246.501 86
s-92.5 135.333 -92.5 234zM271.002 311.999c0 -52 17.5 -90.667 52.5 -116s79.833 -38 134.5 -38c27.333 0 55.666 3.83301 84.999 11.5s58 17.167 86 28.5s55 23.833 81 37.5l70 37.5v203h-281c-23.333 0 -48.166 -2 -74.499 -6s-51 -11.167 -74 -21.5
s-42 -26.833 -57 -49.5s-22.5 -51.667 -22.5 -87zM310.002 1555l174 54l154 -382l-113 -43z" />
    <glyph glyph-name="aacute" unicode="&#xe1;" horiz-adv-x="1065" 
d="M82 312c0 58.667 13.335 108.166 40.002 148.499s59.5 72.833 98.5 97.5s81.167 42.5 126.5 53.5s85.666 16.5 120.999 16.5h312v82c0 74 -20.667 125.667 -62 155s-100.666 44 -177.999 44c-37.333 0 -83 -5.16699 -137 -15.5s-108.333 -37.833 -163 -82.5l-90 139
c68.667 53.333 138.167 87.833 208.5 103.5s135.5 23.5 195.5 23.5c139.333 0 242.5 -30.333 309.5 -91s100.5 -154 100.5 -280v-706h-162l-22 99l-6 4c-84.667 -47.333 -153.834 -77.666 -207.501 -90.999s-102.167 -20 -145.5 -20c-102.667 0 -184.834 28.667 -246.501 86
s-92.5 135.333 -92.5 234zM271.002 311.999c0 -52 17.5 -90.667 52.5 -116s79.833 -38 134.5 -38c27.333 0 55.666 3.83301 84.999 11.5s58 17.167 86 28.5s55 23.833 81 37.5l70 37.5v203h-281c-23.333 0 -48.166 -2 -74.499 -6s-51 -11.167 -74 -21.5
s-42 -26.833 -57 -49.5s-22.5 -51.667 -22.5 -87zM507.002 1227l156 382l174 -54l-215 -371z" />
    <glyph glyph-name="acircumflex" unicode="&#xe2;" horiz-adv-x="1065" 
d="M82 312c0 58.667 13.335 108.166 40.002 148.499s59.5 72.833 98.5 97.5s81.167 42.5 126.5 53.5s85.666 16.5 120.999 16.5h312v82c0 74 -20.667 125.667 -62 155s-100.666 44 -177.999 44c-37.333 0 -83 -5.16699 -137 -15.5s-108.333 -37.833 -163 -82.5l-90 139
c68.667 53.333 138.167 87.833 208.5 103.5s135.5 23.5 195.5 23.5c139.333 0 242.5 -30.333 309.5 -91s100.5 -154 100.5 -280v-706h-162l-22 99l-6 4c-84.667 -47.333 -153.834 -77.666 -207.501 -90.999s-102.167 -20 -145.5 -20c-102.667 0 -184.834 28.667 -246.501 86
s-92.5 135.333 -92.5 234zM170.002 1268l322 330h115l307 -325l-87 -83l-285 228l-288 -232zM271.002 311.999c0 -52 17.5 -90.667 52.5 -116s79.833 -38 134.5 -38c27.333 0 55.666 3.83301 84.999 11.5s58 17.167 86 28.5s55 23.833 81 37.5l70 37.5v203h-281
c-23.333 0 -48.166 -2 -74.499 -6s-51 -11.167 -74 -21.5s-42 -26.833 -57 -49.5s-22.5 -51.667 -22.5 -87z" />
    <glyph glyph-name="atilde" unicode="&#xe3;" horiz-adv-x="1065" 
d="M82 312c0 58.667 13.335 108.166 40.002 148.499s59.5 72.833 98.5 97.5s81.167 42.5 126.5 53.5s85.666 16.5 120.999 16.5h312v82c0 74 -20.667 125.667 -62 155s-100.666 44 -177.999 44c-37.333 0 -83 -5.16699 -137 -15.5s-108.333 -37.833 -163 -82.5l-90 139
c68.667 53.333 138.167 87.833 208.5 103.5s135.5 23.5 195.5 23.5c139.333 0 242.5 -30.333 309.5 -91s100.5 -154 100.5 -280v-706h-162l-22 99l-6 4c-84.667 -47.333 -153.834 -77.666 -207.501 -90.999s-102.167 -20 -145.5 -20c-102.667 0 -184.834 28.667 -246.501 86
s-92.5 135.333 -92.5 234zM168.002 1311c28.667 60.667 63.8291 108.001 105.496 142.001s83.834 51 126.501 51c26 0 52.333 -5.5 79 -16.5s52 -22.667 76 -35s47.5 -23.833 70.5 -34.5s43.833 -16 62.5 -16c21.333 0 42.833 7.5 64.5 22.5s43.834 39.5 66.501 73.5
l112 -62c-31.333 -65.333 -66 -113.5 -104 -144.5s-80 -46.5 -126 -46.5c-25.333 0 -50.666 4.66699 -75.999 14s-50.333 19.666 -75 30.999l-70 31.5c-22 9.66699 -43.667 14.5 -65 14.5c-24.667 0 -46.667 -6.16699 -66 -18.5s-42.666 -34.833 -69.999 -67.5zM270.997 312
c0 -52 17.5 -90.667 52.5 -116s79.833 -38 134.5 -38c27.333 0 55.666 3.83301 84.999 11.5s58 17.167 86 28.5s55 23.833 81 37.5l70 37.5v203h-281c-23.333 0 -48.166 -2 -74.499 -6s-51 -11.167 -74 -21.5s-42 -26.833 -57 -49.5s-22.5 -51.667 -22.5 -87z" />
    <glyph glyph-name="adieresis" unicode="&#xe4;" horiz-adv-x="1065" 
d="M82 312c0 58.667 13.335 108.166 40.002 148.499s59.5 72.833 98.5 97.5s81.167 42.5 126.5 53.5s85.666 16.5 120.999 16.5h312v82c0 74 -20.667 125.667 -62 155s-100.666 44 -177.999 44c-37.333 0 -83 -5.16699 -137 -15.5s-108.333 -37.833 -163 -82.5l-90 139
c68.667 53.333 138.167 87.833 208.5 103.5s135.5 23.5 195.5 23.5c139.333 0 242.5 -30.333 309.5 -91s100.5 -154 100.5 -280v-706h-162l-22 99l-6 4c-84.667 -47.333 -153.834 -77.666 -207.501 -90.999s-102.167 -20 -145.5 -20c-102.667 0 -184.834 28.667 -246.501 86
s-92.5 135.333 -92.5 234zM258.002 1374c0 29.333 10 53.833 30 73.5s44.333 29.5 73 29.5s53.334 -9.83301 74.001 -29.5s31 -44.167 31 -73.5c0 -28.667 -10.333 -53.5 -31 -74.5s-45.334 -31.5 -74.001 -31.5s-53 10.5 -73 31.5s-30 45.833 -30 74.5zM271.002 311.999
c0 -52 17.5 -90.667 52.5 -116s79.833 -38 134.5 -38c27.333 0 55.666 3.83301 84.999 11.5s58 17.167 86 28.5s55 23.833 81 37.5l70 37.5v203h-281c-23.333 0 -48.166 -2 -74.499 -6s-51 -11.167 -74 -21.5s-42 -26.833 -57 -49.5s-22.5 -51.667 -22.5 -87zM677.002 1374
c0 29.333 10.501 53.833 31.501 73.5s45.5 29.5 73.5 29.5c28.667 0 53.5 -9.83301 74.5 -29.5s31.5 -44.167 31.5 -73.5c0 -28.667 -10.5 -53.5 -31.5 -74.5s-45.833 -31.5 -74.5 -31.5s-53.334 10.5 -74.001 31.5s-31 45.833 -31 74.5z" />
    <glyph glyph-name="aring" unicode="&#xe5;" horiz-adv-x="1065" 
d="M82 312c0 58.667 13.335 108.166 40.002 148.499s59.5 72.833 98.5 97.5s81.167 42.5 126.5 53.5s85.666 16.5 120.999 16.5h312v82c0 74 -20.667 125.667 -62 155s-100.666 44 -177.999 44c-37.333 0 -83 -5.16699 -137 -15.5s-108.333 -37.833 -163 -82.5l-90 139
c68.667 53.333 138.167 87.833 208.5 103.5s135.5 23.5 195.5 23.5c139.333 0 242.5 -30.333 309.5 -91s100.5 -154 100.5 -280v-706h-162l-22 99l-6 4c-84.667 -47.333 -153.834 -77.666 -207.501 -90.999s-102.167 -20 -145.5 -20c-102.667 0 -184.834 28.667 -246.501 86
s-92.5 135.333 -92.5 234zM271.002 311.999c0 -52 17.5 -90.667 52.5 -116s79.833 -38 134.5 -38c27.333 0 55.666 3.83301 84.999 11.5s58 17.167 86 28.5s55 23.833 81 37.5l70 37.5v203h-281c-23.333 0 -48.166 -2 -74.499 -6s-51 -11.167 -74 -21.5
s-42 -26.833 -57 -49.5s-22.5 -51.667 -22.5 -87zM349.002 1385c0 30 5.66699 58.667 17 86s27.333 50.666 48 69.999s44.667 34.666 72 45.999s56 17 86 17s58.667 -5.66699 86 -17s51 -26.666 71 -45.999s35.833 -42.666 47.5 -69.999s17.5 -56 17.5 -86
s-5.83301 -58.667 -17.5 -86s-27.5 -51 -47.5 -71s-43.667 -35.833 -71 -47.5s-56 -17.5 -86 -17.5s-58.667 5.83301 -86 17.5s-51.333 27.5 -72 47.5s-36.667 43.667 -48 71s-17 56 -17 86zM452.002 1385c0 -32.667 11.833 -60.667 35.5 -84s51.834 -35 84.501 -35
c33.333 0 61.333 11.667 84 35s34 51.333 34 84s-11.333 60.334 -34 83.001s-50.667 34 -84 34c-32.667 0 -60.834 -11.333 -84.501 -34s-35.5 -50.334 -35.5 -83.001z" />
    <glyph glyph-name="ae" unicode="&#xe6;" horiz-adv-x="1717" 
d="M84 312c0 58.667 13.3359 108.167 40.0029 148.5s59.5 72.833 98.5 97.5s81.167 42.5 126.5 53.5s86 16.5 122 16.5h311v82c-1.33301 40 -8.33301 72.833 -21 98.5s-30.167 46 -52.5 61s-48.5 25.333 -78.5 31s-63 8.5 -99 8.5
c-36.667 0 -80.334 -5.16699 -131.001 -15.5s-103 -37.833 -157 -82.5l-91 139c68.667 53.333 135.334 87.833 200.001 103.5s127.334 23.5 188.001 23.5c82 0 151.667 -11.333 209 -34s103 -55 137 -97c38.667 41.333 85.667 73.166 141 95.499s117.333 33.5 186 33.5
c62.667 0 120.667 -9.16699 174 -27.5s98.833 -44.833 136.5 -79.5s67 -76.667 88 -126s31.5 -105 31.5 -167v-199h-675v-82c0 -42.667 7.16699 -79 21.5 -109s34 -54.5 59 -73.5s53.5 -32.667 85.5 -41s65.667 -12.5 101 -12.5s76.666 7 123.999 21s93 41.667 137 83
l117 -127c-54.667 -56 -115.334 -94.167 -182.001 -114.5s-133.667 -30.5 -201 -30.5c-79.333 0 -151.833 13.167 -217.5 39.5s-119.167 66.5 -160.5 120.5l-76 -47c-84.667 -49.333 -153.834 -80.166 -207.501 -92.499s-102.167 -18.5 -145.5 -18.5
c-102.667 0 -184.834 28.667 -246.501 86s-92.5 135.333 -92.5 234zM273.003 312c0 -52 17.5 -90.667 52.5 -116s79.833 -38 134.5 -38c27.333 0 55.666 3.83301 84.999 11.5s58 17.167 86 28.5s55 23.833 81 37.5l70 37.5v203h-281c-23.333 0 -48.166 -2 -74.499 -6
s-51 -11.167 -74 -21.5s-42 -26.833 -57 -49.5s-22.5 -51.667 -22.5 -87zM970.003 626h485.001v30c0 44 -6.16699 81.833 -18.5 113.5s-29.833 58 -52.5 79s-48.667 36 -78 45s-60.333 13.5 -93 13.5c-33.333 0 -64.333 -4.83301 -93 -14.5s-54.334 -24.667 -77.001 -45
s-40.5 -46 -53.5 -77s-19.5 -66.833 -19.5 -107.5v-37z" />
    <glyph glyph-name="ccedilla" unicode="&#xe7;" horiz-adv-x="921" 
d="M101 368v316c0 60 11.5 114.5 34.5 163.5s53.833 90.667 92.5 125s83.5 60.333 134.5 78s104.5 26.5 160.5 26.5c61.333 0 123.833 -8.16699 187.5 -24.5s120.834 -51.833 171.501 -106.5l-110 -140c-48 44.667 -92.167 72.334 -132.5 83.001s-76.5 16 -108.5 16
c-27.333 0 -55.666 -4.16699 -84.999 -12.5s-55.833 -22.666 -79.5 -42.999s-43 -46.666 -58 -78.999s-22.5 -71.166 -22.5 -116.499v-241c0 -46.667 7.16699 -85.834 21.5 -117.501s33 -57.667 56 -78s49.167 -34.666 78.5 -42.999s59 -12.5 89 -12.5
c32 0 70.5 6.33301 115.5 19s83.833 35.667 116.5 69l115 -129c-48 -48 -101 -81.5 -159 -100.5s-117 -29.167 -177 -30.5l-23 -74c41.333 -2.66699 75.666 -10.167 102.999 -22.5s49.166 -27.333 65.499 -45s28 -36.5 35 -56.5s10.5 -39 10.5 -57
c0 -18.667 -3.83301 -38.334 -11.5 -59.001s-20.167 -39.834 -37.5 -57.501s-40.333 -32.334 -69 -44.001s-63.334 -17.5 -104.001 -17.5c-24 0 -55 2.16699 -93 6.5s-74.667 13.833 -110 28.5l34 90c30 -10 59.5 -16.833 88.5 -20.5s53.167 -5.5 72.5 -5.5
c35.333 0 61.833 7.5 79.5 22.5s26.5 33.167 26.5 54.5c0 18 -7.5 36.833 -22.5 56.5s-43.5 29.5 -85.5 29.5h-12.5c-4.33301 0 -10.166 -0.666992 -17.499 -2l-67 39l41 140c-51.333 6.66699 -98.333 20.5 -141 41.5s-79 47.667 -109 80s-53.167 69.666 -69.5 111.999
s-24.5 88.5 -24.5 138.5z" />
    <glyph glyph-name="egrave" unicode="&#xe8;" horiz-adv-x="1038" 
d="M101 378l-0.00195312 282c0 63.333 10.833 120.666 32.5 171.999s51.334 95 89.001 131s82.834 63.667 135.501 83s110.334 29 173.001 29c63.333 0 121.5 -9.16699 174.5 -27.5s98.5 -44.833 136.5 -79.5s67.333 -76.667 88 -126s31 -105 31 -167v-211h-675v-70
c0 -42.667 7.16699 -79 21.5 -109s34 -54.5 59 -73.5s53.667 -32.667 86 -41s65.5 -12.5 99.5 -12.5c36 0 77.833 7 125.5 21s93.5 41.667 137.5 83l116 -127c-54.667 -56 -115.334 -94.167 -182.001 -114.5s-133.667 -30.5 -201 -30.5c-60 0 -117.167 8.16699 -171.5 24.5
s-102 40.5 -143 72.5s-73.333 72.333 -97 121s-35.5 105.334 -35.5 170.001zM287.998 615h486v41c0 44 -6.5 81.833 -19.5 113.5s-30.5 58 -52.5 79s-47.667 36 -77 45s-60.666 13.5 -93.999 13.5c-32.667 0 -63.334 -4.83301 -92.001 -14.5s-54.5 -24.667 -77.5 -45
s-41 -46 -54 -77s-19.5 -66.833 -19.5 -107.5v-48zM302.998 1555l175 54l154 -382l-113 -43z" />
    <glyph glyph-name="eacute" unicode="&#xe9;" horiz-adv-x="1038" 
d="M101 378l-0.00195312 282c0 63.333 10.833 120.666 32.5 171.999s51.334 95 89.001 131s82.834 63.667 135.501 83s110.334 29 173.001 29c63.333 0 121.5 -9.16699 174.5 -27.5s98.5 -44.833 136.5 -79.5s67.333 -76.667 88 -126s31 -105 31 -167v-211h-675v-70
c0 -42.667 7.16699 -79 21.5 -109s34 -54.5 59 -73.5s53.667 -32.667 86 -41s65.5 -12.5 99.5 -12.5c36 0 77.833 7 125.5 21s93.5 41.667 137.5 83l116 -127c-54.667 -56 -115.334 -94.167 -182.001 -114.5s-133.667 -30.5 -201 -30.5c-60 0 -117.167 8.16699 -171.5 24.5
s-102 40.5 -143 72.5s-73.333 72.333 -97 121s-35.5 105.334 -35.5 170.001zM287.998 615h486v41c0 44 -6.5 81.833 -19.5 113.5s-30.5 58 -52.5 79s-47.667 36 -77 45s-60.666 13.5 -93.999 13.5c-32.667 0 -63.334 -4.83301 -92.001 -14.5s-54.5 -24.667 -77.5 -45
s-41 -46 -54 -77s-19.5 -66.833 -19.5 -107.5v-48zM434.998 1227l154 382l174 -54l-215 -371z" />
    <glyph glyph-name="ecircumflex" unicode="&#xea;" horiz-adv-x="1038" 
d="M101 378l-0.00195312 282c0 63.333 10.833 120.666 32.5 171.999s51.334 95 89.001 131s82.834 63.667 135.501 83s110.334 29 173.001 29c63.333 0 121.5 -9.16699 174.5 -27.5s98.5 -44.833 136.5 -79.5s67.333 -76.667 88 -126s31 -105 31 -167v-211h-675v-70
c0 -42.667 7.16699 -79 21.5 -109s34 -54.5 59 -73.5s53.667 -32.667 86 -41s65.5 -12.5 99.5 -12.5c36 0 77.833 7 125.5 21s93.5 41.667 137.5 83l116 -127c-54.667 -56 -115.334 -94.167 -182.001 -114.5s-133.667 -30.5 -201 -30.5c-60 0 -117.167 8.16699 -171.5 24.5
s-102 40.5 -143 72.5s-73.333 72.333 -97 121s-35.5 105.334 -35.5 170.001zM167.998 1268l322 330h114l307 -325l-86 -83l-285 228l-288 -232zM287.998 615h486v41c0 44 -6.5 81.833 -19.5 113.5s-30.5 58 -52.5 79s-47.667 36 -77 45s-60.666 13.5 -93.999 13.5
c-32.667 0 -63.334 -4.83301 -92.001 -14.5s-54.5 -24.667 -77.5 -45s-41 -46 -54 -77s-19.5 -66.833 -19.5 -107.5v-48z" />
    <glyph glyph-name="edieresis" unicode="&#xeb;" horiz-adv-x="1038" 
d="M101 378l-0.00195312 282c0 63.333 10.833 120.666 32.5 171.999s51.334 95 89.001 131s82.834 63.667 135.501 83s110.334 29 173.001 29c63.333 0 121.5 -9.16699 174.5 -27.5s98.5 -44.833 136.5 -79.5s67.333 -76.667 88 -126s31 -105 31 -167v-211h-675v-70
c0 -42.667 7.16699 -79 21.5 -109s34 -54.5 59 -73.5s53.667 -32.667 86 -41s65.5 -12.5 99.5 -12.5c36 0 77.833 7 125.5 21s93.5 41.667 137.5 83l116 -127c-54.667 -56 -115.334 -94.167 -182.001 -114.5s-133.667 -30.5 -201 -30.5c-60 0 -117.167 8.16699 -171.5 24.5
s-102 40.5 -143 72.5s-73.333 72.333 -97 121s-35.5 105.334 -35.5 170.001zM223.998 1374c0 29.333 10 53.833 30 73.5s44.333 29.5 73 29.5s53.5 -9.83301 74.5 -29.5s31.5 -44.167 31.5 -73.5c0 -28.667 -10.5 -53.5 -31.5 -74.5s-45.833 -31.5 -74.5 -31.5
s-53 10.5 -73 31.5s-30 45.833 -30 74.5zM287.998 615h486v41c0 44 -6.5 81.833 -19.5 113.5s-30.5 58 -52.5 79s-47.667 36 -77 45s-60.666 13.5 -93.999 13.5c-32.667 0 -63.334 -4.83301 -92.001 -14.5s-54.5 -24.667 -77.5 -45s-41 -46 -54 -77
s-19.5 -66.833 -19.5 -107.5v-48zM642.998 1374c0 29.333 10.5 53.833 31.5 73.5s45.833 29.5 74.5 29.5s53.334 -9.83301 74.001 -29.5s31 -44.167 31 -73.5c0 -28.667 -10.333 -53.5 -31 -74.5s-45.334 -31.5 -74.001 -31.5s-53.5 10.5 -74.5 31.5
s-31.5 45.833 -31.5 74.5z" />
    <glyph glyph-name="igrave" unicode="&#xec;" horiz-adv-x="513" 
d="M-13 1555l175 54l154 -382l-113 -43zM166 0v1067h183v-1067h-183z" />
    <glyph glyph-name="iacute" unicode="&#xed;" horiz-adv-x="513" 
d="M146 1227l155 382l175 -54l-216 -371zM166 0v1067h183v-1067h-183z" />
    <glyph glyph-name="icircumflex" unicode="&#xee;" horiz-adv-x="700" 
d="M-21 1268l322 330h114l307 -325l-86 -83l-285 228l-289 -232zM262 0v1067h183v-1067h-183z" />
    <glyph glyph-name="idieresis" unicode="&#xef;" horiz-adv-x="586" 
d="M-21 1374c0 29.333 10 53.833 30 73.5s44.333 29.5 73 29.5s53.334 -9.83301 74.001 -29.5s31 -44.167 31 -73.5c0 -28.667 -10.333 -53.5 -31 -74.5s-45.334 -31.5 -74.001 -31.5s-53 10.5 -73 31.5s-30 45.833 -30 74.5zM203 0v1067h182v-1067h-182zM398 1374
c0 29.333 10.333 53.833 31 73.5s45.334 29.5 74.001 29.5s53.5 -9.83301 74.5 -29.5s31.5 -44.167 31.5 -73.5c0 -28.667 -10.5 -53.5 -31.5 -74.5s-45.833 -31.5 -74.5 -31.5s-53.334 10.5 -74.001 31.5s-31 45.833 -31 74.5z" />
    <glyph glyph-name="eth" unicode="&#xf0;" horiz-adv-x="1085" 
d="M103 376v231c0 61.333 10.833 117.5 32.5 168.5s51.834 95.167 90.501 132.5s84.834 66.333 138.501 87s112.834 31 177.501 31c47.333 0 94.666 -7.16699 141.999 -21.5s86.666 -35.833 117.999 -64.5l4 2c-2.66699 53.333 -7.33398 104 -14.001 152
s-19.667 86.333 -39 115l-162 -115l-64 92l150 107c-21.333 24 -55 46.667 -101 68s-109.667 38.666 -191 51.999l30 157c84.667 -7.33301 164.167 -25.666 238.5 -54.999s130.833 -69.333 169.5 -120l183 127l65 -92l-174 -123c22.667 -40 40.167 -80.333 52.5 -121
s21 -83.667 26 -129s7.83301 -94.333 8.5 -147s1 -111.667 1 -177v-322c0 -62 -9.66699 -118.667 -29 -170s-48 -95.833 -86 -133.5s-85 -66.667 -141 -87s-120.333 -30.5 -193 -30.5c-62 0 -119.167 8.5 -171.5 25.5s-97.833 42 -136.5 75s-69.167 73.5 -91.5 121.5
s-33.5 102.667 -33.5 164zM288 413c0 -46.667 6.83203 -85.833 20.499 -117.5s32 -57.667 55 -78s50.167 -34.666 81.5 -42.999s65 -12.5 101 -12.5c31.333 0 62.5 4.16699 93.5 12.5s58.333 22.666 82 42.999s43 46.5 58 78.5s22.5 71 22.5 117v189
c0 46 -7.5 85.167 -22.5 117.5s-34.333 58.333 -58 78s-50.667 34 -81 43s-59.833 13.5 -88.5 13.5c-35.333 0 -69.166 -5.5 -101.499 -16.5s-60.333 -27.167 -84 -48.5s-42.667 -48.833 -57 -82.5s-21.5 -73.5 -21.5 -119.5v-174z" />
    <glyph glyph-name="ntilde" unicode="&#xf1;" horiz-adv-x="1067" 
d="M94 0l-0.00195312 1067h164l21 -119c46.667 28.667 88.167 51.667 124.5 69s68.833 30.333 97.5 39s54.334 14.334 77.001 17.001s43.334 4 62.001 4c105.333 0 187.333 -32.833 246 -98.5s88 -159.5 88 -281.5v-697h-184v673c0 83.333 -18.167 141.833 -54.5 175.5
s-81.5 49.834 -135.5 48.501c-42.667 0 -93.167 -11 -151.5 -33s-114.833 -50.667 -169.5 -86v-778h-185zM137.998 1311c28.667 60.667 63.8311 108.001 105.498 142.001s83.834 51 126.501 51c25.333 0 51.333 -5.5 78 -16.5s52.334 -22.667 77.001 -35l71 -34.5
c22.667 -10.667 43.334 -16 62.001 -16c22 0 43.667 7.5 65 22.5s43.666 39.5 66.999 73.5l111 -62c-31.333 -65.333 -66 -113.5 -104 -144.5s-80 -46.5 -126 -46.5c-26 0 -51.667 4.66699 -77 14s-50 19.666 -74 30.999l-69.5 31.5
c-22.333 9.66699 -44.166 14.5 -65.499 14.5c-24 0 -45.833 -6.16699 -65.5 -18.5s-42.834 -34.833 -69.501 -67.5z" />
    <glyph glyph-name="ograve" unicode="&#xf2;" horiz-adv-x="1085" 
d="M103 376l-0.000976562 310c0 61.333 11.833 116.166 35.5 164.499s55.334 89.333 95.001 123s86.334 59.334 140.001 77.001s110.5 26.5 170.5 26.5c64 0 123 -8.83301 177 -26.5s100.833 -43.334 140.5 -77.001s70.167 -74.667 91.5 -123s32 -103.166 32 -164.499v-310
c0 -61.333 -11.833 -116 -35.5 -164s-55.834 -88.5 -96.501 -121.5s-87.667 -58 -141 -75s-110 -25.5 -170 -25.5c-62 0 -119.5 8.5 -172.5 25.5s-99.167 42 -138.5 75s-70.5 73.5 -93.5 121.5s-34.5 102.667 -34.5 164zM287.999 413
c0 -46.667 6.83301 -85.835 20.5 -117.502s32 -57.667 55 -78s50.167 -34.666 81.5 -42.999s65 -12.5 101 -12.5c28.667 0 58 4.16699 88 12.5s57.667 22.666 83 42.999s45.833 46.5 61.5 78.5s23.5 71 23.5 117v241c0 46 -7.83301 85 -23.5 117s-36.167 58.167 -61.5 78.5
s-53 34.666 -83 42.999s-59.333 12.5 -88 12.5c-30 0 -60 -4.16699 -90 -12.5s-57.667 -22.666 -83 -42.999s-45.833 -46.666 -61.5 -78.999s-23.5 -71.166 -23.5 -116.499v-241zM326.999 1555l174 54l155 -382l-114 -43z" />
    <glyph glyph-name="oacute" unicode="&#xf3;" horiz-adv-x="1085" 
d="M103 376l-0.000976562 310c0 61.333 11.833 116.166 35.5 164.499s55.334 89.333 95.001 123s86.334 59.334 140.001 77.001s110.5 26.5 170.5 26.5c64 0 123 -8.83301 177 -26.5s100.833 -43.334 140.5 -77.001s70.167 -74.667 91.5 -123s32 -103.166 32 -164.499v-310
c0 -61.333 -11.833 -116 -35.5 -164s-55.834 -88.5 -96.501 -121.5s-87.667 -58 -141 -75s-110 -25.5 -170 -25.5c-62 0 -119.5 8.5 -172.5 25.5s-99.167 42 -138.5 75s-70.5 73.5 -93.5 121.5s-34.5 102.667 -34.5 164zM287.999 413
c0 -46.667 6.83301 -85.835 20.5 -117.502s32 -57.667 55 -78s50.167 -34.666 81.5 -42.999s65 -12.5 101 -12.5c28.667 0 58 4.16699 88 12.5s57.667 22.666 83 42.999s45.833 46.5 61.5 78.5s23.5 71 23.5 117v241c0 46 -7.83301 85 -23.5 117s-36.167 58.167 -61.5 78.5
s-53 34.666 -83 42.999s-59.333 12.5 -88 12.5c-30 0 -60 -4.16699 -90 -12.5s-57.667 -22.666 -83 -42.999s-45.833 -46.666 -61.5 -78.999s-23.5 -71.166 -23.5 -116.499v-241zM463.999 1227l156 382l174 -54l-215 -371z" />
    <glyph glyph-name="ocircumflex" unicode="&#xf4;" horiz-adv-x="1085" 
d="M103 376l-0.000976562 310c0 61.333 11.833 116.166 35.5 164.499s55.334 89.333 95.001 123s86.334 59.334 140.001 77.001s110.5 26.5 170.5 26.5c64 0 123 -8.83301 177 -26.5s100.833 -43.334 140.5 -77.001s70.167 -74.667 91.5 -123s32 -103.166 32 -164.499v-310
c0 -61.333 -11.833 -116 -35.5 -164s-55.834 -88.5 -96.501 -121.5s-87.667 -58 -141 -75s-110 -25.5 -170 -25.5c-62 0 -119.5 8.5 -172.5 25.5s-99.167 42 -138.5 75s-70.5 73.5 -93.5 121.5s-34.5 102.667 -34.5 164zM175.999 1268l323 330h114l308 -325l-86 -83
l-287 228l-288 -232zM287.999 413c0 -46.667 6.83301 -85.835 20.5 -117.502s32 -57.667 55 -78s50.167 -34.666 81.5 -42.999s65 -12.5 101 -12.5c28.667 0 58 4.16699 88 12.5s57.667 22.666 83 42.999s45.833 46.5 61.5 78.5s23.5 71 23.5 117v241
c0 46 -7.83301 85 -23.5 117s-36.167 58.167 -61.5 78.5s-53 34.666 -83 42.999s-59.333 12.5 -88 12.5c-30 0 -60 -4.16699 -90 -12.5s-57.667 -22.666 -83 -42.999s-45.833 -46.666 -61.5 -78.999s-23.5 -71.166 -23.5 -116.499v-241z" />
    <glyph glyph-name="otilde" unicode="&#xf5;" horiz-adv-x="1085" 
d="M103 376l-0.000976562 310c0 61.333 11.833 116.166 35.5 164.499s55.334 89.333 95.001 123s86.334 59.334 140.001 77.001s110.5 26.5 170.5 26.5c64 0 123 -8.83301 177 -26.5s100.833 -43.334 140.5 -77.001s70.167 -74.667 91.5 -123s32 -103.166 32 -164.499v-310
c0 -61.333 -11.833 -116 -35.5 -164s-55.834 -88.5 -96.501 -121.5s-87.667 -58 -141 -75s-110 -25.5 -170 -25.5c-62 0 -119.5 8.5 -172.5 25.5s-99.167 42 -138.5 75s-70.5 73.5 -93.5 121.5s-34.5 102.667 -34.5 164zM184.999 1311
c28.667 60.667 63.834 108.001 105.501 142.001s83.834 51 126.501 51c26 0 52.333 -5.5 79 -16.5s52.167 -22.667 76.5 -35l70.5 -34.5c22.667 -10.667 43.667 -16 63 -16c21.333 0 42.666 7.5 63.999 22.5s43.666 39.5 66.999 73.5l111 -62
c-31.333 -65.333 -65.833 -113.5 -103.5 -144.5s-79.834 -46.5 -126.501 -46.5c-26 0 -51.5 4.66699 -76.5 14s-49.667 19.666 -74 30.999l-70 31.5c-22.333 9.66699 -43.833 14.5 -64.5 14.5c-24.667 0 -46.667 -6.16699 -66 -18.5s-42.666 -34.833 -69.999 -67.5z
M287.999 413.001c0 -46.667 6.83301 -85.835 20.5 -117.502s32 -57.667 55 -78s50.167 -34.666 81.5 -42.999s65 -12.5 101 -12.5c28.667 0 58 4.16699 88 12.5s57.667 22.666 83 42.999s45.833 46.5 61.5 78.5s23.5 71 23.5 117v241c0 46 -7.83301 85 -23.5 117
s-36.167 58.167 -61.5 78.5s-53 34.666 -83 42.999s-59.333 12.5 -88 12.5c-30 0 -60 -4.16699 -90 -12.5s-57.667 -22.666 -83 -42.999s-45.833 -46.666 -61.5 -78.999s-23.5 -71.166 -23.5 -116.499v-241z" />
    <glyph glyph-name="odieresis" unicode="&#xf6;" horiz-adv-x="1085" 
d="M103 376l-0.000976562 310c0 61.333 11.833 116.166 35.5 164.499s55.334 89.333 95.001 123s86.334 59.334 140.001 77.001s110.5 26.5 170.5 26.5c64 0 123 -8.83301 177 -26.5s100.833 -43.334 140.5 -77.001s70.167 -74.667 91.5 -123s32 -103.166 32 -164.499v-310
c0 -61.333 -11.833 -116 -35.5 -164s-55.834 -88.5 -96.501 -121.5s-87.667 -58 -141 -75s-110 -25.5 -170 -25.5c-62 0 -119.5 8.5 -172.5 25.5s-99.167 42 -138.5 75s-70.5 73.5 -93.5 121.5s-34.5 102.667 -34.5 164zM233.999 1374c0 29.333 10.166 53.833 30.499 73.5
s44.833 29.5 73.5 29.5s53.334 -9.83301 74.001 -29.5s31 -44.167 31 -73.5c0 -28.667 -10.5 -53.5 -31.5 -74.5s-45.5 -31.5 -73.5 -31.5c-28.667 0 -53.167 10.5 -73.5 31.5s-30.5 45.833 -30.5 74.5zM287.998 413c0 -46.667 6.83301 -85.835 20.5 -117.502
s32 -57.667 55 -78s50.167 -34.666 81.5 -42.999s65 -12.5 101 -12.5c28.667 0 58 4.16699 88 12.5s57.667 22.666 83 42.999s45.833 46.5 61.5 78.5s23.5 71 23.5 117v241c0 46 -7.83301 85 -23.5 117s-36.167 58.167 -61.5 78.5s-53 34.666 -83 42.999
s-59.333 12.5 -88 12.5c-30 0 -60 -4.16699 -90 -12.5s-57.667 -22.666 -83 -42.999s-45.833 -46.666 -61.5 -78.999s-23.5 -71.166 -23.5 -116.499v-241zM653.998 1374c0 29.333 10.333 53.833 31 73.5s45.334 29.5 74.001 29.5s53.334 -9.83301 74.001 -29.5
s31 -44.167 31 -73.5c0 -28.667 -10.333 -53.5 -31 -74.5s-45.334 -31.5 -74.001 -31.5s-53.334 10.5 -74.001 31.5s-31 45.833 -31 74.5z" />
    <glyph glyph-name="divide" unicode="&#xf7;" 
d="M60 564v135h970v-135h-970zM423 250c0 32.667 12 60.8359 36 84.5029s53 35.5 87 35.5c32.667 0 61.334 -11.833 86.001 -35.5s37 -51.834 37 -84.501c0 -34.667 -12.333 -63.834 -37 -87.501s-53.334 -35.5 -86.001 -35.5c-34 0 -63 11.667 -87 35
s-36 52.666 -36 87.999zM423 1017c0 33.333 12 62 36 86s53 36 87 36c32.667 0 61.334 -12 86.001 -36s37 -52.667 37 -86c0 -32.667 -12.333 -61.167 -37 -85.5s-53.334 -36.5 -86.001 -36.5c-34 0 -63 12.167 -87 36.5s-36 52.833 -36 85.5z" />
    <glyph glyph-name="oslash" unicode="&#xf8;" horiz-adv-x="1085" 
d="M103 47l74.999 97.001c-24 30 -42.5 64.5 -55.5 103.5s-19.5 81.833 -19.5 128.5v310c0 61.333 11.833 116.166 35.5 164.499s55.334 89.333 95.001 123s86.334 59.334 140.001 77.001s110.5 26.5 170.5 26.5c117.333 0 215 -28.667 293 -86l66 86l82 -57l-76 -97
c24.667 -31.333 43.5 -66.833 56.5 -106.5s19.5 -83.167 19.5 -130.5v-310c0 -61.333 -11.833 -116 -35.5 -164s-55.834 -88.5 -96.501 -121.5s-87.667 -58 -141 -75s-110 -25.5 -170 -25.5c-56 0 -108.667 6.66699 -158 20s-93.333 34.666 -132 63.999l-69 -91z
M287.999 413.001c0 -42.667 5 -78.3359 15 -107.003l419 539c-25.333 22 -53.5 37.5 -84.5 46.5s-61.5 13.5 -91.5 13.5s-60 -4.16699 -90 -12.5s-57.667 -22.666 -83 -42.999s-45.833 -46.666 -61.5 -78.999s-23.5 -71.166 -23.5 -116.499v-241zM362.999 216.999
c23.333 -20 50.333 -34.166 81 -42.499s64.667 -12.5 102 -12.5c28.667 0 58 4.16699 88 12.5s57.667 22.666 83 42.999s45.833 46.5 61.5 78.5s23.5 71 23.5 117v241c0 40 -6.66699 75 -20 105z" />
    <glyph glyph-name="ugrave" unicode="&#xf9;" horiz-adv-x="1085" 
d="M103 370v697.004h185v-677c0 -83.333 18.333 -141.833 55 -175.5s82.334 -49.834 137.001 -48.501c42.667 0 92.334 11.333 149.001 34s113.667 55 171 97v770h185v-1067h-164l-21 114c-44 -26.667 -83 -48.334 -117 -65.001s-64.333 -29.334 -91 -38.001
s-50.334 -14.334 -71.001 -17.001s-40.334 -4 -59.001 -4c-113.333 0 -201.5 32.833 -264.5 98.5s-94.5 159.5 -94.5 281.5zM318 1555l174 54l155 -382l-114 -43z" />
    <glyph glyph-name="uacute" unicode="&#xfa;" horiz-adv-x="1085" 
d="M103 370v697.004h185v-677c0 -83.333 18.333 -141.833 55 -175.5s82.334 -49.834 137.001 -48.501c42.667 0 92.334 11.333 149.001 34s113.667 55 171 97v770h185v-1067h-164l-21 114c-44 -26.667 -83 -48.334 -117 -65.001s-64.333 -29.334 -91 -38.001
s-50.334 -14.334 -71.001 -17.001s-40.334 -4 -59.001 -4c-113.333 0 -201.5 32.833 -264.5 98.5s-94.5 159.5 -94.5 281.5zM464 1227l156 382l174 -54l-215 -371z" />
    <glyph glyph-name="ucircumflex" unicode="&#xfb;" horiz-adv-x="1085" 
d="M103 370v697.004h185v-677c0 -83.333 18.333 -141.833 55 -175.5s82.334 -49.834 137.001 -48.501c42.667 0 92.334 11.333 149.001 34s113.667 55 171 97v770h185v-1067h-164l-21 114c-44 -26.667 -83 -48.334 -117 -65.001s-64.333 -29.334 -91 -38.001
s-50.334 -14.334 -71.001 -17.001s-40.334 -4 -59.001 -4c-113.333 0 -201.5 32.833 -264.5 98.5s-94.5 159.5 -94.5 281.5zM172 1268l323 330h114l307 -325l-85 -83l-287 228l-288 -232z" />
    <glyph glyph-name="udieresis" unicode="&#xfc;" horiz-adv-x="1085" 
d="M103 370v697.004h185v-677c0 -83.333 18.333 -141.833 55 -175.5s82.334 -49.834 137.001 -48.501c42.667 0 92.334 11.333 149.001 34s113.667 55 171 97v770h185v-1067h-164l-21 114c-44 -26.667 -83 -48.334 -117 -65.001s-64.333 -29.334 -91 -38.001
s-50.334 -14.334 -71.001 -17.001s-40.334 -4 -59.001 -4c-113.333 0 -201.5 32.833 -264.5 98.5s-94.5 159.5 -94.5 281.5zM224 1374c0 29.333 10 53.833 30 73.5s44.333 29.5 73 29.5s53.5 -9.83301 74.5 -29.5s31.5 -44.167 31.5 -73.5
c0 -28.667 -10.5 -53.5 -31.5 -74.5s-45.833 -31.5 -74.5 -31.5s-53 10.5 -73 31.5s-30 45.833 -30 74.5zM643 1374c0 29.333 10.5 53.833 31.5 73.5s45.833 29.5 74.5 29.5s53.334 -9.83301 74.001 -29.5s31 -44.167 31 -73.5c0 -28.667 -10.333 -53.5 -31 -74.5
s-45.334 -31.5 -74.001 -31.5s-53.5 10.5 -74.5 31.5s-31.5 45.833 -31.5 74.5z" />
    <glyph glyph-name="yacute" unicode="&#xfd;" horiz-adv-x="1005" 
d="M21 1067h201l129 -470l117 -425h8l150 425l162 470h197l-544 -1500h-198l157 452l-90 75zM402 1227l154 382l175 -54l-214 -371z" />
    <glyph glyph-name="thorn" unicode="&#xfe;" horiz-adv-x="1065" 
d="M101 -426l-0.000976562 1908h183v-530c78.667 50.667 145 83.834 199 99.501s100.333 23.5 139 23.5c104.667 0 190.334 -30.833 257.001 -92.5s100 -157.5 100 -287.5v-327c0 -122 -33.5 -216 -100.5 -282s-158.5 -99 -274.5 -99c-38.667 0 -83.667 3.83301 -135 11.5
s-113 26.167 -185 55.5v-480h-183zM283.999 227.999c65.333 -27.333 121.169 -45.166 167.502 -53.499s91.5 -12.5 135.5 -12.5c28.667 0 55.667 3.16699 81 9.5s47.166 17.666 65.499 33.999s33 38.5 44 66.5s16.5 62.667 16.5 104v305c0 82 -17.333 138.5 -52 169.5
s-80.667 46.5 -138 46.5c-20.667 0 -44.5 -3.5 -71.5 -10.5s-55.167 -16.333 -84.5 -28s-58.333 -25 -87 -40s-54.334 -30.5 -77.001 -46.5v-544z" />
    <glyph glyph-name="ydieresis" unicode="&#xff;" horiz-adv-x="1005" 
d="M21 1067h201l129 -470l117 -425h8l150 425l162 470h197l-544 -1500h-198l157 452l-90 75zM189 1374c0 29.333 10.166 53.833 30.499 73.5s44.833 29.5 73.5 29.5s53.334 -9.83301 74.001 -29.5s31 -44.167 31 -73.5c0 -28.667 -10.5 -53.5 -31.5 -74.5
s-45.5 -31.5 -73.5 -31.5c-28.667 0 -53.167 10.5 -73.5 31.5s-30.5 45.833 -30.5 74.5zM608.999 1374c0 29.333 10.333 53.833 31 73.5s45.334 29.5 74.001 29.5s53.334 -9.83301 74.001 -29.5s31 -44.167 31 -73.5c0 -28.667 -10.333 -53.5 -31 -74.5
s-45.334 -31.5 -74.001 -31.5s-53.334 10.5 -74.001 31.5s-31 45.833 -31 74.5z" />
    <glyph glyph-name="dotlessi" unicode="&#x131;" horiz-adv-x="513" 
d="M166 0v1067h183v-1067h-183z" />
    <glyph glyph-name="OE" unicode="&#x152;" horiz-adv-x="1892" 
d="M111 484v511c0 74.667 13.333 143 40 205s64 114.833 112 158.5s105.833 77.5 173.5 101.5s141.5 36 221.5 36c28.667 0 57.5 -1 86.5 -3s55.833 -5.66699 80.5 -11h990v-181h-791v-470h677v-179h-677v-474h791v-178h-990c-50 -10 -105.667 -15 -167 -15
c-80 0 -153.833 11.833 -221.5 35.5s-125.5 57 -173.5 100s-85.333 95.333 -112 157s-40 130.5 -40 206.5zM312 507c0 -60 9.33398 -111.5 28.001 -154.5s43.667 -78 75 -105s68.166 -47 110.499 -60s86.5 -19.5 132.5 -19.5c30.667 0 60 1.66699 88 5s54.333 10 79 20v1095
c-26 10 -52.667 16.833 -80 20.5s-56.333 5.5 -87 5.5c-47.333 0 -92.166 -6.5 -134.499 -19.5s-78.833 -33.333 -109.5 -61s-55.334 -63 -74.001 -106s-28 -94.833 -28 -155.5v-465z" />
    <glyph glyph-name="oe" unicode="&#x153;" horiz-adv-x="1738" 
d="M103 376l0.000976562 310c0 61.333 11.833 116.166 35.5 164.499s55.334 89.333 95.001 123s86.334 59.334 140.001 77.001s110.5 26.5 170.5 26.5c76 0 144.167 -11.833 204.5 -35.5s109.833 -58.167 148.5 -103.5c38 44 85.833 77.833 143.5 101.5
s121.834 35.5 192.501 35.5c62.667 0 120.5 -9.16699 173.5 -27.5s98.5 -44.833 136.5 -79.5s67.333 -76.667 88 -126s31 -105 31 -167v-211h-675v-70c0 -42.667 7.16699 -79 21.5 -109s34.166 -54.5 59.499 -73.5s54 -32.667 86 -41s65.333 -12.5 100 -12.5
c35.333 0 76.666 7 123.999 21s93.333 41.667 138 83l116 -127c-54.667 -56 -115.334 -94.167 -182.001 -114.5s-133.334 -30.5 -200.001 -30.5c-73.333 0 -141 11.333 -203 34s-113.667 57 -155 103c-40.667 -46 -91.667 -80.333 -153 -103s-127 -34 -197 -34
c-62 0 -119.5 8.5 -172.5 25.5s-99.167 42 -138.5 75s-70.5 73.5 -93.5 121.5s-34.5 102.667 -34.5 164zM288.001 413c0 -46.667 6.83301 -85.8369 20.5 -117.504s32 -57.667 55 -78s50.167 -34.666 81.5 -42.999s65 -12.5 101 -12.5c27.333 0 56 4.16699 86 12.5
s57.333 21.833 82 40.5s45.167 43 61.5 73s25.166 66.667 26.499 110v262c-1.33301 44.667 -9.83301 82.667 -25.5 114s-36.167 56.833 -61.5 76.5s-52.666 33.667 -81.999 42s-58.333 12.5 -87 12.5c-30 0 -60 -4.16699 -90 -12.5s-57.667 -22.666 -83 -42.999
s-45.833 -46.666 -61.5 -78.999s-23.5 -71.166 -23.5 -116.499v-241zM989.001 614.997h486v41c0 44 -6.5 81.833 -19.5 113.5s-30.5 58 -52.5 79s-47.667 36 -77 45s-60.333 13.5 -93 13.5c-33.333 0 -64.5 -4.83301 -93.5 -14.5s-54.833 -24.667 -77.5 -45
s-40.5 -46 -53.5 -77s-19.5 -66.833 -19.5 -107.5v-48z" />
    <glyph glyph-name="Ydieresis" unicode="&#x178;" horiz-adv-x="1153" 
d="M26 1482h217l172 -353l155 -347h15l159 357l167 343h216l-450 -912v-570h-199v568zM262 1744c0 28.667 10 53 30 73s44.333 30 73 30s53.5 -10 74.5 -30s31.5 -44.333 31.5 -73s-10.5 -53.334 -31.5 -74.001s-45.833 -31 -74.5 -31s-53 10.333 -73 31
s-30 45.334 -30 74.001zM681 1744c0 28.667 10.5 53 31.5 73s46.167 30 75.5 30c28.667 0 53.167 -10 73.5 -30s30.5 -44.333 30.5 -73s-10.167 -53.334 -30.5 -74.001s-44.833 -31 -73.5 -31c-29.333 0 -54.5 10.333 -75.5 31s-31.5 45.334 -31.5 74.001z" />
    <glyph glyph-name="florin" unicode="&#x192;" 
d="M-2 -152l53 143.999c48 -19.333 91.333 -29 130 -29c60 0 104.333 27.333 133 82s49.334 127 62.001 217l71 493h-187l-2 148h210l24 157c7.33301 49.333 18.833 100.5 34.5 153.5s39 101 70 144s70.667 78.5 119 106.5s108.166 42 179.499 42c32.667 0 64 -3 94 -9
s56 -13.333 78 -22l-41 -161c-20.667 6.66699 -44.167 12 -70.5 16s-49.5 6 -69.5 6c-32.667 0 -61 -7.16699 -85 -21.5s-43.833 -34.166 -59.5 -59.499s-28.5 -53.833 -38.5 -85.5s-17.333 -64.5 -22 -98.5l-23 -168h228l2 -148h-252l-68 -490
c-8.66699 -68.667 -21.667 -131 -39 -187s-40.333 -104.167 -69 -144.5s-64.167 -71.5 -106.5 -93.5s-92.5 -33 -150.5 -33c-30 0 -64.167 3.83301 -102.5 11.5s-72.5 17.5 -102.5 29.5z" />
    <glyph glyph-name="circumflex" unicode="&#x2c6;" horiz-adv-x="1055" 
d="M170 1268l322 330h115l307 -325l-87 -83l-285 228l-288 -232z" />
    <glyph glyph-name="caron" unicode="&#x2c7;" horiz-adv-x="1055" 
d="M170 1518l84 82l288 -230l285 228l87 -84l-307 -324h-115z" />
    <glyph glyph-name="breve" unicode="&#x2d8;" horiz-adv-x="1098" 
d="M273 1498h157c2 -14 6.5 -28.833 13.5 -44.5s16.833 -30.334 29.5 -44.001s28.334 -24.834 47.001 -33.501s39.667 -13 63 -13c26 0 48.5 4.33301 67.5 13s35 19.834 48 33.501s22.667 28.334 29 44.001s9.5 30.5 9.5 44.5h153c-2.66699 -28.667 -9 -59 -19 -91
s-26.833 -61.5 -50.5 -88.5s-54.5 -50 -92.5 -69s-86.333 -28.5 -145 -28.5s-107.834 9.5 -147.501 28.5s-71.167 42 -94.5 69s-40.5 56.5 -51.5 88.5s-16.5 62.333 -16.5 91z" />
    <glyph glyph-name="dotaccent" unicode="&#x2d9;" horiz-adv-x="1055" 
d="M417 1385c0 27.333 9.5 52.666 28.5 75.999s46.833 35 83.5 35c38.667 0 68.334 -11.667 89.001 -35s31 -48.666 31 -75.999c0 -32.667 -10.333 -60.667 -31 -84s-50.334 -35 -89.001 -35c-36.667 0 -64.5 11.333 -83.5 34s-28.5 51 -28.5 85z" />
    <glyph glyph-name="ring" unicode="&#x2da;" horiz-adv-x="1055" 
d="M327 1385c0 30 5.66699 58.667 17 86s27.333 50.666 48 69.999s44.667 34.666 72 45.999s56 17 86 17s58.667 -5.66699 86 -17s51 -26.666 71 -45.999s35.833 -42.666 47.5 -69.999s17.5 -56 17.5 -86s-5.83301 -58.667 -17.5 -86s-27.5 -51 -47.5 -71
s-43.667 -35.833 -71 -47.5s-56 -17.5 -86 -17.5s-58.667 5.83301 -86 17.5s-51.333 27.5 -72 47.5s-36.667 43.667 -48 71s-17 56 -17 86zM430 1385c0 -32.667 11.833 -60.667 35.5 -84s51.834 -35 84.501 -35c33.333 0 61.5 11.667 84.5 35s34.5 51.333 34.5 84
s-11.5 60.334 -34.5 83.001s-51.167 34 -84.5 34c-32.667 0 -60.834 -11.333 -84.501 -34s-35.5 -50.334 -35.5 -83.001z" />
    <glyph glyph-name="ogonek" unicode="&#x2db;" horiz-adv-x="603" 
d="M127 -197c0 28.667 6.16699 59 18.5 91s33.5 68.667 63.5 110h124l2 -4c-46 -64.667 -68.667 -120 -68 -166c0 -30 8.83301 -53.167 26.5 -69.5s43.167 -24.5 76.5 -24.5c17.333 0 35.333 3.66699 54 11l66 27l46 -111c-29.333 -16 -61 -29 -95 -39s-69.333 -15 -106 -15
c-61.333 0 -111.333 18.667 -150 56s-58 82 -58 134z" />
    <glyph glyph-name="tilde" unicode="&#x2dc;" horiz-adv-x="1055" 
d="M144 1311c28.667 60.667 63.835 108.001 105.502 142.001s83.834 51 126.501 51c26 0 52.333 -5.5 79 -16.5s52.167 -22.667 76.5 -35l70.5 -34.5c22.667 -10.667 43.667 -16 63 -16c21.333 0 42.666 7.5 63.999 22.5s43.666 39.5 66.999 73.5l111 -62
c-31.333 -65.333 -65.833 -113.5 -103.5 -144.5s-79.834 -46.5 -126.501 -46.5c-26 0 -51.333 4.66699 -76 14s-49.334 19.666 -74.001 30.999l-70.5 31.5c-22.333 9.66699 -43.833 14.5 -64.5 14.5c-24.667 0 -46.667 -6.16699 -66 -18.5s-42.666 -34.833 -69.999 -67.5z
" />
    <glyph glyph-name="hungarumlaut" unicode="&#x2dd;" horiz-adv-x="1210" 
d="M329 1227l155 382l174 -54l-215 -371zM609 1227l154 382l175 -54l-216 -371z" />
    <glyph glyph-name="Omega" unicode="&#x3a9;" horiz-adv-x="1334" 
d="M92 0l0.00292969 175.999h196c-50.667 40 -91.167 89.167 -121.5 147.5s-45.5 125.5 -45.5 201.5v481c0 74 14.333 141.333 43 202s67.667 112.5 117 155.5s107.166 75.833 173.499 98.5s137.833 34 214.5 34c74 0 144.5 -11.333 211.5 -34s125.167 -55.5 174.5 -98.5
s88.333 -94.667 117 -155s43 -127.833 43 -202.5v-481c0 -76 -15 -143.167 -45 -201.5s-70.333 -107.5 -121 -147.5h198v-176h-469v217c30 8.66699 59.333 22 88 40s54.167 40.167 76.5 66.5s40 58 53 95s19.5 78.833 19.5 125.5v430c0 60.667 -9.33301 112.167 -28 154.5
s-43.834 77.333 -75.501 105s-68.667 48 -111 61s-86.166 19.5 -131.499 19.5c-48 0 -93 -6.5 -135 -19.5s-78.833 -33.333 -110.5 -61s-56.834 -62.667 -75.501 -105s-28 -93.833 -28 -154.5v-430c0 -48 6.83301 -90.167 20.5 -126.5s31.667 -67.666 54 -93.999
s47.666 -48.5 75.999 -66.5s57.833 -31.333 88.5 -40v-217h-467z" />
    <glyph glyph-name="pi" unicode="&#x3c0;" horiz-adv-x="1081" 
d="M105 0v1065h878v-1065h-185v901h-510v-901h-183z" />
    <glyph glyph-name="afii10023" unicode="&#x401;" horiz-adv-x="1197" 
d="M131 0v1482h989v-181h-791v-470h677v-179h-677v-474h791v-178h-989zM322 1744c0 28.667 10.166 53 30.499 73s44.833 30 73.5 30s53.334 -10 74.001 -30s31 -44.333 31 -73s-10.5 -53.334 -31.5 -74.001s-45.5 -31 -73.5 -31c-28.667 0 -53.167 10.333 -73.5 31
s-30.5 45.334 -30.5 74.001zM741.999 1744c0 28.667 10.333 53 31 73s45.334 30 74.001 30s53.334 -10 74.001 -30s31 -44.333 31 -73s-10.333 -53.334 -31 -74.001s-45.334 -31 -74.001 -31s-53.334 10.333 -74.001 31s-31 45.334 -31 74.001z" />
    <glyph glyph-name="afii10051" unicode="&#x402;" horiz-adv-x="1535" 
d="M21 1299l0.000976562 183h1142v-183h-556v-383c60 36.667 124.333 66.167 193 88.5s134.667 33.5 198 33.5c158.667 0 273.167 -41.667 343.5 -125s105.5 -199.666 105.5 -348.999v-246c0 -76 -8.66699 -144.833 -26 -206.5s-46.833 -113.834 -88.5 -156.501
s-97.5 -76 -167.5 -100s-158.667 -36 -266 -36v179c62.667 0 116 6.16699 160 18.5s80 32.166 108 59.499s48.333 62.833 61 106.5s19 96.834 19 159.501v198c0 60 -6.83301 109.833 -20.5 149.5s-33 71.5 -58 95.5s-55.333 41.167 -91 51.5s-75.834 15.5 -120.501 15.5
c-32 0 -64 -4.16699 -96 -12.5s-63.5 -18.333 -94.5 -30s-60.167 -25.5 -87.5 -41.5s-51.333 -32 -72 -48v-720h-201v1299h-385z" />
    <glyph glyph-name="afii10052" unicode="&#x403;" horiz-adv-x="1102" 
d="M131 0v1482h989v-181h-791v-1301h-198zM460 1677l318 262l127 -131l-365 -221z" />
    <glyph glyph-name="afii10053" unicode="&#x404;" horiz-adv-x="1130" 
d="M117 471l-0.00585938 542c0 74.667 14.667 141.667 44 201s68.333 110.166 117 152.499s105.334 74.5 170.001 96.5s132.667 33 204 33c80.667 0 156 -10.667 226 -32s133 -55 189 -101l-99 -154c-38.667 32.667 -87.167 58.334 -145.5 77.001s-115.166 28 -170.499 28
c-41.333 0 -82.333 -6.5 -123 -19.5s-76.667 -33 -108 -60s-56.666 -62 -75.999 -105s-29 -95.5 -29 -157.5v-125h521v-176h-521v-162c0 -60 10 -111.833 30 -155.5s45.833 -79 77.5 -106s67.167 -47 106.5 -60s78.333 -19.5 117 -19.5c56 0 113 7.83301 171 23.5
s110 42.167 156 79.5l95 -152c-46 -37.333 -105.667 -69 -179 -95s-152.666 -39 -237.999 -39c-77.333 0 -148.666 11 -213.999 33s-122.166 53.833 -170.499 95.5s-85.5 92.667 -111.5 153s-39 128.5 -39 204.5z" />
    <glyph glyph-name="afii10054" unicode="&#x405;" horiz-adv-x="1194" 
d="M56 170l112.003 142c66 -46 135.833 -81.833 209.5 -107.5s149.167 -38.5 226.5 -38.5c100 0 178.833 21.5 236.5 64.5s86.5 103.167 86.5 180.5c0 48.667 -11.167 88.334 -33.5 119.001s-51 55.334 -86 74.001s-73.667 33.167 -116 43.5s-83.5 19.5 -123.5 27.5
c-58.667 11.333 -115.334 26.166 -170.001 44.499s-102.834 43.166 -144.501 74.499s-75.334 70.333 -101.001 117s-38.5 104.334 -38.5 173.001c0 61.333 11.167 118.333 33.5 171s54.333 97.5 96 134.5s91.834 66.333 150.501 88s125 32.5 199 32.5
c86 0 170 -7.83301 252 -23.5s160 -46.834 234 -93.501l-92 -168c-63.333 37.333 -129 64 -197 80s-134.333 24 -199 24c-38.667 0 -75.167 -5 -109.5 -15s-64.333 -25.333 -90 -46s-46 -47 -61 -79s-22.5 -68.667 -22.5 -110s10.667 -74.833 32 -100.5
s48.5 -46.834 81.5 -63.501s68.833 -30 107.5 -40s75 -18.667 109 -26c62 -14 122.333 -30 181 -48s111 -42.833 157 -74.5s83 -72.5 111 -122.5s42 -114.333 42 -193c0 -66 -12.5 -125.333 -37.5 -178s-60.833 -97.167 -107.5 -133.5s-102.334 -64.166 -167.001 -83.499
s-136.334 -29 -215.001 -29c-102 0 -197.667 14.5 -287 43.5s-175.666 75.5 -258.999 139.5z" />
    <glyph glyph-name="afii10055" unicode="&#x406;" horiz-adv-x="541" 
d="M172 0v1482h198v-1482h-198z" />
    <glyph glyph-name="afii10056" unicode="&#x407;" horiz-adv-x="541" 
d="M-41 1759c0 28.667 10 53.167 30 73.5s44.333 30.5 73 30.5s53.5 -10.167 74.5 -30.5s31.5 -44.833 31.5 -73.5s-10.5 -53.334 -31.5 -74.001s-45.833 -31 -74.5 -31s-53 10.333 -73 31s-30 45.334 -30 74.001zM172 0v1482h198v-1482h-198zM378 1759
c0 28.667 10.5 53.167 31.5 73.5s45.833 30.5 74.5 30.5s53.334 -10.167 74.001 -30.5s31 -44.833 31 -73.5s-10.333 -53.334 -31 -74.001s-45.334 -31 -74.001 -31s-53.5 10.333 -74.5 31s-31.5 45.334 -31.5 74.001z" />
    <glyph glyph-name="afii10057" unicode="&#x408;" horiz-adv-x="1120" 
d="M33 97l92.001 159.002c50.667 -31.333 99.167 -53.833 145.5 -67.5s91.5 -20.5 135.5 -20.5c50.667 0 97.167 6.5 139.5 19.5s78.5 33.333 108.5 61s53.333 63.667 70 108s25 99.166 25 164.499v961h197v-1004c0 -76.667 -13.333 -145.334 -40 -206.001
s-63.167 -112.167 -109.5 -154.5s-100.333 -75 -162 -98s-126.834 -34.5 -195.501 -34.5c-67.333 0 -138.833 9.33301 -214.5 28s-139.5 46.667 -191.5 84z" />
    <glyph glyph-name="afii10058" unicode="&#x409;" horiz-adv-x="1966" 
d="M24 109c53.333 27.333 98.832 58.999 136.499 94.999s68.667 81.5 93 136.5s41.833 123.167 52.5 204.5s16 181.333 16 300v637h772v-612h408c65.333 0 124.166 -12.333 176.499 -37s96.833 -57.5 133.5 -98.5s65 -87.167 85 -138.5s30 -103.666 30 -156.999
s-8.66699 -106 -26 -158s-43.166 -98.833 -77.499 -140.5s-77.666 -75.5 -129.999 -101.5s-114.166 -39 -185.499 -39h-616v1301h-379v-468c0 -139.333 -8.5 -258.5 -25.5 -357.5s-42.667 -182.5 -77 -250.5s-76.833 -123.833 -127.5 -167.5
s-109.334 -79.167 -176.001 -106.5zM1094 180.999l373.001 -0.00292969c77.333 0 140.666 22.833 189.999 68.5s74 108.834 74 189.501c0 40 -6.83301 75.333 -20.5 106s-32.667 56.834 -57 78.501s-53 37.834 -86 48.501s-68.5 16 -106.5 16h-367v-507z" />
    <glyph glyph-name="afii10059" unicode="&#x40a;" horiz-adv-x="1986" 
d="M117 0l-0.00390625 1482h197v-620h576v620h198v-618h410c66 0 125.333 -12 178 -36s97.334 -56.167 134.001 -96.5s65 -85.833 85 -136.5s30 -102.667 30 -156s-8.66699 -106 -26 -158s-43.166 -98.833 -77.499 -140.5s-77.666 -75.5 -129.999 -101.5
s-114.166 -39 -185.499 -39h-616v681h-576v-681h-197zM1088 181l377.001 -0.000976562c77.333 0 140.666 22.833 189.999 68.5s74 108.834 74 189.501s-26.167 141.167 -78.5 181.5s-116.5 60.5 -192.5 60.5h-370v-500z" />
    <glyph glyph-name="afii10060" unicode="&#x40b;" horiz-adv-x="1535" 
d="M21 1299l0.00195312 183.001h1142v-183h-556v-376c26 16 54.167 30.667 84.5 44s62.166 25.5 95.499 36.5s66.833 19.5 100.5 25.5s66.167 9 97.5 9c90 0 164.833 -12 224.5 -36s107 -58.167 142 -102.5s59.667 -97.833 74 -160.5s21.5 -131.334 21.5 -206.001v-533h-200
v509c0 120.667 -20.833 208 -62.5 262s-113.167 81 -214.5 81c-31.333 0 -64 -4.16699 -98 -12.5s-67.167 -18.333 -99.5 -30s-62.833 -25.5 -91.5 -41.5s-53.334 -32 -74.001 -48v-720h-201v1299h-385z" />
    <glyph glyph-name="afii10061" unicode="&#x40c;" horiz-adv-x="1229" 
d="M123 0l0.000976562 1482h197v-639h230c23.333 0 48 2.16699 74 6.5s51.333 14 76 29s47.834 36.833 69.501 65.5s40.167 67.334 55.5 116.001l136 422h190l-134 -433c-22.667 -72.667 -51.834 -133.334 -87.501 -182.001s-76.834 -81 -123.501 -97
c62 -20.667 110.167 -56.334 144.5 -107.001s62.166 -112.334 83.499 -185.001l142 -478h-206l-129 443c-14 49.333 -31.5 89.333 -52.5 120s-43.667 53.834 -68 69.501s-50.166 26.334 -77.499 32.001s-54.333 8.5 -81 8.5h-242v-673h-197zM456.001 1677l318 262l127 -131
l-365 -221z" />
    <glyph glyph-name="afii10062" unicode="&#x40e;" horiz-adv-x="1113" 
d="M19 1482l207 0.00292969l336 -918h10l337 918h199l-441 -1155c-24.667 -68.667 -50 -125.334 -76 -170.001s-52.5 -80.334 -79.5 -107.001s-56 -44.834 -87 -54.501s-63.5 -14.5 -97.5 -14.5h-163v187h124c30 0 57.5 6.5 82.5 19.5s47.833 40.833 68.5 83.5l17 47z
M271 1793h157.001c1.33301 -14 5.66602 -29 12.999 -45s17.333 -30.667 30 -44s28.334 -24.333 47.001 -33s39.667 -13 63 -13c26 0 48.5 4.33301 67.5 13s35 19.667 48 33s22.667 28 29 44s9.5 31 9.5 45h153c-2.66699 -28.667 -9 -59 -19 -91s-27 -61.667 -51 -89
s-54.833 -50.333 -92.5 -69s-85.834 -28 -144.501 -28c-59.333 0 -108.666 9.33301 -147.999 28s-70.833 41.667 -94.5 69s-40.834 57 -51.501 89s-16 62.333 -16 91z" />
    <glyph glyph-name="afii10145" unicode="&#x40f;" horiz-adv-x="1326" 
d="M117 0v1482h197v-1304h695v1304h202v-1482h-441v-359h-208v359h-445z" />
    <glyph glyph-name="afii10017" unicode="&#x410;" horiz-adv-x="1283" 
d="M28 0l516 1482h200l518 -1482h-208l-116 333h-589l-115 -333h-206zM413 513h463l-119 353l-110 345h-9l-107 -345z" />
    <glyph glyph-name="afii10018" unicode="&#x411;" horiz-adv-x="1210" 
d="M117 0v1482h885v-183h-688v-429h410c70.667 0 132.5 -12.333 185.5 -37s97.333 -57.5 133 -98.5s62.667 -87.167 81 -138.5s27.5 -103.666 27.5 -156.999s-8.66699 -106 -26 -158s-43.333 -98.833 -78 -140.5s-78 -75.5 -130 -101.5s-114 -39 -186 -39h-614zM314 180.999
l376 -0.00292969c77.333 0 140.666 22.833 189.999 68.5s74 108.834 74 189.501c0 40 -6.66699 75.333 -20 106s-32.166 56.834 -56.499 78.501s-53 37.834 -86 48.501s-68.833 16 -107.5 16h-370v-507z" />
    <glyph glyph-name="afii10019" unicode="&#x412;" horiz-adv-x="1274" 
d="M123 0l0.00195312 1482h614c67.333 0 127.166 -10.667 179.499 -32s96.666 -50.166 132.999 -86.499s63.666 -78 81.999 -125s27.5 -96.5 27.5 -148.5c0 -58.667 -13.667 -116.167 -41 -172.5s-74.666 -103.5 -141.999 -141.5c72 -37.333 124.333 -87.5 157 -150.5
s49 -126.5 49 -190.5c0 -53.333 -8.83301 -105.833 -26.5 -157.5s-44 -97.834 -79 -138.501s-79.167 -74 -132.5 -100s-114.333 -39 -183 -39h-638zM322.002 178l400 -0.000976562c88 0 154.167 22.333 198.5 67s66.5 108 66.5 190c0 40 -7.5 75.333 -22.5 106
s-35.167 56.834 -60.5 78.501s-54 38.167 -86 49.5s-65.333 17 -100 17h-396v-508zM322.002 863.999h394.001c32.667 0 64.167 4.66699 94.5 14s56.666 23.333 78.999 42s40.333 42 54 70s20.5 60 20.5 96c0 77.333 -24.833 132.5 -74.5 165.5s-113.167 49.5 -190.5 49.5
h-377v-437z" />
    <glyph glyph-name="afii10020" unicode="&#x413;" horiz-adv-x="1102" 
d="M131 0v1482h989v-181h-791v-1301h-198z" />
    <glyph glyph-name="afii10021" unicode="&#x414;" horiz-adv-x="1485" 
d="M21 185h110.002c33.333 24.667 62.166 54.5 86.499 89.5s44.666 79.667 60.999 134s29.5 121 39.5 200s17.333 173.5 22 283.5l23 590h936l2 -1301h121v-501h-195v320h-1012v-320h-194v505zM378.002 178h717.998v1123h-552l-21 -425c-4 -96 -9 -179.833 -15 -251.5
s-14.167 -135.167 -24.5 -190.5s-23.666 -103.5 -39.999 -144.5s-38.166 -78.167 -65.499 -111.5z" />
    <glyph glyph-name="afii10022" unicode="&#x415;" horiz-adv-x="1197" 
d="M131 0v1482h989v-181h-791v-470h677v-179h-677v-474h791v-178h-989z" />
    <glyph glyph-name="afii10024" unicode="&#x416;" horiz-adv-x="1900" 
d="M54 0l142.997 474c22 72.667 50.5 135.167 85.5 187.5s83.5 88.5 145.5 108.5c-47.333 16 -89.166 47.167 -125.499 93.5s-64.833 106.166 -85.5 179.499l-137 439h195l133 -422c16.667 -48.667 36 -87.334 58 -116.001s45.5 -50.5 70.5 -65.5s50.5 -24.667 76.5 -29
s51 -6.5 75 -6.5h164v639h197v-639h164c22.667 0 47.334 2.16699 74.001 6.5s52.5 14 77.5 29s48.667 36.833 71 65.5s41.166 67.334 56.499 116.001l133 422h197l-138 -439c-20 -73.333 -48.333 -133.166 -85 -179.499s-78.667 -77.5 -126 -93.5
c62 -20.667 110.5 -57 145.5 -109s63.167 -114.333 84.5 -187l144 -474h-210l-129 443c-14 49.333 -31.167 89.333 -51.5 120s-42.5 53.834 -66.5 69.501s-49.5 26.334 -76.5 32.001s-54.833 8.5 -83.5 8.5h-181v-673h-197v673h-181c-28.667 0 -56.667 -2.83301 -84 -8.5
s-52.666 -16.334 -75.999 -32.001s-45.166 -38.834 -65.499 -69.501s-37.5 -70.667 -51.5 -120l-129 -443h-211z" />
    <glyph glyph-name="afii10025" unicode="&#x417;" horiz-adv-x="1092" 
d="M17 133l104.004 145.998c20 -16 44.5 -31.333 73.5 -46s59.667 -27.5 92 -38.5s65.166 -19.5 98.499 -25.5s63 -9 89 -9c118.667 0 204.5 25.333 257.5 76s79.5 119 79.5 205c0 82 -24 144 -72 186s-115 63 -201 63h-168v166h155c30 0 61.167 5 93.5 15
s61.333 25.333 87 46s47.167 46.834 64.5 78.501s26 69.167 26 112.5c0 72.667 -27.667 126.167 -83 160.5s-124 51.5 -206 51.5c-26 0 -54.333 -2.83301 -85 -8.5s-61 -14 -91 -25s-58.5 -23.167 -85.5 -36.5s-50.167 -28.666 -69.5 -45.999l-102 146
c56 41.333 119 75.666 189 102.999s157.333 41 262 41c60 0 117.5 -6.83301 172.5 -20.5s103.667 -35.5 146 -65.5s76.5 -69 102.5 -117s39 -106.333 39 -175c0 -72.667 -17.833 -139.667 -53.5 -201s-88.167 -104.666 -157.5 -129.999
c40 -12.667 74.5 -31.334 103.5 -56.001s52.667 -52.334 71 -83.001s31.833 -63.5 40.5 -98.5s13 -69.833 13 -104.5c0 -79.333 -13.5 -147.666 -40.5 -204.999s-64.333 -104.833 -112 -142.5s-104 -65.5 -169 -83.5s-134.833 -27 -209.5 -27
c-44 0 -88.333 3.83301 -133 11.5s-86.834 18.334 -126.501 32.001s-76.334 29.5 -110.001 47.5s-61.834 37 -84.501 57z" />
    <glyph glyph-name="afii10026" unicode="&#x418;" horiz-adv-x="1386" 
d="M127 0v1482h197v-1133h16l189 296l540 837h191v-1482h-197v1149h-16l-214 -345l-519 -804h-187z" />
    <glyph glyph-name="afii10027" unicode="&#x419;" horiz-adv-x="1386" 
d="M127 0v1482h197v-1133h16l189 296l540 837h191v-1482h-197v1149h-16l-214 -345l-519 -804h-187zM363 1824l158.001 -0.00195312c1.33301 -14 5.5 -29 12.5 -45s17 -30.833 30 -44.5s28.667 -24.834 47 -33.501s39.166 -13 62.499 -13c26 0 48.667 4.33301 68 13
s35.333 19.834 48 33.501s22.167 28.334 28.5 44.001s9.5 30.834 9.5 45.501h154c-3.33301 -28.667 -10 -59.167 -20 -91.5s-26.667 -62.166 -50 -89.499s-54.166 -50.166 -92.499 -68.499s-86.833 -27.5 -145.5 -27.5s-107.834 9.16699 -147.501 27.5
s-71.167 41.166 -94.5 68.499s-40.5 57.166 -51.5 89.499s-16.5 62.833 -16.5 91.5z" />
    <glyph glyph-name="afii10028" unicode="&#x41a;" horiz-adv-x="1229" 
d="M123 0l0.000976562 1482h197v-639h230c23.333 0 48 2.16699 74 6.5s51.333 14 76 29s47.834 36.833 69.501 65.5s40.167 67.334 55.5 116.001l136 422h190l-134 -433c-22.667 -72.667 -51.834 -133.334 -87.501 -182.001s-76.834 -81 -123.501 -97
c62 -20.667 110.167 -56.334 144.5 -107.001s62.166 -112.334 83.499 -185.001l142 -478h-206l-129 443c-14 49.333 -31.5 89.333 -52.5 120s-43.667 53.834 -68 69.501s-50.166 26.334 -77.499 32.001s-54.333 8.5 -81 8.5h-242v-673h-197z" />
    <glyph glyph-name="afii10029" unicode="&#x41b;" horiz-adv-x="1336" 
d="M-4 121c50 26 93.999 56 131.999 90s69.5 78.333 94.5 133s43.667 122.167 56 202.5s18.5 179.833 18.5 298.5v637h912v-1482h-203v1301h-511v-468c0 -139.333 -9 -258.5 -27 -357.5s-44.667 -182.5 -80 -250.5s-78.666 -123.833 -129.999 -167.5
s-110 -79.167 -176 -106.5z" />
    <glyph glyph-name="afii10030" unicode="&#x41c;" horiz-adv-x="1594" 
d="M125 0v1482h189l299 -604l187 -394h13l182 394l295 604h183v-1482h-198v1009h-11l-135 -287l-249 -503h-149l-236 462l-162 328h-11v-1009h-197z" />
    <glyph glyph-name="afii10031" unicode="&#x41d;" horiz-adv-x="1326" 
d="M117 0v1482h197v-641h695v641h202v-1482h-202v660h-695v-660h-197z" />
    <glyph glyph-name="afii10032" unicode="&#x41e;" horiz-adv-x="1317" 
d="M111 484l0.000976562 511.001c0 74.667 13.333 143 40 205s64 114.833 112 158.5s105.833 77.5 173.5 101.5s141.5 36 221.5 36c79.333 0 152.666 -12 219.999 -36s125.333 -57.833 174 -101.5s86.5 -96.334 113.5 -158.001s40.5 -130.167 40.5 -205.5v-511
c0 -76 -14 -144.833 -42 -206.5s-66.667 -114 -116 -157s-107.333 -76.333 -174 -100s-138.667 -35.5 -216 -35.5c-80 0 -153.833 11.833 -221.5 35.5s-125.5 57 -173.5 100s-85.333 95.333 -112 157s-40 130.5 -40 206.5zM312.001 507.001
c0 -60 9.33203 -111.5 27.999 -154.5s43.667 -78 75 -105s68.166 -47 110.499 -60s86.5 -19.5 132.5 -19.5c48 0 92.667 6.5 134 19.5s78 33 110 60s57.333 62 76 105s28 94.5 28 154.5v465c0 60.667 -9.33301 112.5 -28 155.5s-43.667 78.333 -75 106
s-68.166 48 -110.499 61s-87.166 19.5 -134.499 19.5s-92.166 -6.5 -134.499 -19.5s-78.833 -33.333 -109.5 -61s-55.334 -63 -74.001 -106s-28 -94.833 -28 -155.5v-465z" />
    <glyph glyph-name="afii10033" unicode="&#x41f;" horiz-adv-x="1326" 
d="M117 0v1482h1094v-1482h-202v1301h-695v-1301h-197z" />
    <glyph glyph-name="afii10034" unicode="&#x420;" horiz-adv-x="1190" 
d="M117 0l0.00195312 1482h614c71.333 0 133.166 -13.333 185.499 -40s95.833 -61.167 130.5 -103.5s60.667 -89.666 78 -141.999s26 -105.166 26 -158.499c0 -52.667 -9.83301 -105.167 -29.5 -157.5s-47.334 -99.666 -83.001 -141.999s-79.167 -76.833 -130.5 -103.5
s-110.333 -40 -177 -40h-417v-595h-197zM314.002 777.997h376c77.333 0 140.666 23 189.999 69s74 109.667 74 191c0 80.667 -24.667 144.667 -74 192s-112.666 71 -189.999 71h-376v-523z" />
    <glyph glyph-name="afii10035" unicode="&#x421;" horiz-adv-x="1132" 
d="M117 471l-0.00390625 542c0 74.667 14.667 141.667 44 201s68.333 110.166 117 152.499s105.334 74.5 170.001 96.5s132.667 33 204 33c80.667 0 156 -10.667 226 -32s133 -55 189 -101l-99 -154c-38.667 32.667 -87.167 58.334 -145.5 77.001s-115.166 28 -170.499 28
c-41.333 0 -82.333 -6.5 -123 -19.5s-76.667 -33 -108 -60s-56.666 -62 -75.999 -105s-29 -95.5 -29 -157.5v-463c0 -60 10 -111.833 30 -155.5s45.833 -79 77.5 -106s67.167 -47 106.5 -60s78.333 -19.5 117 -19.5c56 0 113 7.83301 171 23.5s110 42.167 156 79.5l95 -152
c-46 -37.333 -105.667 -69 -179 -95s-152.666 -39 -237.999 -39c-71.333 0 -139.666 11 -204.999 33s-122.333 53.833 -171 95.5s-87.334 92.667 -116.001 153s-43 128.5 -43 204.5z" />
    <glyph glyph-name="afii10036" unicode="&#x422;" horiz-adv-x="1122" 
d="M35 1299v183h1053v-183h-425v-1299h-201v1299h-427z" />
    <glyph glyph-name="afii10037" unicode="&#x423;" horiz-adv-x="1113" 
d="M19 1482l207 0.00292969l336 -918h10l337 918h199l-441 -1155c-24.667 -68.667 -50 -125.334 -76 -170.001s-52.5 -80.334 -79.5 -107.001s-56 -44.834 -87 -54.501s-63.5 -14.5 -97.5 -14.5h-163v187h124c30 0 57.5 6.5 82.5 19.5s47.833 40.833 68.5 83.5l17 47z" />
    <glyph glyph-name="afii10038" unicode="&#x424;" horiz-adv-x="1660" 
d="M131 675l0.00292969 209.002c0 72.667 14 141.167 42 205.5s67.833 121.5 119.5 171.5s114.334 90.333 188.001 121s157.167 47.334 250.5 50.001v64h200v-64c93.333 -2.66699 177 -19 251 -49s136.667 -69.667 188 -119s91 -106.833 119 -172.5s42 -134.834 42 -207.501
v-203c0 -76 -13.333 -147.167 -40 -213.5s-65.334 -124.666 -116.001 -174.999s-113.334 -90.833 -188.001 -121.5s-160 -47.334 -256 -50.001v-121h-200v121c-96 2.66699 -181.333 19 -256 49s-137.334 69.667 -188.001 119s-89.334 107.166 -116.001 173.499
s-40 137.166 -40 212.499zM331.003 686.002c0 -59.333 10.166 -112.167 30.499 -158.5s48 -86 83 -119s76.833 -58.333 125.5 -76s102.334 -27.5 161.001 -29.5v947c-60.667 -2 -115.167 -12.5 -163.5 -31.5s-90 -45.167 -125 -78.5s-62.333 -73.333 -82 -120
s-29.5 -98.667 -29.5 -156v-178zM931.002 303.001c57.333 2 110.833 11.834 160.5 29.501s91.834 43 126.501 76s62.167 72.667 82.5 119s30.5 99.166 30.5 158.499v178c0 57.333 -9.66699 109.333 -29 156s-46.5 86.667 -81.5 120s-76.833 59.5 -125.5 78.5
s-103.334 29.5 -164.001 31.5v-947z" />
    <glyph glyph-name="afii10039" unicode="&#x425;" horiz-adv-x="1182" 
d="M19 0l461 759l-431 723h230l312 -559l314 559h230l-429 -723l460 -759h-230l-345 597l-341 -597h-231z" />
    <glyph glyph-name="afii10040" unicode="&#x426;" horiz-adv-x="1367" 
d="M117 0v1482h197v-1304h695v1304h202v-1299l123 -2v-501h-197v320h-1020z" />
    <glyph glyph-name="afii10041" unicode="&#x427;" horiz-adv-x="1266" 
d="M62 1047l-0.000976562 437.004h200v-413c0 -120.667 22.333 -207.834 67 -261.501s122.334 -80.5 233.001 -80.5c31.333 0 64.5 3.66699 99.5 11s69.333 16.666 103 27.999s65.5 24.666 95.5 39.999s56 30.666 78 45.999v630h199v-1482h-199v650
c-26 -16 -54.833 -30.833 -86.5 -44.5s-64.667 -25.167 -99 -34.5s-68.833 -16.833 -103.5 -22.5s-67.667 -8.5 -99 -8.5c-92.667 0 -170.167 12.167 -232.5 36.5s-112.333 58.833 -150 103.5s-64.667 98.167 -81 160.5s-24.5 130.5 -24.5 204.5z" />
    <glyph glyph-name="afii10042" unicode="&#x428;" horiz-adv-x="1870" 
d="M119 0v1482h197v-1304h521v1304h193v-1304h525v1304h197v-1482h-1633z" />
    <glyph glyph-name="afii10043" unicode="&#x429;" horiz-adv-x="1904" 
d="M119 0v1482h197v-1304h521v1304h193v-1304h521v1304h201v-1299l123 -2v-501h-196v320h-1560z" />
    <glyph glyph-name="afii10044" unicode="&#x42a;" horiz-adv-x="1603" 
d="M13 1299l-0.000976562 182.999h668v-612h411c66 0 125.167 -12.333 177.5 -37s96.833 -57.5 133.5 -98.5s65 -87.167 85 -138.5s30 -103.666 30 -156.999s-8.5 -106 -25.5 -158s-42.833 -98.833 -77.5 -140.5s-78.167 -75.5 -130.5 -101.5s-114.166 -39 -185.499 -39
h-615v1299h-471zM680.999 180.999l377 -0.00292969c78 0 141.667 22.833 191 68.5s74 108.834 74 189.501c0 40 -6.83301 75.333 -20.5 106s-32.667 56.834 -57 78.501s-53 37.834 -86 48.501s-69.167 16 -108.5 16h-370v-507z" />
    <glyph glyph-name="afii10045" unicode="&#x42b;" horiz-adv-x="1660" 
d="M129 0l-0.000976562 1482h198v-612h410c66 0 125.167 -12.333 177.5 -37s97 -57.5 134 -98.5s65.333 -87.167 85 -138.5s29.5 -103.666 29.5 -156.999s-8.5 -106 -25.5 -158s-42.667 -98.833 -77 -140.5s-77.666 -75.5 -129.999 -101.5s-114.5 -39 -186.5 -39h-615z
M326.999 180.999l377.001 -0.00292969c77.333 0 140.666 22.833 189.999 68.5s74 108.834 74 189.501c0 40 -6.83301 75.333 -20.5 106s-32.667 56.834 -57 78.501s-53 37.834 -86 48.501s-68.833 16 -107.5 16h-370v-507zM1334 -0.00390625v1482h197v-1482h-197z" />
    <glyph glyph-name="afii10046" unicode="&#x42c;" horiz-adv-x="1221" 
d="M129 0l-0.000976562 1482h198v-612h410c66 0 125.167 -12.333 177.5 -37s97 -57.5 134 -98.5s65.333 -87.167 85 -138.5s29.5 -103.666 29.5 -156.999s-8.5 -106 -25.5 -158s-42.667 -98.833 -77 -140.5s-77.666 -75.5 -129.999 -101.5s-114.5 -39 -186.5 -39h-615z
M326.999 180.999l377.001 -0.00292969c77.333 0 140.666 22.833 189.999 68.5s74 108.834 74 189.501c0 40 -6.83301 75.333 -20.5 106s-32.667 56.834 -57 78.501s-53 37.834 -86 48.501s-68.833 16 -107.5 16h-370v-507z" />
    <glyph glyph-name="afii10047" unicode="&#x42d;" horiz-adv-x="1126" 
d="M54 119l94.002 152.001c46 -37.333 98.167 -63.833 156.5 -79.5s115.5 -23.5 171.5 -23.5c44 0 86.167 6.5 126.5 19.5s75.5 33 105.5 60s53.833 62.333 71.5 106s26.5 95.5 26.5 155.5v168h-561v177h561v118c0 123.333 -29 211.166 -87 263.499s-136.333 78.5 -235 78.5
c-56 0 -111.333 -9.33301 -166 -28s-101.334 -44.334 -140.001 -77.001l-98 154c56 46 118.667 79.667 188 101s144 32 224 32c79.333 0 150.5 -9.66699 213.5 -29s116.667 -48.666 161 -87.999s78.666 -89.5 102.999 -150.5s36.5 -132.833 36.5 -215.5v-542
c0 -76 -14.167 -144.167 -42.5 -204.5s-67 -111.333 -116 -153s-106 -73.5 -171 -95.5s-133.5 -33 -205.5 -33c-86 0 -165.5 12.833 -238.5 38.5s-132.5 57.5 -178.5 95.5z" />
    <glyph glyph-name="afii10048" unicode="&#x42e;" horiz-adv-x="1662" 
d="M131 0l0.00195312 1482h198v-641h207v154c0 74.667 11 143 33 205s54.5 114.833 97.5 158.5s95.667 77.5 158 101.5s133.5 36 213.5 36c79.333 0 150.166 -12 212.499 -36s115.333 -57.833 159 -101.5s77 -96.334 100 -158.001s34.5 -130.167 34.5 -205.5v-511
c0 -76 -11.833 -144.833 -35.5 -206.5s-57.334 -114 -101.001 -157s-96.667 -76.333 -159 -100s-132.5 -35.5 -210.5 -35.5c-161.333 0 -285.333 44.833 -372 134.5s-130 211.167 -130 364.5v176h-207v-660h-198zM735.002 507.001c0 -122 27.332 -209 81.999 -261
s128.334 -78 221.001 -78c94.667 0 169.334 26 224.001 78s82 139 82 261v465c0 120.667 -27.333 207.834 -82 261.501s-129.334 80.5 -224.001 80.5c-94 0 -168 -26.833 -222 -80.5s-81 -140.834 -81 -261.501v-465z" />
    <glyph glyph-name="afii10049" unicode="&#x42f;" horiz-adv-x="1281" 
d="M92 0l121 427.999c19.333 60.667 39.666 111.167 60.999 151.5s55.333 72.166 102 95.499c-86 26 -148.333 70.833 -187 134.5s-58 139.834 -58 228.501c0 60.667 9.33301 117.834 28 171.501s46.334 100.5 83.001 140.5s81.167 72 133.5 96s112.5 36 180.5 36h612v-1482
h-198v638h-295c-24.667 -1.33301 -49.667 -5.5 -75 -12.5s-49.666 -19 -72.999 -36s-44.833 -40.167 -64.5 -69.5s-36.834 -67.333 -51.501 -114l-116 -406h-203zM320 1038c0 -84.667 26.333 -144.833 79 -180.5s119.667 -53.5 201 -53.5h370v497h-375
c-88.667 0 -156.667 -22.5 -204 -67.5s-71 -110.167 -71 -195.5z" />
    <glyph glyph-name="afii10065" unicode="&#x430;" horiz-adv-x="1065" 
d="M82 312c0 58.667 13.335 108.166 40.002 148.499s59.5 72.833 98.5 97.5s81.167 42.5 126.5 53.5s85.666 16.5 120.999 16.5h312v82c0 74 -20.667 125.667 -62 155s-100.666 44 -177.999 44c-37.333 0 -83 -5.16699 -137 -15.5s-108.333 -37.833 -163 -82.5l-90 139
c68.667 53.333 138.167 87.833 208.5 103.5s135.5 23.5 195.5 23.5c139.333 0 242.5 -30.333 309.5 -91s100.5 -154 100.5 -280v-706h-162l-22 99l-6 4c-84.667 -47.333 -153.834 -77.666 -207.501 -90.999s-102.167 -20 -145.5 -20c-102.667 0 -184.834 28.667 -246.501 86
s-92.5 135.333 -92.5 234zM271.002 311.999c0 -52 17.5 -90.667 52.5 -116s79.833 -38 134.5 -38c27.333 0 55.666 3.83301 84.999 11.5s58 17.167 86 28.5s55 23.833 81 37.5l70 37.5v203h-281c-23.333 0 -48.166 -2 -74.499 -6s-51 -11.167 -74 -21.5
s-42 -26.833 -57 -49.5s-22.5 -51.667 -22.5 -87z" />
    <glyph glyph-name="afii10066" unicode="&#x431;" horiz-adv-x="1087" 
d="M103 387l0.00195312 304.997c0 61.333 3.33301 124 10 188s19.167 125.167 37.5 183.5s44.666 112.5 78.999 162.5s79.5 92 135.5 126c46.667 28.667 97 54 151 76l157 62c17.333 6.66699 32 12.667 44 18l37.5 16.5c13 5.66699 27 12.167 42 19.5s34.167 16 57.5 26
l67 -155l-103.5 -44.5c-26.333 -11 -48.5 -19.833 -66.5 -26.5l-48.5 -18c-14.333 -5.33301 -30.5 -12.333 -48.5 -21c-60 -26 -110.167 -49.667 -150.5 -71s-74.166 -45.666 -101.499 -72.999s-48.166 -59.166 -62.499 -95.499s-25.5 -81.833 -33.5 -136.5l4 -8
c18.667 18.667 40.167 34.334 64.5 47.001s48.666 23 72.999 31s47.5 13.5 69.5 16.5s41 4.5 57 4.5c135.333 0 237.666 -34.5 306.999 -103.5s104 -165.167 104 -288.5v-241c0 -61.333 -11.833 -116.833 -35.5 -166.5s-55.834 -91.667 -96.501 -126
s-87.667 -60.333 -141 -78s-110 -26.5 -170 -26.5c-138 0 -245.667 35 -323 105s-116 167.333 -116 292zM288.002 412.997c0 -46.667 6.83301 -85.832 20.5 -117.499s32 -57.667 55 -78s50.167 -34.666 81.5 -42.999s65 -12.5 101 -12.5c32.667 0 64.5 4.16699 95.5 12.5
s58.333 22.666 82 42.999s42.667 46.5 57 78.5s21.5 71 21.5 117v182c0 93.333 -22.833 158.666 -68.5 195.999s-108.167 56 -187.5 56c-30 0 -60 -5 -90 -15s-57.667 -25.333 -83 -46s-45.833 -47.5 -61.5 -80.5s-23.5 -72.5 -23.5 -118.5v-174z" />
    <glyph glyph-name="afii10067" unicode="&#x432;" horiz-adv-x="1036" 
d="M94 0v1065h515c56 0 104 -8 144 -24s73.167 -37.5 99.5 -64.5s46 -58 59 -93s19.5 -72.167 19.5 -111.5c0 -38.667 -10.167 -78.167 -30.5 -118.5s-52.5 -72.833 -96.5 -97.5c53.333 -24 91 -58.667 113 -104s33 -88.666 33 -129.999c0 -38 -7.16699 -76.5 -21.5 -115.5
s-35.5 -73.833 -63.5 -104.5s-63 -55.334 -105 -74.001s-91 -28 -147 -28h-519zM281 164h300c64 0 110.333 13.833 139 41.5s43 66.5 43 116.5c0 48 -16.667 85.333 -50 112s-71 40 -113 40h-319v-310zM281 638l310 -0.000976562c48 0 86 11.333 114 34s42 55.334 42 98.001
c0 46 -17.333 79.333 -52 100s-72.667 31 -114 31h-300v-263z" />
    <glyph glyph-name="afii10068" unicode="&#x433;" horiz-adv-x="859" 
d="M99 0v1067h759v-166h-572v-901h-187z" />
    <glyph glyph-name="afii10069" unicode="&#x434;" horiz-adv-x="1225" 
d="M30 154l73 6.00195c26 17.333 48.167 37.666 66.5 60.999s34 52.5 47 87.5s23.167 77.167 30.5 126.5s13.333 108.666 18 177.999l25 452h770v-903l89 -2v-433h-175v273h-769v-273h-175v427zM346 162.002h530v739h-424l-13 -281c-6 -112 -15 -204.333 -27 -277
s-34 -133 -66 -181z" />
    <glyph glyph-name="afii10070" unicode="&#x435;" horiz-adv-x="1038" 
d="M101 378l-0.00195312 282c0 63.333 10.833 120.666 32.5 171.999s51.334 95 89.001 131s82.834 63.667 135.501 83s110.334 29 173.001 29c63.333 0 121.5 -9.16699 174.5 -27.5s98.5 -44.833 136.5 -79.5s67.333 -76.667 88 -126s31 -105 31 -167v-211h-675v-70
c0 -42.667 7.16699 -79 21.5 -109s34 -54.5 59 -73.5s53.667 -32.667 86 -41s65.5 -12.5 99.5 -12.5c36 0 77.833 7 125.5 21s93.5 41.667 137.5 83l116 -127c-54.667 -56 -115.334 -94.167 -182.001 -114.5s-133.667 -30.5 -201 -30.5c-60 0 -117.167 8.16699 -171.5 24.5
s-102 40.5 -143 72.5s-73.333 72.333 -97 121s-35.5 105.334 -35.5 170.001zM287.998 615h486v41c0 44 -6.5 81.833 -19.5 113.5s-30.5 58 -52.5 79s-47.667 36 -77 45s-60.666 13.5 -93.999 13.5c-32.667 0 -63.334 -4.83301 -92.001 -14.5s-54.5 -24.667 -77.5 -45
s-41 -46 -54 -77s-19.5 -66.833 -19.5 -107.5v-48z" />
    <glyph glyph-name="afii10072" unicode="&#x436;" horiz-adv-x="1506" 
d="M54 0l106.001 346.001c8 26 16.167 50.5 24.5 73.5s19 43.667 32 62s28.5 34 46.5 47s39.333 22.167 64 27.5c-40 11.333 -72.333 34.666 -97 69.999s-44.667 79 -60 131l-96 310h188l95 -308c10 -34 22.5 -60.833 37.5 -80.5s31.5 -34.334 49.5 -44.001
s37 -15.667 57 -18s40.333 -3.5 61 -3.5h101v454h182v-454h101c20 0 40 1.16699 60 3.5s39 8.33301 57 18s34.167 24.334 48.5 44.001s27.5 46.5 39.5 80.5l94 308h189l-96 -310c-16 -52 -36.167 -95.5 -60.5 -130.5s-56.833 -58.5 -97.5 -70.5
c49.333 -10.667 85.833 -35 109.5 -73s43.167 -83.667 58.5 -137l105 -346h-193l-84 295c-10 34 -21.833 61.333 -35.5 82s-29 36.5 -46 47.5s-36 18.333 -57 22s-43.5 5.5 -67.5 5.5h-125v-452h-182v452h-125c-24.667 0 -47.334 -1.83301 -68.001 -5.5s-39.667 -11 -57 -22
s-32.833 -26.833 -46.5 -47.5s-25.5 -48 -35.5 -82l-83 -295h-194z" />
    <glyph glyph-name="afii10073" unicode="&#x437;" horiz-adv-x="911" 
d="M28 125l112 126.995c36.667 -32.667 80.667 -57.167 132 -73.5s97.666 -24.5 138.999 -24.5c46 0 84.333 4.83301 115 14.5s55.667 22 75 37s33.333 32.167 42 51.5s13 39 13 59c0 50.667 -19 88.667 -57 114s-85.667 38 -143 38h-146v154h150
c57.333 0 101.666 14 132.999 42s47 62.667 47 104c0 47.333 -20.5 82 -61.5 104s-88.167 33 -141.5 33c-41.333 0 -84.833 -6.16699 -130.5 -18.5s-86.834 -34.833 -123.501 -67.5l-114 127c50.667 47.333 109.5 81 176.5 101s134.167 30 201.5 30
c62 0 116.167 -7.83301 162.5 -23.5s85 -37.167 116 -64.5s54.333 -58.5 70 -93.5s23.5 -72.833 23.5 -113.5c0 -16 -1.33301 -34.167 -4 -54.5s-9.5 -41.333 -20.5 -63s-26.167 -42.167 -45.5 -61.5s-45.333 -35.666 -78 -48.999c32.667 -12 59.834 -28 81.501 -48
s38.5 -41.667 50.5 -65s20.333 -45.666 25 -66.999s7 -40 7 -56c0 -47.333 -8.83301 -90.666 -26.5 -129.999s-43.667 -73.666 -78 -102.999s-77.166 -52.166 -128.499 -68.499s-111.666 -24.5 -180.999 -24.5c-68.667 0 -137 9.5 -205 28.5s-130.667 53.833 -188 104.5z
" />
    <glyph glyph-name="afii10074" unicode="&#x438;" horiz-adv-x="1098" 
d="M107 0v1065h188v-768h8l159 243l355 525h174v-1065h-189v770h-10l-162 -247l-353 -523h-170z" />
    <glyph glyph-name="afii10075" unicode="&#x439;" horiz-adv-x="1098" 
d="M107 0v1065h188v-768h8l159 243l355 525h174v-1065h-189v770h-10l-162 -247l-353 -523h-170zM243 1498h156.999c1.33301 -14 5.5 -28.833 12.5 -44.5s17 -30.334 30 -44.001s29 -24.834 48 -33.501s39.5 -13 61.5 -13c26 0 48.667 4.33301 68 13s35.5 19.834 48.5 33.501
s22.833 28.334 29.5 44.001s10 30.5 10 44.5h152c-2.66699 -28.667 -9.16699 -59 -19.5 -91s-27.166 -61.5 -50.499 -88.5s-54.166 -50 -92.499 -69s-86.833 -28.5 -145.5 -28.5s-107.667 9.5 -147 28.5s-70.833 42 -94.5 69s-40.834 56.5 -51.501 88.5s-16 62.333 -16 91z
" />
    <glyph glyph-name="afii10076" unicode="&#x43a;" horiz-adv-x="1040" 
d="M107 0l-0.000976562 1067h183v-454h181c20.667 0 41 1.16699 61 3.5s38.5 8.33301 55.5 18s33 24.334 48 44.001s28.167 46.5 39.5 80.5l103 308h190l-106 -310c-17.333 -52 -37.833 -95.5 -61.5 -130.5s-55.167 -58.5 -94.5 -70.5
c48.667 -10.667 84.334 -35 107.001 -73s42.667 -83.667 60 -137l114 -346h-193l-93 295c-10.667 34 -23 61.333 -37 82s-29.667 36.5 -47 47.5s-36 18.333 -56 22s-42 5.5 -66 5.5h-205v-452h-183z" />
    <glyph glyph-name="afii10077" unicode="&#x43b;" horiz-adv-x="1110" 
d="M6 119c40 18.667 75.333 38.001 106 58.001s55.5 47.5 74.5 82.5s33.167 81.167 42.5 138.5s14 132.666 14 225.999v441h740v-1065h-185v901h-372v-288c0 -110.667 -8.66699 -202.5 -26 -275.5s-41 -133.167 -71 -180.5s-66 -85.333 -108 -114s-88.333 -53 -139 -73z" />
    <glyph glyph-name="afii10078" unicode="&#x43c;" horiz-adv-x="1303" 
d="M111 0v1065h173l215 -405l148 -288l153 286l224 407h168v-1065h-188v673h-11l-115 -219l-170 -302h-127l-140 252l-133 254h-9v-658h-188z" />
    <glyph glyph-name="afii10079" unicode="&#x43d;" horiz-adv-x="1096" 
d="M109 0v1065h186v-443h507v443h187v-1065h-187v454h-507v-454h-186z" />
    <glyph glyph-name="afii10080" unicode="&#x43e;" horiz-adv-x="1085" 
d="M103 376l-0.000976562 310c0 61.333 11.833 116.166 35.5 164.499s55.334 89.333 95.001 123s86.334 59.334 140.001 77.001s110.5 26.5 170.5 26.5c64 0 123 -8.83301 177 -26.5s100.833 -43.334 140.5 -77.001s70.167 -74.667 91.5 -123s32 -103.166 32 -164.499v-310
c0 -61.333 -11.833 -116 -35.5 -164s-55.834 -88.5 -96.501 -121.5s-87.667 -58 -141 -75s-110 -25.5 -170 -25.5c-62 0 -119.5 8.5 -172.5 25.5s-99.167 42 -138.5 75s-70.5 73.5 -93.5 121.5s-34.5 102.667 -34.5 164zM287.999 413
c0 -46.667 6.83301 -85.835 20.5 -117.502s32 -57.667 55 -78s50.167 -34.666 81.5 -42.999s65 -12.5 101 -12.5c28.667 0 58 4.16699 88 12.5s57.667 22.666 83 42.999s45.833 46.5 61.5 78.5s23.5 71 23.5 117v241c0 46 -7.83301 85 -23.5 117s-36.167 58.167 -61.5 78.5
s-53 34.666 -83 42.999s-59.333 12.5 -88 12.5c-30 0 -60 -4.16699 -90 -12.5s-57.667 -22.666 -83 -42.999s-45.833 -46.666 -61.5 -78.999s-23.5 -71.166 -23.5 -116.499v-241z" />
    <glyph glyph-name="afii10081" unicode="&#x43f;" horiz-adv-x="1085" 
d="M105 0v1065h878v-1065h-185v901h-510v-901h-183z" />
    <glyph glyph-name="afii10082" unicode="&#x440;" horiz-adv-x="1081" 
d="M107 -426v1491h162l21 -113c84.667 50.667 152.5 83.834 203.5 99.501s95.833 23.5 134.5 23.5c104.667 0 190.334 -30.833 257.001 -92.5s100 -157.5 100 -287.5v-327c0 -122 -33.333 -216 -100 -282s-158 -99 -274 -99c-38.667 0 -83.834 3.83301 -135.501 11.5
s-113.5 26.167 -185.5 55.5v-480h-183zM290 227.999c65.333 -27.333 121.164 -45.166 167.497 -53.499s91.5 -12.5 135.5 -12.5c28.667 0 55.667 3.16699 81 9.5s47.333 17.666 66 33.999s33.334 38.5 44.001 66.5s16 62.667 16 104v305c0 82 -17.167 138.5 -51.5 169.5
s-80.166 46.5 -137.499 46.5c-20 0 -43.667 -3.5 -71 -10.5s-55.666 -16.333 -84.999 -28s-58.5 -25 -87.5 -40s-54.833 -30.5 -77.5 -46.5v-544z" />
    <glyph glyph-name="afii10083" unicode="&#x441;" horiz-adv-x="921" 
d="M101 368l-0.000976562 315.996c0 60 11.5 114.5 34.5 163.5s53.833 90.667 92.5 125s83.5 60.333 134.5 78s104.5 26.5 160.5 26.5c61.333 0 123.833 -8.16699 187.5 -24.5s120.834 -51.833 171.501 -106.5l-110 -140c-48 44.667 -92.167 72.334 -132.5 83.001
s-76.5 16 -108.5 16c-27.333 0 -55.666 -4.16699 -84.999 -12.5s-55.833 -22.666 -79.5 -42.999s-43 -46.666 -58 -78.999s-22.5 -71.166 -22.5 -116.499v-241c0 -46.667 7.16699 -85.834 21.5 -117.501s33 -57.667 56 -78s49.167 -34.666 78.5 -42.999s59 -12.5 89 -12.5
c32 0 70.5 6.33301 115.5 19s83.833 35.667 116.5 69l115 -129c-50.667 -50.667 -106.334 -85.167 -167.001 -103.5s-122 -27.5 -184 -27.5c-62.667 0 -120 9.16699 -172 27.5s-96.833 44 -134.5 77s-67 72.833 -88 119.5s-31.5 98 -31.5 154z" />
    <glyph glyph-name="afii10084" unicode="&#x442;" horiz-adv-x="896" 
d="M24 901v166h852v-166h-332v-901h-191v901h-329z" />
    <glyph glyph-name="afii10085" unicode="&#x443;" horiz-adv-x="1005" 
d="M21 1067h201l129 -470l117 -425h8l150 425l162 470h197l-544 -1500h-198l157 452l-90 75z" />
    <glyph glyph-name="afii10086" unicode="&#x444;" horiz-adv-x="1354" 
d="M101 452l-0.000976562 132.997c0 62.667 9.83301 123.5 29.5 182.5s49.334 111 89.001 156s90 81.167 151 108.5s133.167 42.333 216.5 45v405h183v-405c81.333 -2.66699 152.5 -16.5 213.5 -41.5s111.667 -58.833 152 -101.5s70.5 -92.167 90.5 -148.5
s30 -115.833 30 -178.5v-155c0 -59.333 -10 -115.666 -30 -168.999s-50.167 -101.166 -90.5 -143.499s-91 -77.166 -152 -104.499s-132.167 -43.333 -213.5 -48v-415h-183v415c-87.333 4.66699 -161.833 20.334 -223.5 47.001s-112 61 -151 103s-67.333 90.167 -85 144.5
s-26.5 111.166 -26.5 170.499zM285.999 483.997c0 -41.333 4.33301 -81.002 13 -119.002s24.334 -71.833 47.001 -101.5s53.5 -54 92.5 -73s88.5 -31.167 148.5 -36.5v755c-53.333 0 -98.833 -9.5 -136.5 -28.5s-68.834 -43.667 -93.501 -74s-42.667 -65.166 -54 -104.499
s-17 -79.666 -17 -120.999v-97zM769.999 153.995c56 0 103.332 9.83496 141.999 29.502s69.834 44.5 93.501 74.5s40.5 64.667 50.5 104s15 80 15 122v97c0 41.333 -5.5 81.666 -16.5 120.999s-28.5 74.166 -52.5 104.499s-55 55 -93 74s-84.333 28.5 -139 28.5v-755z" />
    <glyph glyph-name="afii10087" unicode="&#x445;" horiz-adv-x="932" 
d="M-2 0l361 546l-340 521h221l222 -372l226 372h219l-343 -517l359 -550h-224l-239 400l-245 -400h-217z" />
    <glyph glyph-name="afii10088" unicode="&#x446;" horiz-adv-x="1117" 
d="M125 0v1067h181v-903h490v903h176v-905l88 -2v-433h-174v273h-761z" />
    <glyph glyph-name="afii10089" unicode="&#x447;" horiz-adv-x="1034" 
d="M60 740v328.999h185v-306c0 -83.333 18 -141.333 54 -174s81.333 -49 136 -49c44 0 94.667 10.667 152 32s113.333 50 168 86v411h185v-1069h-185v476c-41.333 -24.667 -79.333 -44.5 -114 -59.5s-66.334 -26.833 -95.001 -35.5s-54.667 -14.5 -78 -17.5
s-44.666 -4.5 -63.999 -4.5c-116 0 -202.333 32.833 -259 98.5s-85 159.834 -85 282.501z" />
    <glyph glyph-name="afii10090" unicode="&#x448;" horiz-adv-x="1543" 
d="M119 0v1065h187v-899h371v899h183v-899h375v899h185v-1065h-1301z" />
    <glyph glyph-name="afii10091" unicode="&#x449;" horiz-adv-x="1549" 
d="M107 0v1065h188v-901h372v901h182v-901h374v901h185v-905h88v-435h-173v275h-1216z" />
    <glyph glyph-name="afii10092" unicode="&#x44a;" horiz-adv-x="1255" 
d="M15 901l0.000976562 164h551v-413h281c60.667 0 114.167 -8.33301 160.5 -25s85 -39.167 116 -67.5s54.333 -62.333 70 -102s23.5 -82.5 23.5 -128.5c0 -98.667 -31.833 -178.167 -95.5 -238.5s-155.834 -90.5 -276.501 -90.5h-465v901h-365zM564.001 164
l277 -0.000976562c61.333 0 108.833 13.833 142.5 41.5s50.5 68.834 50.5 123.501c0 39.333 -15 76 -45 110s-79.333 51 -148 51h-277v-326z" />
    <glyph glyph-name="afii10093" unicode="&#x44b;" horiz-adv-x="1334" 
d="M107 0l0.000976562 1067h186v-415h281c60.667 0 114.167 -8.33301 160.5 -25s85 -39.167 116 -67.5s54.333 -62.333 70 -102s23.5 -82.5 23.5 -128.5c0 -98.667 -31.833 -178.167 -95.5 -238.5s-155.834 -90.5 -276.501 -90.5h-465zM290.001 164l278 -0.000976562
c61.333 0 108.833 13.833 142.5 41.5s50.5 68.834 50.5 123.501c0 39.333 -15 76 -45 110s-79.333 51 -148 51h-278v-326zM1049 -0.000976562v1065h178v-1065h-178z" />
    <glyph glyph-name="afii10094" unicode="&#x44c;" horiz-adv-x="967" 
d="M107 0l0.000976562 1067h186v-415h281c60.667 0 114.167 -8.33301 160.5 -25s85 -39.167 116 -67.5s54.333 -62.333 70 -102s23.5 -82.5 23.5 -128.5c0 -98.667 -31.833 -178.167 -95.5 -238.5s-155.834 -90.5 -276.501 -90.5h-465zM290.001 164l278 -0.000976562
c61.333 0 108.833 13.833 142.5 41.5s50.5 68.834 50.5 123.501c0 39.333 -15 76 -45 110s-79.333 51 -148 51h-278v-326z" />
    <glyph glyph-name="afii10095" unicode="&#x44d;" horiz-adv-x="921" 
d="M39 121l109 138.999c23.333 -22.667 46.166 -40.5 68.499 -53.5s43.5 -22.667 63.5 -29s39.167 -10.5 57.5 -12.5s35.833 -3 52.5 -3c26.667 0 55.167 3.83301 85.5 11.5s57.5 21.167 81.5 40.5s44.333 44.833 61 76.5s25 70.167 25 115.5v68h-411v156h411v24
c0 93.333 -20.667 158.5 -62 195.5s-97.333 55.5 -168 55.5c-16.667 0 -35.167 -1.33301 -55.5 -4s-41.333 -7.5 -63 -14.5s-42.334 -16.333 -62.001 -28s-38.5 -25.5 -56.5 -41.5l-114 129c50.667 50.667 109.334 85.167 176.001 103.5s130.667 27.5 192 27.5
c133.333 0 232.833 -35.167 298.5 -105.5s98.5 -161.166 98.5 -272.499v-316c0 -60 -10.667 -114.5 -32 -163.5s-51.333 -90.667 -90 -125s-84.167 -60.333 -136.5 -78s-109.166 -26.5 -170.499 -26.5s-124 8.16699 -188 24.5s-121 51.833 -171 106.5z" />
    <glyph glyph-name="afii10096" unicode="&#x44e;" horiz-adv-x="1371" 
d="M97 0l0.00195312 1065h184v-445h158v66c0 61.333 10.333 116.166 31 164.499s50 89.333 88 123s82.5 59.334 133.5 77.001s106.5 26.5 166.5 26.5c130 0 232.5 -34.5 307.5 -103.5s112.5 -164.833 112.5 -287.5v-310c0 -61.333 -10.833 -116 -32.5 -164
s-51.5 -88.5 -89.5 -121.5s-82.5 -58 -133.5 -75s-106.5 -25.5 -166.5 -25.5c-62 0 -118.333 8.5 -169 25.5s-94.334 42 -131.001 75s-65.334 73.5 -86.001 121.5s-31 102.667 -31 164v78h-158v-454h-184zM624.002 413c0 -93.333 21.167 -158.501 63.5 -195.501
s99.833 -55.5 172.5 -55.5c28.667 0 57 4.16699 85 12.5s53.167 22.666 75.5 42.999s40.166 46.5 53.499 78.5s20 71 20 117v241c0 46 -6.66699 85 -20 117s-31.166 58.167 -53.499 78.5s-47.5 34.666 -75.5 42.999s-56.333 12.5 -85 12.5c-30 0 -59 -4.16699 -87 -12.5
s-53 -22.666 -75 -42.999s-39.833 -46.666 -53.5 -78.999s-20.5 -71.166 -20.5 -116.499v-241z" />
    <glyph glyph-name="afii10097" unicode="&#x44f;" horiz-adv-x="1026" 
d="M64 0l69.001 288c11.333 42.667 27.5 82.334 48.5 119.001s52.167 61.667 93.5 75c-60 18.667 -104.667 51.5 -134 98.5s-44 98.5 -44 154.5c0 46 7.83301 89.167 23.5 129.5s37.834 75.166 66.501 104.499s63.5 52.666 104.5 69.999s86.5 26 136.5 26h503v-1065h-184
v441h-230c-46.667 0 -87.834 -11.167 -123.501 -33.5s-60.834 -65.166 -75.501 -128.499l-62 -279h-192zM273.001 740c0 -54.667 17.5 -92.167 52.5 -112.5s78.5 -30.5 130.5 -30.5h291v304h-298c-46 0 -86.833 -12.833 -122.5 -38.5s-53.5 -66.5 -53.5 -122.5z" />
    <glyph glyph-name="afii10071" unicode="&#x451;" horiz-adv-x="1038" 
d="M101 378l-0.00195312 282c0 63.333 10.833 120.666 32.5 171.999s51.334 95 89.001 131s82.834 63.667 135.501 83s110.334 29 173.001 29c63.333 0 121.5 -9.16699 174.5 -27.5s98.5 -44.833 136.5 -79.5s67.333 -76.667 88 -126s31 -105 31 -167v-211h-675v-70
c0 -42.667 7.16699 -79 21.5 -109s34 -54.5 59 -73.5s53.667 -32.667 86 -41s65.5 -12.5 99.5 -12.5c36 0 77.833 7 125.5 21s93.5 41.667 137.5 83l116 -127c-54.667 -56 -115.334 -94.167 -182.001 -114.5s-133.667 -30.5 -201 -30.5c-60 0 -117.167 8.16699 -171.5 24.5
s-102 40.5 -143 72.5s-73.333 72.333 -97 121s-35.5 105.334 -35.5 170.001zM225.998 1389c0 28.667 10 53 30 73s44.333 30 73 30s53.5 -10 74.5 -30s31.5 -44.333 31.5 -73s-10.5 -53.334 -31.5 -74.001s-45.833 -31 -74.5 -31s-53 10.333 -73 31s-30 45.334 -30 74.001z
M287.998 615h486v41c0 44 -6.5 81.833 -19.5 113.5s-30.5 58 -52.5 79s-47.667 36 -77 45s-60.666 13.5 -93.999 13.5c-32.667 0 -63.334 -4.83301 -92.001 -14.5s-54.5 -24.667 -77.5 -45s-41 -46 -54 -77s-19.5 -66.833 -19.5 -107.5v-48zM644.998 1389
c0 28.667 10.5 53 31.5 73s45.833 30 74.5 30s53.334 -10 74.001 -30s31 -44.333 31 -73s-10.333 -53.334 -31 -74.001s-45.334 -31 -74.001 -31s-53.5 10.333 -74.5 31s-31.5 45.334 -31.5 74.001z" />
    <glyph glyph-name="afii10099" unicode="&#x452;" horiz-adv-x="1067" 
d="M2 1230l-0.00195312 147h99v162h185v-162h469v-147h-469v-284c86 56 156.333 91.833 211 107.5s101 23.5 139 23.5c116.667 0 203.334 -32.833 260.001 -98.5s85 -159.5 85 -281.5v-482c0 -67.333 -12 -125.5 -36 -174.5s-56.167 -89.167 -96.5 -120.5
s-87.166 -54.5 -140.499 -69.5s-110 -22.5 -170 -22.5v172c34 0 66.833 3.5 98.5 10.5s59.334 20 83.001 39s42.667 43.833 57 74.5s21.5 68.667 21.5 114l-2 435c0 83.333 -18 141.5 -54 174.5s-81 49.5 -135 49.5c-44 0 -94.833 -10.667 -152.5 -32
s-113.834 -50.333 -168.501 -87v-778h-185v1230h-99z" />
    <glyph glyph-name="afii10100" unicode="&#x453;" horiz-adv-x="859" 
d="M99 0v1067h759v-166h-572v-901h-187zM353 1227l154 382l174 -54l-215 -371z" />
    <glyph glyph-name="afii10101" unicode="&#x454;" horiz-adv-x="921" 
d="M101 368v315.996c0 60 10.833 114.5 32.5 163.5s51 90.667 88 125s81 60.333 132 78s106.167 26.5 165.5 26.5c61.333 0 123.833 -8.16699 187.5 -24.5s120.834 -51.833 171.501 -106.5l-110 -140c-48 44.667 -92.333 72.334 -133 83.001s-76.667 16 -108 16
s-61.333 -4.16699 -90 -12.5s-54.167 -22.666 -76.5 -42.999s-40.333 -46.666 -54 -78.999s-20.5 -71.166 -20.5 -116.499v-39h379v-155h-379v-47c0 -46.667 6.33301 -85.834 19 -117.501s30 -57.667 52 -78s48 -34.666 78 -42.999s62 -12.5 96 -12.5
c32 0 70.5 6.33301 115.5 19s83.833 35.667 116.5 69l115 -129c-50.667 -50.667 -106.334 -85.167 -167.001 -103.5s-122 -27.5 -184 -27.5c-67.333 0 -127.5 9.16699 -180.5 27.5s-97.667 44 -134 77s-64 72.833 -83 119.5s-28.5 98 -28.5 154z" />
    <glyph glyph-name="afii10102" unicode="&#x455;" horiz-adv-x="975" 
d="M60 127l101.998 134.996c53.333 -44 107.666 -74.333 162.999 -91s116 -25 182 -25c26 0 52.333 3.33301 79 10s50.334 16.5 71.001 29.5s37.5 29.833 50.5 50.5s19.5 45.334 19.5 74.001c0 46 -16.5 79 -49.5 99s-74.833 34.333 -125.5 43
c-54.667 8 -108.667 17.5 -162 28.5s-101.5 27.333 -144.5 49s-78.167 50.334 -105.5 86.001s-41 82.834 -41 141.501c0 49.333 10.167 93.833 30.5 133.5s48.333 73.167 84 100.5s76.667 48.5 123 63.5s96.833 22.5 151.5 22.5c80.667 0 151.834 -8.16699 213.501 -24.5
s121.167 -45.166 178.5 -86.499l-92 -139c-50.667 32 -99.667 54.5 -147 67.5s-98.333 19.5 -153 19.5c-62.667 0 -113.5 -14.833 -152.5 -44.5s-58.5 -66.5 -58.5 -110.5c0 -36.667 15.833 -64.5 47.5 -83.5s71 -33.833 118 -44.5s97.833 -20.667 152.5 -30
s105.667 -24.666 153 -45.999s86.833 -51.5 118.5 -90.5s47.5 -91.833 47.5 -158.5c0 -50.667 -10.833 -95.334 -32.5 -134.001s-51.167 -72 -88.5 -100s-81.666 -49.167 -132.999 -63.5s-108 -21.5 -170 -21.5c-74 0 -146.167 9.66699 -216.5 29s-141.5 56.333 -213.5 111z
" />
    <glyph glyph-name="afii10103" unicode="&#x456;" horiz-adv-x="487" 
d="M129 1389c0 31.333 11.333 58.333 34 81s49.334 34 80.001 34c31.333 0 58.5 -11.333 81.5 -34s34.5 -49.667 34.5 -81s-11.5 -58.5 -34.5 -81.5s-50.167 -34.5 -81.5 -34.5c-30.667 0 -57.334 11.5 -80.001 34.5s-34 50.167 -34 81.5zM152 0v1067h183v-1067h-183z" />
    <glyph glyph-name="afii10104" unicode="&#x457;" horiz-adv-x="513" 
d="M-54 1374c0 29.333 10 53.833 30 73.5s44.333 29.5 73 29.5s53.334 -9.83301 74.001 -29.5s31 -44.167 31 -73.5c0 -28.667 -10.333 -53.5 -31 -74.5s-45.334 -31.5 -74.001 -31.5s-53 10.5 -73 31.5s-30 45.833 -30 74.5zM166 0v1067h183v-1067h-183zM365 1374
c0 29.333 10.499 53.833 31.499 73.5s45.833 29.5 74.5 29.5s53.334 -9.83301 74.001 -29.5s31 -44.167 31 -73.5c0 -28.667 -10.5 -53.5 -31.5 -74.5s-45.5 -31.5 -73.5 -31.5c-28.667 0 -53.5 10.5 -74.5 31.5s-31.5 45.833 -31.5 74.5z" />
    <glyph glyph-name="afii10105" unicode="&#x458;" horiz-adv-x="521" 
d="M-39 -271h84c57.333 0 96.666 12.667 117.999 38s32 74.333 32 147v1151h183v-1176c0 -119.333 -27.167 -203.833 -81.5 -253.5s-131.166 -74.5 -230.499 -74.5h-105v168zM178 1389c0 30 10.333 55.333 31 76s46.334 31 77.001 31c30 0 55.5 -10.333 76.5 -31
s31.5 -46 31.5 -76s-10.5 -55.667 -31.5 -77s-46.5 -32 -76.5 -32c-30.667 0 -56.334 10.667 -77.001 32s-31 47 -31 77z" />
    <glyph glyph-name="afii10106" unicode="&#x459;" horiz-adv-x="1578" 
d="M17 114c40 18 75.834 39 107.501 63s57.5 54.167 77.5 90.5s35.5 81.5 46.5 135.5s16.5 119.667 16.5 197v467h619v-415h282c60 0 113.167 -8.33301 159.5 -25s85 -39.167 116 -67.5s54.333 -62.333 70 -102s23.5 -82.5 23.5 -128.5
c0 -98.667 -31.833 -178.167 -95.5 -238.5s-155.834 -90.5 -276.501 -90.5h-464v901h-262v-294c0 -98.667 -7.5 -183.167 -22.5 -253.5s-37.333 -130 -67 -179s-66 -89.333 -109 -121s-92.5 -57.5 -148.5 -77.5zM882.001 164l277 -0.000976562c62 0 109.667 13.833 143 41.5
s50 68.834 50 123.501c0 39.333 -15 76 -45 110s-79.333 51 -148 51h-277v-326z" />
    <glyph glyph-name="afii10107" unicode="&#x45a;" horiz-adv-x="1617" 
d="M131 0l0.000976562 1067h185v-418h424v418h185v-415h281c60.667 0 114.167 -8.33301 160.5 -25s85 -39.167 116 -67.5s54.333 -62.333 70 -102s23.5 -82.5 23.5 -128.5c0 -98.667 -31.833 -178.167 -95.5 -238.5s-155.834 -90.5 -276.501 -90.5h-464v492h-424v-492h-185z
M923.001 164l277 -0.000976562c62 0 109.667 13.833 143 41.5s50 68.834 50 123.501c0 39.333 -15 76 -45 110s-79.333 51 -148 51h-277v-326z" />
    <glyph glyph-name="afii10108" unicode="&#x45b;" horiz-adv-x="1067" 
d="M2 1230v147h99v162h185v-162h469v-147h-469v-284c86 56 156.333 91.833 211 107.5s101 23.5 139 23.5c116.667 0 203.334 -32.833 260.001 -98.5s85 -159.5 85 -281.5v-697h-185v673c0 83.333 -18 141.5 -54 174.5s-81 49.5 -135 49.5c-44 0 -94.833 -10.667 -152.5 -32
s-113.834 -50.333 -168.501 -87v-778h-185v1230h-99z" />
    <glyph glyph-name="afii10109" unicode="&#x45c;" horiz-adv-x="1040" 
d="M107 0l-0.000976562 1067h183v-454h181c20.667 0 41 1.16699 61 3.5s38.5 8.33301 55.5 18s33 24.334 48 44.001s28.167 46.5 39.5 80.5l103 308h190l-106 -310c-17.333 -52 -37.833 -95.5 -61.5 -130.5s-55.167 -58.5 -94.5 -70.5
c48.667 -10.667 84.334 -35 107.001 -73s42.667 -83.667 60 -137l114 -346h-193l-93 295c-10.667 34 -23 61.333 -37 82s-29.667 36.5 -47 47.5s-36 18.333 -56 22s-42 5.5 -66 5.5h-205v-452h-183zM395.999 1227l154 382l174 -54l-215 -371z" />
    <glyph glyph-name="afii10110" unicode="&#x45e;" horiz-adv-x="1005" 
d="M21 1067h201l129 -470l117 -425h8l150 425l162 470h197l-544 -1500h-198l157 452l-90 75zM205 1498h156c1.33301 -14 5.66602 -28.833 12.999 -44.5s17.333 -30.334 30 -44.001s28.5 -24.834 47.5 -33.501s39.5 -13 61.5 -13c26 0 48.833 4.33301 68.5 13
s35.834 19.834 48.501 33.501s22.334 28.334 29.001 44.001s10 30.5 10 44.5h152c-2.66699 -28.667 -8.83398 -59 -18.501 -91s-26.5 -61.5 -50.5 -88.5s-55 -50 -93 -69s-86.667 -28.5 -146 -28.5c-58.667 0 -107.5 9.5 -146.5 28.5s-70.5 42 -94.5 69
s-41.167 56.5 -51.5 88.5s-15.5 62.333 -15.5 91z" />
    <glyph glyph-name="afii10193" unicode="&#x45f;" horiz-adv-x="1085" 
d="M105 0v1065h183v-901h512v901h183v-1065h-343v-301h-182v301h-353z" />
    <glyph glyph-name="afii10050" unicode="&#x490;" horiz-adv-x="1126" 
d="M131 0v1482h787v256h192v-437h-781v-1301h-198z" />
    <glyph glyph-name="afii10098" unicode="&#x491;" horiz-adv-x="887" 
d="M99 0v1067h593v221h178v-387h-584v-901h-187z" />
    <glyph glyph-name="afii10846" unicode="&#x4d9;" horiz-adv-x="1038" 
d="M92 392l-0.000976562 209.999h676v71c0 84.667 -23.333 145.167 -70 181.5s-105 54.5 -175 54.5c-36 0 -79.833 -7.16699 -131.5 -21.5s-99.5 -42.166 -143.5 -83.499l-110 127c62.667 59.333 125.5 98.5 188.5 117.5s129.833 28.5 200.5 28.5
c60 0 115.833 -8.16699 167.5 -24.5s96.834 -40.666 135.501 -72.999s68.667 -72.833 90 -121.5s32 -105.334 32 -170.001v-282c0 -62.667 -10.667 -119.667 -32 -171s-51 -95.166 -89 -131.499s-83.167 -64 -135.5 -83s-109.833 -28.5 -172.5 -28.5
c-63.333 0 -121.5 9.16699 -174.5 27.5s-98.667 44.666 -137 78.999s-67.833 76.333 -88.5 126s-31 105.5 -31 167.5zM278.999 410.999c0 -89.333 23.668 -153.5 71.001 -192.5s105 -58.5 173 -58.5c31.333 0 61.666 4.83301 90.999 14.5s55.5 24.667 78.5 45
s40.833 45.833 53.5 76.5s19 66.667 19 108v48h-486v-41z" />
    <glyph glyph-name="endash" unicode="&#x2013;" 
d="M43 495v165h989v-165h-989z" />
    <glyph glyph-name="emdash" unicode="&#x2014;" horiz-adv-x="2150" 
d="M43 495v165h2064v-165h-2064z" />
    <glyph glyph-name="quoteleft" unicode="&#x2018;" horiz-adv-x="632" 
d="M174 1213c0 40 6.49902 78.335 19.499 115.002s29.833 70 50.5 100s44.667 56.833 72 80.5s55.333 41.834 84 54.501l64 -84c-32.667 -24 -59 -50.833 -79 -80.5s-31.333 -65.834 -34 -108.501c30 -2.66699 53.833 -15.834 71.5 -39.501s26.5 -51.834 26.5 -84.501
c0 -32 -11.5 -60.833 -34.5 -86.5s-54.5 -38.5 -94.5 -38.5c-27.333 0 -50.166 5.33301 -68.499 16s-33.333 24.167 -45 40.5s-20 34.5 -25 54.5s-7.5 40.333 -7.5 61z" />
    <glyph glyph-name="quoteright" unicode="&#x2019;" horiz-adv-x="632" 
d="M176 1127c33.333 24 59.998 50.8301 79.998 80.4971s31.333 65.834 34 108.501c-30 2.66699 -54 15.834 -72 39.501s-27 52.167 -27 85.5c0 31.333 11.5 60 34.5 86s54.5 39 94.5 39c27.333 0 50.333 -5.5 69 -16.5s33.834 -24.667 45.501 -41
s19.834 -34.833 24.501 -55.5s7 -40.667 7 -60c0 -39.333 -6.33301 -77.5 -19 -114.5s-29.5 -70.5 -50.5 -100.5s-45 -56.667 -72 -80s-55.167 -41.666 -84.5 -54.999z" />
    <glyph glyph-name="quotesinglbase" unicode="&#x201a;" horiz-adv-x="537" 
d="M123 -203c32.667 24.667 59.001 51.6689 79.001 81.002s31.333 65.666 34 108.999c-36.667 3.33301 -62.167 15.666 -76.5 36.999s-21.5 50.333 -21.5 87c0 32 11.5 60.5 34.5 85.5s54.5 37.5 94.5 37.5c27.333 0 50.166 -5.16699 68.499 -15.5
s33.333 -23.666 45 -39.999s20 -34.833 25 -55.5s7.5 -40.334 7.5 -59.001c0 -40 -6.5 -78.167 -19.5 -114.5s-29.833 -69.5 -50.5 -99.5s-44.667 -57 -72 -81s-55.333 -42.333 -84 -55z" />
    <glyph glyph-name="quotedblleft" unicode="&#x201c;" horiz-adv-x="868" 
d="M131 1213c0 40 6.5 78.335 19.5 115.002s29.833 70 50.5 100s44.667 56.833 72 80.5s55.333 41.834 84 54.501l64 -84c-32.667 -24 -59 -50.833 -79 -80.5s-31.333 -65.834 -34 -108.501c30 -2.66699 53.833 -15.834 71.5 -39.501s26.5 -51.834 26.5 -84.501
c0 -32 -11.333 -60.833 -34 -86.5s-54.334 -38.5 -95.001 -38.5c-27.333 0 -50.166 5.33301 -68.499 16s-33.333 24.167 -45 40.5s-20 34.5 -25 54.5s-7.5 40.333 -7.5 61zM458 1213c0 40 6.5 78.335 19.5 115.002s29.833 70 50.5 100s44.5 56.833 71.5 80.5
s55.167 41.834 84.5 54.501l65 -84c-33.333 -24 -60.166 -50.833 -80.499 -80.5s-31.833 -65.834 -34.5 -108.501c30 -2.66699 54 -15.834 72 -39.501s27 -51.834 27 -84.501c0 -32 -11.333 -60.833 -34 -86.5s-54.334 -38.5 -95.001 -38.5
c-27.333 0 -50.333 5.33301 -69 16s-33.5 24.167 -44.5 40.5s-19.167 34.5 -24.5 54.5s-8 40.333 -8 61z" />
    <glyph glyph-name="quotedblright" unicode="&#x201d;" horiz-adv-x="868" 
d="M133 1127c33.333 24 60 50.8301 80 80.4971s31.667 65.834 35 108.501c-30 2.66699 -54.167 15.834 -72.5 39.501s-27.5 52.167 -27.5 85.5c0 31.333 11.5 60 34.5 86s54.5 39 94.5 39c27.333 0 50.333 -5.5 69 -16.5s33.667 -24.667 45 -41s19.5 -34.833 24.5 -55.5
s7.5 -40.667 7.5 -60c0 -39.333 -6.33301 -77.5 -19 -114.5s-29.5 -70.5 -50.5 -100.5s-45.167 -56.667 -72.5 -80s-55.333 -41.666 -84 -54.999zM460 1127c32.667 24 59.168 50.8301 79.501 80.4971s31.833 65.834 34.5 108.501c-30 2.66699 -53.833 15.834 -71.5 39.501
s-26.5 52.167 -26.5 85.5c0 31.333 11.333 60 34 86s54 39 94 39c27.333 0 50.333 -5.5 69 -16.5s33.667 -24.667 45 -41s19.666 -34.833 24.999 -55.5s8 -40.667 8 -60c0 -39.333 -6.5 -77.5 -19.5 -114.5s-30 -70.5 -51 -100.5s-45 -56.667 -72 -80
s-54.833 -41.666 -83.5 -54.999z" />
    <glyph glyph-name="quotedblbase" unicode="&#x201e;" horiz-adv-x="907" 
d="M123 -203c32.667 24.667 59.001 51.6689 79.001 81.002s31.333 65.666 34 108.999c-36.667 3.33301 -62.167 15.666 -76.5 36.999s-21.5 50.333 -21.5 87c0 32 11.5 60.5 34.5 85.5s54.5 37.5 94.5 37.5c27.333 0 50.166 -5.16699 68.499 -15.5
s33.333 -23.666 45 -39.999s20 -34.833 25 -55.5s7.5 -40.334 7.5 -59.001c0 -40 -6.5 -78.167 -19.5 -114.5s-29.833 -69.5 -50.5 -99.5s-44.667 -57 -72 -81s-55.333 -42.333 -84 -55zM505.001 -202.998c32.667 24.667 59.167 51.6689 79.5 81.002
s32.166 65.666 35.499 108.999c-37.333 3.33301 -63.166 15.666 -77.499 36.999s-21.5 50.333 -21.5 87c0 32 11.333 60.5 34 85.5s54 37.5 94 37.5c27.333 0 50.5 -5.16699 69.5 -15.5s34 -23.666 45 -39.999s19.167 -34.833 24.5 -55.5s8 -40.334 8 -59.001
c0 -40 -6.5 -78.167 -19.5 -114.5s-29.833 -69.5 -50.5 -99.5s-44.667 -57 -72 -81s-55.333 -42.333 -84 -55z" />
    <glyph glyph-name="dagger" unicode="&#x2020;" horiz-adv-x="1001" 
d="M49 839v142h366v515h172v-515h365v-142h-365v-1239h-172v1239h-366z" />
    <glyph glyph-name="daggerdbl" unicode="&#x2021;" horiz-adv-x="1001" 
d="M49 288v142h366v409h-366v142h366v515h172v-515h365v-142h-365v-409h365v-142h-365v-688h-172v688h-366z" />
    <glyph glyph-name="bullet" unicode="&#x2022;" horiz-adv-x="876" 
d="M162 589c0 38.667 7.16699 75.334 21.5 110.001s34.166 64.334 59.499 89.001s55.333 44.5 90 59.5s71.334 22.5 110.001 22.5s75.167 -7.5 109.5 -22.5s64.333 -34.833 90 -59.5s46.167 -54.334 61.5 -89.001s23 -71.334 23 -110.001s-7.66699 -75.167 -23 -109.5
s-35.833 -64 -61.5 -89s-55.667 -45 -90 -60s-70.833 -22.5 -109.5 -22.5s-75.334 7.5 -110.001 22.5s-64.667 35 -90 60s-45.166 54.667 -59.499 89s-21.5 70.833 -21.5 109.5z" />
    <glyph glyph-name="ellipsis" unicode="&#x2026;" horiz-adv-x="1670" 
d="M135 119c0 30 10.332 57.668 30.999 83.001s51.334 38 92.001 38c41.333 0 73.666 -12.667 96.999 -38s35 -53 35 -83c0 -36 -11.667 -66.5 -35 -91.5s-55.666 -37.5 -96.999 -37.5c-40 0 -70.5 12.167 -91.5 36.5s-31.5 55.166 -31.5 92.499zM698.999 119.001
c0 30 10.333 57.668 31 83.001s51 38 91 38c41.333 0 73.5 -12.667 96.5 -38s34.5 -53 34.5 -83c0 -36 -11.333 -66.5 -34 -91.5s-55 -37.5 -97 -37.5c-40 0 -70.333 12.167 -91 36.5s-31 55.166 -31 92.499zM1273 119.002c0 30 10.501 57.668 31.501 83.001
s51.167 38 90.5 38c41.333 0 73.666 -12.667 96.999 -38s35 -53 35 -83c0 -36 -11.5 -66.5 -34.5 -91.5s-55.5 -37.5 -97.5 -37.5c-39.333 0 -69.5 12.167 -90.5 36.5s-31.5 55.166 -31.5 92.499z" />
    <glyph glyph-name="perthousand" unicode="&#x2030;" horiz-adv-x="2436" 
d="M103 831l-0.000976562 409.999c0 38.667 8.16699 73.334 24.5 104.001s38.5 56.667 66.5 78s60.333 37.833 97 49.5s75.667 17.5 117 17.5c40 0 78.833 -5.83301 116.5 -17.5s70.5 -28.167 98.5 -49.5s50.167 -47.333 66.5 -78s24.5 -65.334 24.5 -104.001v-410
c0 -38.667 -8.16699 -73.667 -24.5 -105s-38.5 -57.666 -66.5 -78.999s-60.333 -37.666 -97 -48.999s-76 -17 -118 -17c-42.667 0 -82.667 5.66699 -120 17s-69.666 27.666 -96.999 48.999s-48.833 47.5 -64.5 78.5s-23.5 66.167 -23.5 105.5zM259.999 846.999
c0 -24 4.66797 -44.333 14.001 -61s21.5 -30 36.5 -40s31.167 -17.167 48.5 -21.5s33.666 -6.5 48.999 -6.5c16.667 0 33.834 2.16699 51.501 6.5s34 11.5 49 21.5s27.667 23.333 38 40s15.5 37 15.5 61v372c0 24.667 -5.16699 45.167 -15.5 61.5s-23 30 -38 41
s-31.333 18.5 -49 22.5s-34.834 6 -51.501 6c-16 0 -32.5 -2 -49.5 -6s-33 -11.5 -48 -22.5s-27.167 -24.667 -36.5 -41s-14 -36.833 -14 -61.5v-372zM333 -37.001l914 1570h144l-915 -1570h-143zM1004 239.999l-0.00292969 412c0 38.667 8.33301 73.334 25 104.001
s38.834 56.667 66.501 78s59.834 37.833 96.501 49.5s75.667 17.5 117 17.5c40 0 78.833 -5.83301 116.5 -17.5s70.5 -28.167 98.5 -49.5s50.167 -47.333 66.5 -78s24.5 -65.334 24.5 -104.001v-412c0 -38 -8.16699 -72.5 -24.5 -103.5s-38.5 -57.167 -66.5 -78.5
s-60.333 -37.666 -97 -48.999s-76 -17 -118 -17c-42.667 0 -82.667 5.66699 -120 17s-69.666 27.666 -96.999 48.999s-48.833 47.5 -64.5 78.5s-23.5 65.5 -23.5 103.5zM1161 257.999c0 -24 4.83301 -44.333 14.5 -61s22 -30 37 -40s31 -17.167 48 -21.5
s33.167 -6.5 48.5 -6.5c16.667 0 33.834 2.16699 51.501 6.5s34 11.5 49 21.5s27.667 23.333 38 40s15.5 37 15.5 61v372c0 24.667 -5.16699 45.167 -15.5 61.5s-23 30 -38 41s-31.333 18.5 -49 22.5s-34.834 6 -51.501 6c-16 0 -32.333 -2 -49 -6s-32.5 -11.5 -47.5 -22.5
s-27.333 -24.667 -37 -41s-14.5 -36.833 -14.5 -61.5v-372zM1722 239.999v412c0 38.667 8.33301 73.334 25 104.001s38.834 56.667 66.501 78s60 37.833 97 49.5s76.167 17.5 117.5 17.5c39.333 0 77.833 -5.83301 115.5 -17.5s70.5 -28.167 98.5 -49.5
s50.167 -47.333 66.5 -78s24.5 -65.334 24.5 -104.001v-412c0 -38 -8.16699 -72.5 -24.5 -103.5s-38.5 -57.167 -66.5 -78.5s-60.167 -37.666 -96.5 -48.999s-75.5 -17 -117.5 -17c-42.667 0 -82.834 5.66699 -120.501 17s-70 27.666 -97 48.999s-48.5 47.5 -64.5 78.5
s-24 65.5 -24 103.5zM1880 257.999c0 -24 4.66797 -44.333 14.001 -61s21.5 -30 36.5 -40s31 -17.167 48 -21.5s33.5 -6.5 49.5 -6.5s32.833 2.16699 50.5 6.5s34 11.5 49 21.5s27.667 23.333 38 40s15.5 37 15.5 61v372c0 24.667 -5.16699 45.167 -15.5 61.5s-23 30 -38 41
s-31.333 18.5 -49 22.5s-34.5 6 -50.5 6c-16.667 0 -33.334 -2 -50.001 -6s-32.5 -11.5 -47.5 -22.5s-27.167 -24.667 -36.5 -41s-14 -36.833 -14 -61.5v-372z" />
    <glyph glyph-name="guilsinglleft" unicode="&#x2039;" horiz-adv-x="644" 
d="M99 499l273 400h168l-265 -400l265 -400h-168z" />
    <glyph glyph-name="guilsinglright" unicode="&#x203a;" horiz-adv-x="644" 
d="M97 99l264 400l-264 400h168l273 -400l-273 -400h-168z" />
    <glyph glyph-name="fraction" unicode="&#x2044;" horiz-adv-x="322" 
d="M-368 -37l914 1570h144l-916 -1570h-142z" />
    <glyph glyph-name="Euro" unicode="&#x20ac;" 
d="M101 562l-0.000976562 134.998h845v-135h-548v-53c0 -60 8.5 -111.833 25.5 -155.5s40.667 -79 71 -106s65.166 -47 104.499 -60s82 -19.5 128 -19.5c48.667 0 98.334 5.33301 149.001 16s97 29.334 139 56.001l89 -154c-46.667 -28.667 -102.167 -52.667 -166.5 -72
s-133.166 -29 -206.499 -29c-82 0 -155.833 11.5 -221.5 34.5s-121.5 56 -167.5 99s-81.667 94.833 -107 155.5s-38 129.334 -38 206.001v82h-96zM100.999 797.998l-0.000976562 135h96v71c0 74 13.667 141.667 41 203s65 113.5 113 156.5s104.833 75.833 170.5 98.5
s135.5 34 209.5 34c71.333 0 137.333 -7.5 198 -22.5s117.334 -39.5 170.001 -73.5l-97 -159c-38.667 23.333 -82 41.333 -130 54s-95 19 -141 19s-89.333 -6.5 -130 -19.5s-76.167 -33 -106.5 -60s-54 -62 -71 -105s-25.5 -95.5 -25.5 -157.5v-39h548v-135h-845z" />
    <glyph glyph-name="afii61352" unicode="&#x2116;" horiz-adv-x="2031" 
d="M150 0v1479h188l481 -802l176 -303h7v1105h188v-1479h-179l-439 737l-226 396h-6v-1133h-190zM1331 1047l-0.00390625 178.002c0 40 8.33301 77 25 111s39.334 63.333 68.001 88s61.834 43.167 99.501 55.5s78.167 18.5 121.5 18.5
c44.667 0 86.334 -6.16699 125.001 -18.5s71.667 -30.833 99 -55.5s48.833 -53.834 64.5 -87.501s23.5 -70.834 23.5 -111.501v-178c0 -41.333 -8.5 -78.833 -25.5 -112.5s-39.833 -62.334 -68.5 -86.001s-62.167 -41.667 -100.5 -54s-78.166 -18.5 -119.499 -18.5
c-42.667 0 -83 6.16699 -121 18.5s-71 30.333 -99 54s-50.333 52.334 -67 86.001s-25 71.167 -25 112.5zM1352 505.002v149h581v-149h-581zM1484 1069c0 -54.667 15.6709 -93.8311 47.0039 -117.498s69.333 -35.5 114 -35.5c19.333 0 38.166 2.83301 56.499 8.5
s35 14.667 50 27s27.5 28.166 37.5 47.499s15 42.666 15 69.999v137c0 27.333 -5 50.666 -15 69.999s-22.5 35.5 -37.5 48.5s-31.833 22.333 -50.5 28s-37.334 8.5 -56.001 8.5s-37.334 -2.83301 -56.001 -8.5s-35.834 -15 -51.501 -28s-28.5 -29.167 -38.5 -48.5
s-15 -42.666 -15 -69.999v-137z" />
    <glyph glyph-name="trademark" unicode="&#x2122;" horiz-adv-x="1838" 
d="M82 1370v126h662v-126h-264v-757h-131v757h-267zM833 611v881h119l192 -361l120 -234h6l117 234l191 361h117v-881h-127v600h-7l-86 -170l-161 -299h-95l-152 275l-101 194h-7v-600h-126z" />
    <glyph glyph-name="partialdiff" unicode="&#x2202;" horiz-adv-x="1139" 
d="M94 464c0 74 11.335 141.328 34.002 201.995s53.5 111.834 92.5 153.501s85.167 73.834 138.5 96.501s110 34 170 34c56 0 110.167 -10.667 162.5 -32s109.166 -57 170.499 -107c-4 83.333 -15.667 161.5 -35 234.5s-46.666 136.667 -81.999 191s-78.333 97.333 -129 129
s-110.334 47.5 -179.001 47.5c-23.333 0 -47.166 -1.16699 -71.499 -3.5s-48.5 -7.16602 -72.5 -14.499v136c56 12.667 109.667 19.334 161 20.001c108.667 0 200.667 -21.5 276 -64.5s136.666 -101.167 183.999 -174.5s81.333 -158 102 -254s31 -197 31 -303
c0 -128.667 -12.5 -241.5 -37.5 -338.5s-60 -177.667 -105 -242s-98.833 -113 -161.5 -146s-131 -49.5 -205 -49.5c-63.333 0 -122 10.333 -176 31s-100.833 51.5 -140.5 92.5s-70.834 91.333 -93.501 151s-34 129.834 -34 210.501zM265.002 467.995
c0 -60 7.83691 -111.669 23.5039 -155.002s36.5 -78.666 62.5 -105.999s55.667 -47.5 89 -60.5s68.666 -19.5 105.999 -19.5c57.333 0 106.166 15 146.499 45s72.5 69 96.5 117s42.167 101.833 54.5 161.5s19.833 119.5 22.5 179.5c-57.333 66 -114.166 113 -170.499 141
s-107.5 42 -153.5 42c-42.667 0 -81.334 -10 -116.001 -30s-63.834 -46.167 -87.501 -78.5s-41.834 -69.166 -54.501 -110.499s-19 -83.333 -19 -126z" />
    <glyph glyph-name="product" unicode="&#x220f;" horiz-adv-x="1309" 
d="M117 -176v1658h1094v-1658h-202v1477h-695v-1477h-197z" />
    <glyph glyph-name="summation" unicode="&#x2211;" horiz-adv-x="1081" 
d="M66 -4l357 671l-357 649v166h929v-183h-689l348 -632l-361 -667h722v-176h-949v172z" />
    <glyph glyph-name="radical" unicode="&#x221a;" horiz-adv-x="1207" 
d="M35 788l298 98l303 -808l375 1636h161l-454 -1888h-146l-340 890l-152 -51z" />
    <glyph glyph-name="infinity" unicode="&#x221e;" horiz-adv-x="1564" 
d="M86 585c0 44 8.99609 86.167 26.9961 126.5s42 75.5 72 105.5s65.333 54 106 72s84 27 130 27c38.667 0 76.334 -7.16699 113.001 -21.5s70.834 -33.333 102.501 -57s60.334 -49.834 86.001 -78.501s48.167 -57.334 67.5 -86.001c25.333 32.667 51.5 63.834 78.5 93.501
s56 55.667 87 78s64.5 39.833 100.5 52.5s75.333 19 118 19c44 0 85.5 -8.33301 124.5 -25s72.833 -39.667 101.5 -69s50.834 -64 66.501 -104s23.5 -84.333 23.5 -133c0 -44 -8.66699 -86.167 -26 -126.5s-41 -75.833 -71 -106.5s-65.5 -55 -106.5 -73
s-84.833 -27 -131.5 -27c-37.333 0 -72.833 7.16699 -106.5 21.5s-66 32.833 -97 55.5s-60.167 48.334 -87.5 77.001s-52 57.334 -74 86.001c-26 -31.333 -52.667 -61.333 -80 -90s-56.5 -54 -87.5 -76s-64.5 -39.833 -100.5 -53.5s-75.333 -20.5 -118 -20.5
c-44 0 -85.333 8.16699 -124 24.5s-72.5 39.333 -101.5 69s-51.667 64.667 -68 105s-24.5 85.166 -24.5 134.499zM218.996 585c0 -57.333 19.833 -105.004 59.5 -143.004s85.834 -57 138.501 -57c60 0 114.5 19.333 163.5 58s89.167 85.334 120.5 140.001
c-12.667 22.667 -29 45.834 -49 69.501s-42.333 45.334 -67 65.001s-50.667 35.334 -78 47.001s-56 17.5 -86 17.5c-26 0 -51 -5.16699 -75 -15.5s-45.333 -24.5 -64 -42.5s-33.834 -38.833 -45.501 -62.5s-17.5 -49.167 -17.5 -76.5zM872.996 584.996l63.5 -75
c21 -24 42.833 -45.167 65.5 -63.5s47 -33.166 73 -44.499s54 -17 84 -17c26 0 51 5.33301 75 16s45.167 25 63.5 43s32.833 39.167 43.5 63.5s16 50.166 16 77.499c0 57.333 -19 104.5 -57 141.5s-82.667 55.5 -134 55.5c-60.667 0 -114.167 -18.833 -160.5 -56.5
s-90.5 -84.5 -132.5 -140.5z" />
    <glyph glyph-name="integral" unicode="&#x222b;" horiz-adv-x="679" 
d="M-80 -301l34.998 120.002c30 -6.66699 52.167 -9.66699 66.5 -9s27.166 1 38.499 1c24.667 0 47.167 4.83301 67.5 14.5s38 28.167 53 55.5s27.333 64.166 37 110.499s17.167 105.833 22.5 178.5c7.33301 86 12.5 192 15.5 318s4.5 279.333 4.5 460
c0 60 1.5 117.667 4.5 173s7.16699 104.333 12.5 147c8.66699 66 19.834 123.833 33.501 173.5s33 91 58 124s56 58 93 75s82.167 25.5 135.5 25.5c20.667 0 46.667 -2.33301 78 -7s58 -11.334 80 -20.001l-35 -123c-24 7.33301 -44.667 11.333 -62 12s-31.666 1 -42.999 1
c-30 0 -55.167 -5.16699 -75.5 -15.5s-37.666 -28.833 -51.999 -55.5s-25.333 -63 -33 -109s-14.167 -105.667 -19.5 -179c-3.33301 -40 -5.33301 -93.167 -6 -159.5s-1 -136.333 -1 -210s-0.333008 -147 -1 -220s-2.66699 -136.5 -6 -190.5
c-2.66699 -60.667 -5.5 -117.5 -8.5 -170.5s-7.83301 -102.5 -14.5 -148.5c-18.667 -142 -54.5 -243.833 -107.5 -305.5s-129.833 -92.5 -230.5 -92.5c-20.667 0 -43.667 2.16699 -69 6.5s-49 10.833 -71 19.5z" />
    <glyph glyph-name="approxequal" unicode="&#x2248;" 
d="M56 415c38 65.333 81.8359 111.667 131.503 139s102.5 41 158.5 41c33.333 0 67.166 -6.83301 101.499 -20.5s68.333 -28.667 102 -45s66.667 -31.333 99 -45s63.5 -20.5 93.5 -20.5c36 0 66 9.83301 90 29.5s50.333 48.834 79 87.501l115 -84
c-40 -64.667 -81.833 -112.334 -125.5 -143.001s-98.834 -46 -165.501 -46c-28.667 0 -59.834 6.83301 -93.501 20.5s-67.667 29 -102 46s-68.333 32.333 -102 46s-65.5 20.5 -95.5 20.5c-38 0 -69 -9 -93 -27s-50.333 -45.667 -79 -83zM56.0029 755.001
c38 66 81.8359 112.671 131.503 140.004s102.5 41 158.5 41c33.333 0 67.166 -6.83301 101.499 -20.5s68.333 -28.834 102 -45.501s66.667 -31.834 99 -45.501s63.5 -20.5 93.5 -20.5c36 0 66 9.66699 90 29s50.333 48.666 79 87.999l115 -84
c-40 -64.667 -81.833 -112.5 -125.5 -143.5s-98.834 -46.5 -165.501 -46.5c-28.667 0 -59.834 6.83301 -93.501 20.5s-67.667 29.167 -102 46.5s-68.333 32.666 -102 45.999s-65.5 20 -95.5 20c-38 0 -69 -8.83301 -93 -26.5s-50.333 -45.167 -79 -82.5z" />
    <glyph glyph-name="notequal" unicode="&#x2260;" 
d="M62 123l174 232h-174v144h284l202 269h-486v143h594l202 267h155l-202 -267h200v-143h-310l-202 -269h512v-144h-621l-175 -232h-153z" />
    <glyph glyph-name="lessequal" unicode="&#x2264;" horiz-adv-x="1139" 
d="M94 6v138h949v-138h-949zM94 574v130l947 350v-153l-772 -263l772 -260v-152z" />
    <glyph glyph-name="greaterequal" unicode="&#x2265;" horiz-adv-x="1139" 
d="M94 2v138h949v-138h-949zM97 222v152l771 260l-771 263v152l946 -350v-129z" />
    <glyph glyph-name="lozenge" unicode="&#x25ca;" horiz-adv-x="1139" 
d="M119 679l186.5 363.5l186.5 361.5h151l368 -725l-371 -720h-148l-90 175.5l-95.5 185l-96.5 184.5zM312 681l129.5 -256.5l126.5 -256.5l126.5 255.5l126.5 255.5l-255 519z" />
    <glyph glyph-name="uni25FC" unicode="&#x25fc;" horiz-adv-x="1063" 
d="M0 0v1065h1065v-1065h-1065z" />
    </font>
</defs>
</svg>
