<svg id="Layer_2" xmlns="http://www.w3.org/2000/svg" viewBox="0 0 14.1 14.1"><style>.st0{fill:#457964}.st1{fill:#fff}.st2{fill:none;stroke:#fff;stroke-width:.35;stroke-miterlimit:10}</style><path class="st0" d="M0 0h14.1v14.1H0z"/><path class="st1" d="M4.9 5.1c0 .3-.2.6-.6.6-.3 0-.5-.3-.5-.6V2.7c0-.3.2-.6.6-.6.3 0 .6.2.6.6v2.4zM10.4 5.1c0 .3-.2.6-.6.6-.3 0-.6-.2-.6-.6V2.7c0-.3.2-.6.6-.6.3 0 .6.2.6.6v2.4zM8.5 3.2L8 3.1s.1-.5-.2-.8C7.7 2 7.4 2 7.1 2c-.4 0-.6 0-.7.2-.3.3-.2.8-.2.9l-.5.1s-.1-.8.3-1.3c.2-.3.6-.5 1.1-.5.5 0 .9.2 1.1.5.4.5.3 1.2.3 1.3M4.3 10c0 .5-.4.9-.9.9s-.9-.4-.9-.9V7.8c0-.5.4-.9.9-.9s.9.4.9.9V10zM11.7 10c0 .5-.4.9-.9.9s-.9-.4-.9-.9V7.8c0-.5.4-.9.9-.9s.9.4.9.9V10z"/><path class="st2" d="M10.8 6.1C10.7 4.2 9 2.7 7.1 2.7c-2 0-3.6 1.5-3.7 3.5V10.6c0 .6.5 1.1 1.1 1.1h5.2c.6 0 1.1-.5 1.1-1.1V6.3v-.2"/><path class="st2" d="M10.8 6.1C10.7 4.2 9 2.7 7.1 2.7c-2 0-3.6 1.5-3.7 3.5V10.6c0 .6.5 1.1 1.1 1.1h5.2c.6 0 1.1-.5 1.1-1.1V6.3v-.2z"/><path class="st2" d="M10.2 9.7c-.1-1.7-1.5-3-3.2-3-1.6 0-3 1.3-3.1 3v1.5s.1.1.5.1h5.3c.3 0 .6-.2.6-.2l-.1-1.4c0 .1 0 0 0 0M7.9 5.8c0 .2-.2.4-.4.4h-.7c-.2 0-.3-.2-.3-.4v-.4c0-.2.1-.4.3-.4h.7c.2 0 .4.2.4.4v.4z"/><path class="st2" d="M10.2 10.1c-.1-1.7-1.5-3-3.2-3-1.7 0-3.1 1.3-3.2 3v1.5s.1.1.5.1h5.3c.3 0 .6-.2.6-.2v-1.3-.1"/><path class="st2" d="M10.2 10.1c-.1-1.7-1.5-3-3.2-3-1.7 0-3.1 1.3-3.2 3v1.5s.1.1.5.1h5.3c.3 0 .6-.2.6-.2v-1.3-.1z"/></svg>