<svg id="Layer_2" xmlns="http://www.w3.org/2000/svg" viewBox="0 0 14.2 14.2"><style>.st0{fill:#457964}.st1{fill:#fff}</style><path class="st0" d="M0 0h14.2v14.2H0z"/><path class="st1" d="M10.8 4c-.1.1-.2.2-.4.3v-.4c0-.2.1-.4.3-.7.1.3.2.6.1.8M8.3 5.9c0 .2-.1.3-.3.3H5.1c-.1 0-.3-.1-.3-.3v-2c0-.2.1-.3.3-.3H8c.2 0 .3.1.3.3v2zm3.5-4.6c-.1-.1-.3-.1-.4 0-.2.2-1.4 1.5-1.6 2.5-.2.8.1 1.7.4 2.6.2.6.4 1.2.4 1.6 0 .4-.2.6-.3.6-.1 0-.3-.2-.3-.5 0-.4 0-1.7-1-1.9v-3c-.1-.1-.2-.2-.3-.2h-.4v-.3c0-.2-.1-.3-.3-.3H5.1c-.1 0-.3.1-.3.3V3h-.3c-.1 0-.3.1-.3.2v7.4h-.6c-.2 0-.3.1-.3.3v.6c0 .2.1.3.3.3h5.9c.2 0 .3-.1.3-.3v-.6c0-.2-.1-.3-.3-.3h-.6V6.8c.2.1.5.4.5 1.3 0 .8.5 1.1.9 1.1s.9-.4.9-1.2c0-.5-.2-1.2-.4-1.8-.1-.5-.3-.9-.4-1.3.5-.1.8-.3.9-.6.3-.6-.2-1.4-.3-1.6.3-.4.6-.7.9-1 0-.1 0-.3-.1-.4"/></svg>