<svg id="Layer_2" xmlns="http://www.w3.org/2000/svg" viewBox="0 0 14.2 14.2"><style>.st0{fill:#457964}.st1{fill:#fff;stroke:#fff;stroke-width:.5;stroke-miterlimit:10}</style><path class="st0" d="M0 0h14.2v14.2H0z"/><path class="st1" d="M7.2 10.9v1.3h-.9V11c-.7 0-1.5-.2-1.9-.6l.3-.8c.5.3 1.1.5 1.8.5.9 0 1.5-.5 1.5-1.2s-.5-1.1-1.4-1.5c-1.3-.5-2.1-1.1-2.1-2.2 0-1 .8-1.8 1.9-2V1.9h.9v1.2c.8 0 1.3.2 1.6.4l-.4.9C8.3 4.2 7.8 4 7 4c-1 0-1.4.5-1.4 1 0 .7.5 1 1.6 1.4 1.3.5 2 1.2 2 2.3-.1 1.1-.8 2-2 2.2"/></svg>