<svg id="Layer_2" xmlns="http://www.w3.org/2000/svg" viewBox="0 0 14.1 14.1"><style>.st0{fill:#457964}.st1{fill:#fff;stroke:#fff;stroke-width:.25;stroke-miterlimit:10}</style><path class="st0" d="M0 0h14.1v14.1H0z"/><path class="st1" d="M12.1 7.4c-.1-.9-.7-2-1-2.2-.1-.2-.5-.5-1-.2-.1 0-.2.2-.3.4l-.3.3c-.1.1-.4.1-.6.2-.3 0-.5 0-.8.1.2-.3.3-.7.3-1.1 0-1.1-.9-2.1-2.1-2.1-.9 0-1.7.6-2 1.5-.3.2-1 .4-1.5.4 0 0-.1 0-.1.1v.1c.2.1.4.4.7.6.5.5 1.1.5 1.3.6v.1c-.7.1-1.4.7-1.5 1.5-.1.6 0 1.1.2 1.6.2.4.8 1.2 1.6 1.6.8.3 1.6.5 2.5.5.3 0 .7 0 1-.1h.1c.5-.1 1.7-.2 2.5-1.2.7-.8 1.1-2 1-2.7M3.6 5.3c-.2-.1-.4-.3-.4-.5.3 0 .8-.1 1.2-.3v.2c0 .3.1.7.2 1-.3 0-.7-.1-1-.4m7.3 4.7c-.8.8-1.9 1-2.4 1h-.1c-1.3.2-2.4 0-3.4-.4-.8-.4-1.3-1.1-1.5-1.5 0-.4-.1-.9 0-1.4.1-.6.7-1.1 1.3-1.2h.1c.1-.2.2-.3.1-.6v-.1l-.1-.1c-.2-.3-.3-.6-.3-1 0-1 .8-1.8 1.8-1.8s1.8.8 1.8 1.8c-.1.5-.2.9-.5 1.3v.2c0 .1.1.1.1.1.4 0 .7 0 1.1-.1.3 0 .6-.1.8-.3.1-.1.2-.2.3-.4.1-.1.2-.3.3-.3.2-.1.3-.1.6.2.2.2.8 1.3.9 2.1.1.6-.3 1.7-.9 2.5"/><path class="st1" d="M12.1 7.4c-.1-.9-.7-2-1-2.2-.1-.2-.5-.5-1-.2-.1 0-.2.2-.3.4l-.3.3c-.1.1-.4.1-.6.2-.3 0-.5 0-.8.1.2-.3.3-.7.3-1.1 0-1.1-.9-2.1-2.1-2.1-.9 0-1.7.6-2 1.5-.3.2-1 .4-1.5.4 0 0-.1 0-.1.1v.1c.2.1.4.4.7.6.5.5 1.1.5 1.3.6v.1c-.7.1-1.4.7-1.5 1.5-.1.6 0 1.1.2 1.6.2.4.8 1.2 1.6 1.6.8.3 1.6.5 2.5.5.3 0 .7 0 1-.1h.1c.5-.1 1.7-.2 2.5-1.2.7-.8 1.1-2 1-2.7M3.6 5.3c-.2-.1-.4-.3-.4-.5.3 0 .8-.1 1.2-.3v.2c0 .3.1.7.2 1-.3 0-.7-.1-1-.4m7.3 4.7c-.8.8-1.9 1-2.4 1h-.1c-1.3.2-2.4 0-3.4-.4-.8-.4-1.3-1.1-1.5-1.5 0-.4-.1-.9 0-1.4.1-.6.7-1.1 1.3-1.2h.1c.1-.2.2-.3.1-.6v-.1l-.1-.1c-.2-.3-.3-.6-.3-1 0-1 .8-1.8 1.8-1.8s1.8.8 1.8 1.8c-.1.5-.2.9-.5 1.3v.2c0 .1.1.1.1.1.4 0 .7 0 1.1-.1.3 0 .6-.1.8-.3.1-.1.2-.2.3-.4.1-.1.2-.3.3-.3.2-.1.3-.1.6.2.2.2.8 1.3.9 2.1.1.6-.3 1.7-.9 2.5"/><path class="st1" d="M6.5 4.4c0 .2-.2.3-.3.3-.2 0-.3-.2-.3-.3 0-.2.2-.3.3-.3.1 0 .3.1.3.3"/><circle class="st1" cx="6.1" cy="4.4" r=".3"/></svg>